<svg width="222" height="222" viewBox="0 0 222 222" fill="none" xmlns="http://www.w3.org/2000/svg">
<path d="M76.5247 24.1584L73.9214 25.6612C73.928 25.5463 73.928 25.4312 73.9214 25.3164V24.5606C73.9214 23.2346 72.9799 22.6732 71.813 23.3451C71.3142 23.6542 70.8864 24.0655 70.5577 24.5517C70.3677 22.8633 69.0417 22.2357 67.4328 23.1639C66.5149 23.7614 65.751 24.5673 65.2034 25.5158C64.6558 26.4644 64.3399 27.5288 64.2813 28.6226V29.7497C64.267 30.2066 64.3593 30.6606 64.551 31.0757L62.3807 32.3221C62.0405 32.5437 61.7575 32.8426 61.5547 33.1944C61.3519 33.5462 61.2351 33.941 61.2139 34.3465C61.2139 35.0934 61.7354 35.394 62.3807 35.0227L76.5247 26.8546C76.8656 26.6332 77.1493 26.3344 77.3528 25.9827C77.5564 25.6309 77.674 25.236 77.696 24.8302C77.6828 24.0876 77.1568 23.7871 76.5247 24.1584Z" fill="#EBEBEB"/>
<path d="M93.281 22.5986L91.3715 23.6992C91.3759 23.6152 91.3759 23.5312 91.3715 23.4472V22.8903C91.3715 21.9047 90.682 21.5069 89.829 22.0063C89.4628 22.2318 89.1493 22.5333 88.9096 22.8903C88.7682 21.6527 87.7958 21.193 86.6156 21.8737C85.9467 22.3101 85.3894 22.8973 84.9887 23.5882C84.588 24.2791 84.355 25.0544 84.3084 25.8517V26.6782C84.3007 27.0085 84.3672 27.3362 84.5029 27.6374L82.9161 28.5567C82.6666 28.7186 82.4589 28.937 82.3099 29.1943C82.1609 29.4517 82.0748 29.7405 82.0586 30.0375C82.0586 30.5855 82.4431 30.8065 82.9161 30.5325L93.2677 24.5567C93.5167 24.3936 93.7237 24.1742 93.8719 23.9162C94.0202 23.6581 94.1054 23.3687 94.1208 23.0715C94.134 22.5411 93.7628 22.3201 93.281 22.5986Z" fill="#EBEBEB"/>
<path d="M184.239 36.7002C187.42 36.7002 189.998 34.1217 189.998 30.9409C189.998 27.7602 187.42 25.1816 184.239 25.1816C181.058 25.1816 178.479 27.7602 178.479 30.9409C178.479 34.1217 181.058 36.7002 184.239 36.7002Z" fill="#FFBDA7"/>
<path d="M204.284 122.553L100.148 62.4277V72.5009L204.284 132.626V122.553Z" fill="#004AAD"/>
<path opacity="0.5" d="M204.284 122.553L100.148 62.4277V72.5009L204.284 132.626V122.553Z" fill="white"/>
<path d="M204.283 136.205L216.695 129.041V115.383L204.283 122.552V136.205Z" fill="#004AAD"/>
<path opacity="0.3" d="M204.283 136.205L216.695 129.041V115.383L204.283 122.552V136.205Z" fill="white"/>
<path d="M112.56 55.2617L100.148 62.4265L204.284 122.539L216.695 115.374L112.56 55.2617ZM103.247 62.4265L112.56 57.0739L213.588 115.418L204.284 120.793L103.247 62.4265Z" fill="#004AAD"/>
<path opacity="0.7" d="M112.56 55.2617L100.148 62.4265L204.284 122.539L216.695 115.374L112.56 55.2617ZM103.247 62.4265L112.56 57.0739L213.588 115.418L204.284 120.793L103.247 62.4265Z" fill="white"/>
<path d="M112.56 57.0527V64.2176L207.382 118.968L213.592 115.383L112.56 57.0527Z" fill="#004AAD"/>
<path opacity="0.5" d="M112.56 57.0527V64.2176L207.382 118.968L213.592 115.383L112.56 57.0527Z" fill="white"/>
<path d="M112.56 57.0527L103.247 62.4275L109.457 66.0121L112.56 64.2176V57.0527Z" fill="#004AAD"/>
<path d="M112.56 57.0527L103.247 62.4275L109.457 66.0121L112.56 64.2176V57.0527Z" fill="#004AAD"/>
<path opacity="0.3" d="M112.56 57.0527L103.247 62.4275L109.457 66.0121L112.56 64.2176V57.0527Z" fill="white"/>
<path d="M204.284 120.757L207.382 118.967L112.56 64.2168L109.457 66.0113L204.284 120.757Z" fill="#455A64"/>
<path d="M190.838 89.6199C191.312 89.5716 191.79 89.6574 192.217 89.8674C193.019 90.3235 193.775 90.858 194.471 91.4631C195.174 92.0689 196.046 92.4452 196.969 92.5415C197.892 92.5725 198.887 91.9979 199.055 91.0918C199.067 90.9389 199.106 90.7894 199.17 90.6498C199.261 90.5346 199.387 90.4524 199.529 90.4157C199.671 90.379 199.821 90.3898 199.957 90.4465C200.225 90.566 200.48 90.7142 200.717 90.8885C201.649 91.4365 202.816 91.3305 203.89 91.1581C204.774 91.0299 205.906 90.6321 205.901 89.7348C205.901 89.147 205.389 88.7138 204.982 88.2851C204.575 87.8563 204.248 87.1757 204.62 86.7204C204.758 86.5664 204.937 86.4558 205.137 86.4022C206.251 86.0397 207.612 86.5215 208.553 85.8231C208.885 85.5407 209.114 85.1562 209.204 84.7298C209.293 84.3034 209.239 83.8593 209.049 83.4673C208.845 83.0818 208.561 82.7453 208.214 82.4811C207.867 82.217 207.467 82.0317 207.042 81.938C206.295 81.7479 205.34 81.6595 205.062 80.939C204.819 80.307 205.309 79.613 205.866 79.2373C206.423 78.8616 207.086 78.5788 207.471 78.0218C207.662 77.7265 207.768 77.3843 207.777 77.0326C207.787 76.6809 207.699 76.3335 207.524 76.0284C207.344 75.7259 207.101 75.466 206.811 75.2668C206.521 75.0676 206.191 74.9338 205.844 74.8748C205.496 74.8492 205.154 74.7733 204.827 74.6494C204.666 74.5834 204.536 74.4569 204.466 74.2969C204.395 74.1368 204.39 73.9556 204.452 73.7919C204.549 73.6107 204.766 73.5134 204.894 73.3499C204.987 73.1685 205.008 72.9585 204.952 72.7624C204.896 72.5663 204.768 72.3987 204.593 72.2935C204.239 72.09 203.856 71.9409 203.457 71.8515C202.648 71.5819 201.862 70.7996 202.105 69.9819C202.348 69.1642 203.515 68.8548 203.873 68.0371C204.178 67.3122 203.691 66.4724 203.046 66.0304C202.401 65.5884 201.61 65.4072 200.898 65.0712C200.186 64.7353 199.501 64.143 199.444 63.3607C199.386 62.5784 199.988 61.8844 200.478 61.2479C200.969 60.6115 201.384 59.7186 200.955 59.0379C200.527 58.3573 199.63 58.3484 198.891 58.1142C198.444 57.9671 198.032 57.7278 197.683 57.4119C197.333 57.096 197.054 56.7103 196.863 56.2799C196.668 55.8379 196.571 55.334 196.337 54.9008C195.607 53.5483 193.769 52.9604 192.359 53.1328C192.071 53.1518 191.794 53.2469 191.555 53.4085C191.317 53.5701 191.126 53.7923 191.002 54.0522C190.762 54.3193 190.59 54.6409 190.502 54.9892C190.396 55.639 190.741 56.4699 190.127 56.965C189.194 57.7208 187.762 56.7042 187.81 58.397C187.812 59.1102 187.919 59.8192 188.129 60.501C188.381 61.2126 188.893 61.5176 188.469 62.3132C187.921 63.3474 187.558 63.3386 186.458 63.3386C185.662 63.3386 184.999 63.2944 184.416 63.8955C183.386 64.9607 184 65.9199 184.911 66.7376C185.945 67.6702 185.397 68.0636 185.26 69.2835C185.198 69.8625 185.331 70.0393 184.818 70.4283C183.837 71.1532 183.289 70.9101 183.567 72.3333C183.819 73.6372 183.43 73.1908 182.303 73.6593C181.3 74.1013 180.641 75.1665 179.828 75.8384C179.306 76.2804 178.502 76.6074 178.462 77.3633C178.369 78.8174 180.177 78.4992 181.035 78.844C182.436 79.4141 182.02 81.2529 180.924 81.938C179.828 82.6231 178.073 82.9369 177.98 84.59C177.91 85.8629 178.635 86.1458 179.625 86.5745C180.411 86.9149 180.314 87.0165 180.314 87.9536C180.314 89.8586 180.951 90.3978 182.825 90.0884C183.342 90 184.124 89.7835 184.637 89.9382C185.353 90.1547 185.11 90.3315 185.132 90.9282C185.181 92.4664 186.971 92.0332 187.726 91.3702C188.557 90.6144 189.676 89.7348 190.838 89.6199Z" fill="#004AAD"/>
<path opacity="0.1" d="M190.838 89.6199C191.312 89.5716 191.79 89.6574 192.217 89.8674C193.019 90.3235 193.775 90.858 194.471 91.4631C195.174 92.0689 196.046 92.4452 196.969 92.5415C197.892 92.5725 198.887 91.9979 199.055 91.0918C199.067 90.9389 199.106 90.7894 199.17 90.6498C199.261 90.5346 199.387 90.4524 199.529 90.4157C199.671 90.379 199.821 90.3898 199.957 90.4465C200.225 90.566 200.48 90.7142 200.717 90.8885C201.649 91.4365 202.816 91.3305 203.89 91.1581C204.774 91.0299 205.906 90.6321 205.901 89.7348C205.901 89.147 205.389 88.7138 204.982 88.2851C204.575 87.8563 204.248 87.1757 204.62 86.7204C204.758 86.5664 204.937 86.4558 205.137 86.4022C206.251 86.0397 207.612 86.5215 208.553 85.8231C208.885 85.5407 209.114 85.1562 209.204 84.7298C209.293 84.3034 209.239 83.8593 209.049 83.4673C208.845 83.0818 208.561 82.7453 208.214 82.4811C207.867 82.217 207.467 82.0317 207.042 81.938C206.295 81.7479 205.34 81.6595 205.062 80.939C204.819 80.307 205.309 79.613 205.866 79.2373C206.423 78.8616 207.086 78.5788 207.471 78.0218C207.662 77.7265 207.768 77.3843 207.777 77.0326C207.787 76.6809 207.699 76.3335 207.524 76.0284C207.344 75.7259 207.101 75.466 206.811 75.2668C206.521 75.0676 206.191 74.9338 205.844 74.8748C205.496 74.8492 205.154 74.7733 204.827 74.6494C204.666 74.5834 204.536 74.4569 204.466 74.2969C204.395 74.1368 204.39 73.9556 204.452 73.7919C204.549 73.6107 204.766 73.5134 204.894 73.3499C204.987 73.1685 205.008 72.9585 204.952 72.7624C204.896 72.5663 204.768 72.3987 204.593 72.2935C204.239 72.09 203.856 71.9409 203.457 71.8515C202.648 71.5819 201.862 70.7996 202.105 69.9819C202.348 69.1642 203.515 68.8548 203.873 68.0371C204.178 67.3122 203.691 66.4724 203.046 66.0304C202.401 65.5884 201.61 65.4072 200.898 65.0712C200.186 64.7353 199.501 64.143 199.444 63.3607C199.386 62.5784 199.988 61.8844 200.478 61.2479C200.969 60.6115 201.384 59.7186 200.955 59.0379C200.527 58.3573 199.63 58.3484 198.891 58.1142C198.444 57.9671 198.032 57.7278 197.683 57.4119C197.333 57.096 197.054 56.7103 196.863 56.2799C196.668 55.8379 196.571 55.334 196.337 54.9008C195.607 53.5483 193.769 52.9604 192.359 53.1328C192.071 53.1518 191.794 53.2469 191.555 53.4085C191.317 53.5701 191.126 53.7923 191.002 54.0522C190.762 54.3193 190.59 54.6409 190.502 54.9892C190.396 55.639 190.741 56.4699 190.127 56.965C189.194 57.7208 187.762 56.7042 187.81 58.397C187.812 59.1102 187.919 59.8192 188.129 60.501C188.381 61.2126 188.893 61.5176 188.469 62.3132C187.921 63.3474 187.558 63.3386 186.458 63.3386C185.662 63.3386 184.999 63.2944 184.416 63.8955C183.386 64.9607 184 65.9199 184.911 66.7376C185.945 67.6702 185.397 68.0636 185.26 69.2835C185.198 69.8625 185.331 70.0393 184.818 70.4283C183.837 71.1532 183.289 70.9101 183.567 72.3333C183.819 73.6372 183.43 73.1908 182.303 73.6593C181.3 74.1013 180.641 75.1665 179.828 75.8384C179.306 76.2804 178.502 76.6074 178.462 77.3633C178.369 78.8174 180.177 78.4992 181.035 78.844C182.436 79.4141 182.02 81.2529 180.924 81.938C179.828 82.6231 178.073 82.9369 177.98 84.59C177.91 85.8629 178.635 86.1458 179.625 86.5745C180.411 86.9149 180.314 87.0165 180.314 87.9536C180.314 89.8586 180.951 90.3978 182.825 90.0884C183.342 90 184.124 89.7835 184.637 89.9382C185.353 90.1547 185.11 90.3315 185.132 90.9282C185.181 92.4664 186.971 92.0332 187.726 91.3702C188.557 90.6144 189.676 89.7348 190.838 89.6199Z" fill="white"/>
<path opacity="0.15" d="M205.146 86.3801C205.999 86.1016 207.002 86.3182 207.846 86.1237C207.348 86.0047 206.841 85.9234 206.33 85.8806C205.587 85.8486 204.849 86.01 204.187 86.3491C203.897 86.4571 203.637 86.6311 203.426 86.8574C203.346 87.0042 203.307 87.1697 203.312 87.3368C203.318 87.5039 203.368 87.6665 203.457 87.8077C203.599 88.1436 203.82 88.6652 203.457 88.9437C203.095 89.2221 202.414 89.1514 201.99 89.0011C201.463 88.7925 200.949 88.5519 200.452 88.2807C199.97 88.0152 199.46 87.8047 198.931 87.653C198.551 87.5602 197.884 87.5116 197.645 87.9226C197.491 88.1719 197.403 88.4564 197.389 88.7492C197.431 88.9667 197.431 89.1902 197.389 89.4078C197.339 89.6354 197.229 89.8452 197.069 90.0149C196.909 90.1846 196.707 90.3078 196.483 90.3713C196.181 90.404 195.877 90.3518 195.603 90.2206C195.33 90.0894 195.099 89.8844 194.936 89.6288C194.573 89.147 194.348 88.5724 193.981 88.0906C193.466 87.4703 192.74 87.0628 191.942 86.9469C191.145 86.8309 190.332 87.0148 189.663 87.463C189.114 87.8608 188.425 88.4619 187.895 88.0641C187.364 87.6663 187.665 86.4817 187.011 86.1591C186.569 85.9425 185.972 86.2872 185.614 85.9646C185.477 85.8186 185.39 85.6328 185.366 85.4342C185.105 84.3513 184.884 83.096 185.565 82.2164C186.175 81.4297 187.461 80.9479 187.333 79.9622C187.214 79.1224 186.144 78.8705 185.304 78.7688C184.465 78.6672 183.391 78.2738 183.435 77.4428C183.479 76.6119 184.602 76.2096 184.761 75.3964C184.831 75.0472 184.712 74.6582 184.871 74.34C185.114 73.8626 185.799 73.8405 186.197 73.4869C186.918 72.8504 186.356 71.657 186.56 70.7156C186.706 70.0482 187.245 69.5266 187.422 68.868C187.78 67.542 186.586 66.3044 185.335 65.774C184.839 65.6052 184.362 65.3845 183.912 65.1154C183.896 65.1062 183.881 65.0942 183.868 65.0801C183.984 65.7404 184.351 66.3299 184.893 66.7243C185.928 67.6569 185.38 68.0503 185.243 69.2702C185.181 69.8493 185.313 70.0261 184.801 70.415C183.819 71.1399 183.271 70.8968 183.55 72.32C183.802 73.6239 183.413 73.1775 182.286 73.646C181.282 74.088 180.624 75.1533 179.81 75.8251C179.289 76.2671 178.484 76.5942 178.445 77.35C178.352 78.8042 180.16 78.4859 181.017 78.8307C182.418 79.4009 182.003 81.2396 180.906 81.9247C179.81 82.6098 178.056 82.9236 177.963 84.5767C177.892 85.8497 178.617 86.1325 179.607 86.5613C180.394 86.9016 180.297 87.0033 180.297 87.9403C180.297 89.8453 180.933 90.3846 182.807 90.0752C183.324 89.9868 184.107 89.7702 184.619 89.9249C185.335 90.1415 185.092 90.3183 185.11 90.915C185.163 92.4531 186.953 92.02 187.709 91.357C188.593 90.6012 189.676 89.7216 190.86 89.589C191.334 89.5406 191.812 89.6264 192.239 89.8365C193.042 90.2926 193.797 90.8271 194.494 91.4321C195.196 92.038 196.068 92.4143 196.991 92.5106C197.915 92.5415 198.909 91.9669 199.077 91.0608C199.09 90.908 199.128 90.7584 199.192 90.6188C199.283 90.5037 199.409 90.4215 199.551 90.3847C199.693 90.348 199.843 90.3588 199.979 90.4155C200.247 90.535 200.502 90.6832 200.739 90.8575C201.672 91.4056 202.839 91.2995 203.913 91.1271C204.797 90.999 205.928 90.6012 205.924 89.7039C205.924 89.116 205.411 88.6829 205.004 88.2541C204.598 87.8254 204.271 87.1447 204.642 86.6895C204.777 86.5408 204.952 86.4336 205.146 86.3801Z" fill="black"/>
<path d="M187.139 71.8998L192.916 83.352V78.079L193.503 64.377L194.357 78.079V81.615L200.726 70.5296L194.379 84.152V112.944C194.372 113.007 194.349 113.068 194.312 113.12C194.275 113.172 194.225 113.213 194.166 113.24C194.009 113.321 193.835 113.363 193.658 113.363C193.481 113.363 193.307 113.321 193.15 113.24C193.092 113.213 193.042 113.172 193.004 113.12C192.967 113.068 192.944 113.007 192.938 112.944V86.2692L187.139 71.8998Z" fill="#263238"/>
<path d="M156.726 69.9238C157.199 69.8755 157.677 69.9612 158.105 70.1713C158.907 70.6274 159.662 71.1619 160.359 71.7669C161.063 72.3736 161.936 72.75 162.86 72.8454C163.78 72.8763 164.774 72.3017 164.942 71.3956C164.955 71.2429 164.994 71.0934 165.057 70.9536C165.148 70.8385 165.274 70.7563 165.416 70.7196C165.558 70.6828 165.709 70.6936 165.844 70.7503C166.113 70.8698 166.367 71.018 166.604 71.1923C167.537 71.7404 168.704 71.6343 169.778 71.4619C170.662 71.3338 171.793 70.936 171.789 70.0387C171.789 69.4508 171.276 69.0177 170.87 68.5889C170.463 68.1602 170.136 67.4795 170.507 67.0243C170.645 66.8703 170.825 66.7597 171.024 66.706C172.138 66.3436 173.499 66.8254 174.441 66.127C174.773 65.8446 175.001 65.46 175.091 65.0337C175.18 64.6073 175.126 64.1632 174.936 63.7711C174.733 63.3857 174.448 63.0491 174.101 62.785C173.755 62.5209 173.355 62.3355 172.929 62.2418C172.182 62.0518 171.232 61.9634 170.953 61.2429C170.706 60.6108 171.197 59.9169 171.754 59.5412C172.31 59.1655 172.973 58.8826 173.358 58.3257C173.549 58.0304 173.655 57.6881 173.665 57.3364C173.674 56.9848 173.586 56.6373 173.411 56.3323C173.232 56.0299 172.99 55.77 172.701 55.5707C172.411 55.3715 172.082 55.2377 171.736 55.1787C171.386 55.1535 171.042 55.0776 170.715 54.9532C170.554 54.8864 170.425 54.7598 170.355 54.6C170.285 54.4402 170.279 54.2596 170.339 54.0958C170.441 53.9145 170.653 53.8173 170.781 53.6538C170.874 53.4717 170.895 53.2611 170.84 53.0642C170.784 52.8674 170.656 52.699 170.481 52.593C170.126 52.3894 169.743 52.2404 169.345 52.151C168.536 51.8813 167.753 51.099 167.992 50.2813C168.231 49.4636 169.402 49.1542 169.76 48.3365C170.065 47.616 169.579 46.7718 168.934 46.3298C168.288 45.8878 167.497 45.7066 166.785 45.3707C166.074 45.0348 165.389 44.4425 165.331 43.6601C165.274 42.8778 165.875 42.1839 166.366 41.5474C166.856 40.9109 167.272 40.0181 166.843 39.3374C166.414 38.6567 165.517 38.6479 164.779 38.4136C164.323 38.2684 163.903 38.0277 163.547 37.7076C163.191 37.3876 162.907 36.9954 162.715 36.5572C162.52 36.1152 162.423 35.6113 162.189 35.1782C161.459 33.8256 159.621 33.2378 158.211 33.4102C157.923 33.4291 157.646 33.5243 157.408 33.6859C157.169 33.8474 156.978 34.0696 156.854 34.3295C156.613 34.5956 156.443 34.9178 156.359 35.2666C156.248 35.9163 156.593 36.7473 155.979 37.2423C155.046 37.9981 153.614 36.9815 153.662 38.6744C153.664 39.3876 153.771 40.0965 153.981 40.7783C154.233 41.4899 154.745 41.7949 154.321 42.5905C153.773 43.6248 153.411 43.6159 152.314 43.6159C151.514 43.6159 150.851 43.5717 150.268 44.1773C149.242 45.2381 149.852 46.1972 150.763 47.0149C151.797 47.9475 151.249 48.3409 151.117 49.5608C151.05 50.1399 151.183 50.3167 150.675 50.7056C149.693 51.4305 149.145 51.1874 149.424 52.6151C149.676 53.9145 149.287 53.4681 148.16 53.9411C147.156 54.3831 146.498 55.4483 145.684 56.1201C145.167 56.5621 144.358 56.8892 144.323 57.645C144.226 59.0992 146.034 58.781 146.891 59.1257C148.292 59.6959 147.877 61.5346 146.781 62.2197C145.684 62.9048 143.93 63.2186 143.837 64.8717C143.766 66.1447 144.491 66.4276 145.481 66.8563C146.272 67.1967 146.171 67.2983 146.171 68.2398C146.171 70.1404 146.807 70.6796 148.681 70.3702C149.198 70.2818 149.981 70.0652 150.493 70.2199C151.209 70.4365 150.966 70.6133 150.988 71.21C151.037 72.7482 152.827 72.315 153.583 71.652C154.445 70.9183 155.541 70.0387 156.726 69.9238Z" fill="#004AAD"/>
<path opacity="0.1" d="M156.726 69.9238C157.199 69.8755 157.677 69.9612 158.105 70.1713C158.907 70.6274 159.662 71.1619 160.359 71.7669C161.063 72.3736 161.936 72.75 162.86 72.8454C163.78 72.8763 164.774 72.3017 164.942 71.3956C164.955 71.2429 164.994 71.0934 165.057 70.9536C165.148 70.8385 165.274 70.7563 165.416 70.7196C165.558 70.6828 165.709 70.6936 165.844 70.7503C166.113 70.8698 166.367 71.018 166.604 71.1923C167.537 71.7404 168.704 71.6343 169.778 71.4619C170.662 71.3338 171.793 70.936 171.789 70.0387C171.789 69.4508 171.276 69.0177 170.87 68.5889C170.463 68.1602 170.136 67.4795 170.507 67.0243C170.645 66.8703 170.825 66.7597 171.024 66.706C172.138 66.3436 173.499 66.8254 174.441 66.127C174.773 65.8446 175.001 65.46 175.091 65.0337C175.18 64.6073 175.126 64.1632 174.936 63.7711C174.733 63.3857 174.448 63.0491 174.101 62.785C173.755 62.5209 173.355 62.3355 172.929 62.2418C172.182 62.0518 171.232 61.9634 170.953 61.2429C170.706 60.6108 171.197 59.9169 171.754 59.5412C172.31 59.1655 172.973 58.8826 173.358 58.3257C173.549 58.0304 173.655 57.6881 173.665 57.3364C173.674 56.9848 173.586 56.6373 173.411 56.3323C173.232 56.0299 172.99 55.77 172.701 55.5707C172.411 55.3715 172.082 55.2377 171.736 55.1787C171.386 55.1535 171.042 55.0776 170.715 54.9532C170.554 54.8864 170.425 54.7598 170.355 54.6C170.285 54.4402 170.279 54.2596 170.339 54.0958C170.441 53.9145 170.653 53.8173 170.781 53.6538C170.874 53.4717 170.895 53.2611 170.84 53.0642C170.784 52.8674 170.656 52.699 170.481 52.593C170.126 52.3894 169.743 52.2404 169.345 52.151C168.536 51.8813 167.753 51.099 167.992 50.2813C168.231 49.4636 169.402 49.1542 169.76 48.3365C170.065 47.616 169.579 46.7718 168.934 46.3298C168.288 45.8878 167.497 45.7066 166.785 45.3707C166.074 45.0348 165.389 44.4425 165.331 43.6601C165.274 42.8778 165.875 42.1839 166.366 41.5474C166.856 40.9109 167.272 40.0181 166.843 39.3374C166.414 38.6567 165.517 38.6479 164.779 38.4136C164.323 38.2684 163.903 38.0277 163.547 37.7076C163.191 37.3876 162.907 36.9954 162.715 36.5572C162.52 36.1152 162.423 35.6113 162.189 35.1782C161.459 33.8256 159.621 33.2378 158.211 33.4102C157.923 33.4291 157.646 33.5243 157.408 33.6859C157.169 33.8474 156.978 34.0696 156.854 34.3295C156.613 34.5956 156.443 34.9178 156.359 35.2666C156.248 35.9163 156.593 36.7473 155.979 37.2423C155.046 37.9981 153.614 36.9815 153.662 38.6744C153.664 39.3876 153.771 40.0965 153.981 40.7783C154.233 41.4899 154.745 41.7949 154.321 42.5905C153.773 43.6248 153.411 43.6159 152.314 43.6159C151.514 43.6159 150.851 43.5717 150.268 44.1773C149.242 45.2381 149.852 46.1972 150.763 47.0149C151.797 47.9475 151.249 48.3409 151.117 49.5608C151.05 50.1399 151.183 50.3167 150.675 50.7056C149.693 51.4305 149.145 51.1874 149.424 52.6151C149.676 53.9145 149.287 53.4681 148.16 53.9411C147.156 54.3831 146.498 55.4483 145.684 56.1201C145.167 56.5621 144.358 56.8892 144.323 57.645C144.226 59.0992 146.034 58.781 146.891 59.1257C148.292 59.6959 147.877 61.5346 146.781 62.2197C145.684 62.9048 143.93 63.2186 143.837 64.8717C143.766 66.1447 144.491 66.4276 145.481 66.8563C146.272 67.1967 146.171 67.2983 146.171 68.2398C146.171 70.1404 146.807 70.6796 148.681 70.3702C149.198 70.2818 149.981 70.0652 150.493 70.2199C151.209 70.4365 150.966 70.6133 150.988 71.21C151.037 72.7482 152.827 72.315 153.583 71.652C154.445 70.9183 155.541 70.0387 156.726 69.9238Z" fill="white"/>
<path opacity="0.15" d="M171.025 66.6832C171.878 66.4047 172.881 66.6213 173.725 66.4268C173.229 66.3071 172.723 66.2273 172.214 66.1882C171.471 66.1451 170.731 66.2975 170.065 66.6302C169.777 66.7392 169.516 66.9131 169.305 67.1385C169.221 67.2907 169.18 67.4631 169.187 67.6369C169.194 67.8107 169.249 67.9792 169.345 68.1241C169.486 68.46 169.707 68.9816 169.345 69.2601C168.983 69.5385 168.297 69.4678 167.873 69.3175C167.345 69.1107 166.832 68.8701 166.335 68.5971C165.853 68.3316 165.343 68.1211 164.815 67.9694C164.434 67.8766 163.767 67.828 163.528 68.239C163.374 68.4884 163.286 68.7728 163.272 69.0656C163.314 69.2831 163.314 69.5066 163.272 69.7242C163.222 69.9518 163.112 70.1616 162.952 70.3313C162.793 70.501 162.59 70.6242 162.366 70.6877C162.064 70.7199 161.76 70.6675 161.487 70.5363C161.214 70.4052 160.982 70.2005 160.819 69.9452C160.456 69.4634 160.231 68.8888 159.864 68.407C159.349 67.7867 158.623 67.3792 157.826 67.2633C157.028 67.1473 156.216 67.3312 155.546 67.7794C154.998 68.1772 154.308 68.7783 153.778 68.3805C153.247 67.9827 153.548 66.7981 152.894 66.4755C152.452 66.2589 151.855 66.6036 151.497 66.281C151.361 66.1362 151.274 65.9521 151.25 65.755C150.989 64.6677 150.768 63.4124 151.448 62.5328C152.058 61.7461 153.345 61.2643 153.216 60.2786C153.097 59.4388 152.027 59.1869 151.188 59.0852C150.348 58.9836 149.278 58.5902 149.318 57.7592C149.358 56.9283 150.485 56.526 150.644 55.7128C150.715 55.3636 150.595 54.9746 150.755 54.6564C150.998 54.179 151.683 54.1569 152.081 53.8033C152.801 53.1668 152.24 51.9734 152.447 51.032C152.589 50.3646 153.128 49.843 153.309 49.1844C153.663 47.8584 152.469 46.6208 151.219 46.0904C150.722 45.9217 150.245 45.7009 149.795 45.4318C149.779 45.4226 149.764 45.4106 149.751 45.3965C149.867 46.0568 150.235 46.6463 150.777 47.0407C151.811 47.9733 151.263 48.3667 151.13 49.5866C151.064 50.1657 151.197 50.3425 150.688 50.7314C149.707 51.4563 149.159 51.2132 149.437 52.6409C149.689 53.9403 149.3 53.4939 148.173 53.9669C147.17 54.4089 146.511 55.4741 145.698 56.1459C145.176 56.5879 144.372 56.915 144.337 57.6708C144.239 59.125 146.047 58.8068 146.905 59.1515C148.306 59.7217 147.89 61.5604 146.794 62.2455C145.698 62.9306 143.943 63.2444 143.85 64.8975C143.78 66.1705 144.505 66.4534 145.495 66.8821C146.286 67.2224 146.184 67.3241 146.184 68.2656C146.184 70.1662 146.821 70.7054 148.695 70.396C149.212 70.3076 149.994 70.091 150.507 70.2457C151.223 70.4623 150.98 70.6391 151.002 71.2358C151.051 72.774 152.841 72.3408 153.597 71.6778C154.481 70.922 155.563 70.0424 156.748 69.9098C157.222 69.8615 157.7 69.9472 158.127 70.1573C158.929 70.6134 159.684 71.1479 160.381 71.7529C161.085 72.3596 161.958 72.736 162.883 72.8314C163.802 72.8624 164.797 72.2878 164.965 71.3817C164.978 71.2289 165.017 71.0794 165.08 70.9397C165.171 70.8245 165.297 70.7423 165.439 70.7056C165.581 70.6689 165.731 70.6797 165.866 70.7363C166.135 70.8559 166.39 71.0041 166.627 71.1783C167.559 71.7264 168.726 71.6203 169.8 71.448C170.684 71.3198 171.816 70.922 171.811 70.0247C171.811 69.4369 171.299 69.0037 170.892 68.575C170.485 68.1462 170.158 67.4655 170.53 67.0103C170.66 66.8566 170.832 66.7431 171.025 66.6832Z" fill="black"/>
<path d="M153.026 52.2132L158.803 63.6654V58.4012L159.391 44.6992L160.244 58.4012V61.9372L166.591 50.843L160.244 64.4566V93.2485C160.238 93.3121 160.215 93.3728 160.178 93.4248C160.14 93.4767 160.09 93.518 160.032 93.5446C159.875 93.6253 159.701 93.6674 159.524 93.6674C159.347 93.6674 159.173 93.6253 159.015 93.5446C158.957 93.518 158.907 93.4767 158.87 93.4248C158.833 93.3728 158.81 93.3121 158.803 93.2485V66.5738L153.026 52.2132Z" fill="#263238"/>
<path d="M122.61 50.2259C123.084 50.1771 123.562 50.2629 123.989 50.4734C124.792 50.9295 125.547 51.464 126.244 52.069C126.948 52.6757 127.821 53.0521 128.745 53.1475C129.665 53.1785 130.659 52.6039 130.827 51.6978C130.84 51.5444 130.88 51.3946 130.946 51.2558C131.037 51.1406 131.164 51.0584 131.306 51.0217C131.448 50.985 131.598 50.9958 131.733 51.0524C132 51.173 132.253 51.3211 132.489 51.4944C133.422 52.0425 134.589 51.9364 135.663 51.7641C136.547 51.6359 137.678 51.2425 137.674 50.3408C137.674 49.753 137.161 49.3198 136.754 48.8911C136.348 48.4623 136.025 47.7816 136.392 47.3264C136.53 47.1724 136.709 47.0618 136.909 47.0081C138.023 46.6457 139.384 47.1275 140.33 46.4335C140.662 46.1503 140.891 45.7647 140.979 45.3374C141.068 44.9101 141.012 44.4654 140.821 44.0733C140.618 43.6878 140.333 43.3513 139.986 43.0871C139.64 42.823 139.24 42.6376 138.814 42.5439C138.067 42.3539 137.117 42.2655 136.838 41.545C136.591 40.913 137.081 40.219 137.638 39.8433C138.195 39.4676 138.858 39.1847 139.243 38.6278C139.434 38.3326 139.54 37.9906 139.55 37.6391C139.56 37.2877 139.474 36.9402 139.3 36.6344C139.12 36.3322 138.877 36.0726 138.587 35.8735C138.297 35.6744 137.967 35.5404 137.621 35.4808C137.272 35.455 136.928 35.3806 136.6 35.2598C136.439 35.1912 136.31 35.0637 136.241 34.9035C136.171 34.7432 136.165 34.5624 136.224 34.3979C136.326 34.2167 136.538 34.1194 136.666 33.9559C136.759 33.7738 136.78 33.5632 136.724 33.3663C136.669 33.1695 136.54 33.0011 136.365 32.8951C136.011 32.6915 135.628 32.5425 135.229 32.4531C134.421 32.1835 133.638 31.4011 133.877 30.5834C134.116 29.7657 135.287 29.4563 135.645 28.6386C135.95 27.9182 135.464 27.0739 134.818 26.6319C134.173 26.1899 133.382 26.0087 132.67 25.6728C131.959 25.3369 131.274 24.7446 131.216 23.9623C131.159 23.1799 131.76 22.486 132.25 21.8495C132.741 21.213 133.156 20.3202 132.728 19.6395C132.299 18.9588 131.402 18.95 130.668 18.7157C130.22 18.5694 129.807 18.3305 129.457 18.0145C129.106 17.6985 128.826 17.3125 128.635 16.8814C128.44 16.4394 128.343 15.9355 128.109 15.5024C127.38 14.1499 125.541 13.562 124.131 13.7344C123.839 13.7462 123.556 13.8367 123.312 13.9962C123.068 14.1557 122.871 14.3783 122.743 14.6405C122.501 14.9043 122.331 15.2253 122.248 15.5731C122.137 16.2228 122.482 17.0538 121.868 17.5488C120.935 18.3047 119.503 17.2881 119.556 18.9809C119.554 19.694 119.66 20.4034 119.87 21.0848C120.122 21.7965 120.635 22.1059 120.21 22.897C119.662 23.9225 119.304 23.9225 118.204 23.9225C117.408 23.9225 116.741 23.8783 116.157 24.4838C115.132 25.5446 115.742 26.5038 116.652 27.3215C117.691 28.2541 117.138 28.6475 117.006 29.8674C116.939 30.4464 117.072 30.6276 116.564 31.0122C115.583 31.737 115.034 31.4939 115.313 32.9216C115.565 34.2211 115.176 33.7747 114.049 34.2476C113.045 34.6896 112.387 35.7548 111.574 36.4267C111.056 36.8687 110.248 37.1957 110.212 37.9516C110.115 39.3925 111.91 39.0875 112.767 39.4323C114.173 40.0024 113.753 41.8412 112.656 42.5263C111.56 43.2114 109.806 43.5208 109.713 45.1783C109.642 46.4512 110.367 46.7341 111.357 47.1628C112.148 47.5032 112.047 47.6048 112.047 48.5463C112.047 50.4469 112.683 50.9861 114.557 50.6767C115.074 50.5883 115.857 50.3718 116.369 50.5265C117.085 50.743 116.842 50.9198 116.864 51.5165C116.913 53.0547 118.703 52.6215 119.459 51.9585C120.33 51.2204 121.426 50.3408 122.61 50.2259Z" fill="#004AAD"/>
<path opacity="0.1" d="M122.61 50.2259C123.084 50.1771 123.562 50.2629 123.989 50.4734C124.792 50.9295 125.547 51.464 126.244 52.069C126.948 52.6757 127.821 53.0521 128.745 53.1475C129.665 53.1785 130.659 52.6039 130.827 51.6978C130.84 51.5444 130.88 51.3946 130.946 51.2558C131.037 51.1406 131.164 51.0584 131.306 51.0217C131.448 50.985 131.598 50.9958 131.733 51.0524C132 51.173 132.253 51.3211 132.489 51.4944C133.422 52.0425 134.589 51.9364 135.663 51.7641C136.547 51.6359 137.678 51.2425 137.674 50.3408C137.674 49.753 137.161 49.3198 136.754 48.8911C136.348 48.4623 136.025 47.7816 136.392 47.3264C136.53 47.1724 136.709 47.0618 136.909 47.0081C138.023 46.6457 139.384 47.1275 140.33 46.4335C140.662 46.1503 140.891 45.7647 140.979 45.3374C141.068 44.9101 141.012 44.4654 140.821 44.0733C140.618 43.6878 140.333 43.3513 139.986 43.0871C139.64 42.823 139.24 42.6376 138.814 42.5439C138.067 42.3539 137.117 42.2655 136.838 41.545C136.591 40.913 137.081 40.219 137.638 39.8433C138.195 39.4676 138.858 39.1847 139.243 38.6278C139.434 38.3326 139.54 37.9906 139.55 37.6391C139.56 37.2877 139.474 36.9402 139.3 36.6344C139.12 36.3322 138.877 36.0726 138.587 35.8735C138.297 35.6744 137.967 35.5404 137.621 35.4808C137.272 35.455 136.928 35.3806 136.6 35.2598C136.439 35.1912 136.31 35.0637 136.241 34.9035C136.171 34.7432 136.165 34.5624 136.224 34.3979C136.326 34.2167 136.538 34.1194 136.666 33.9559C136.759 33.7738 136.78 33.5632 136.724 33.3663C136.669 33.1695 136.54 33.0011 136.365 32.8951C136.011 32.6915 135.628 32.5425 135.229 32.4531C134.421 32.1835 133.638 31.4011 133.877 30.5834C134.116 29.7657 135.287 29.4563 135.645 28.6386C135.95 27.9182 135.464 27.0739 134.818 26.6319C134.173 26.1899 133.382 26.0087 132.67 25.6728C131.959 25.3369 131.274 24.7446 131.216 23.9623C131.159 23.1799 131.76 22.486 132.25 21.8495C132.741 21.213 133.156 20.3202 132.728 19.6395C132.299 18.9588 131.402 18.95 130.668 18.7157C130.22 18.5694 129.807 18.3305 129.457 18.0145C129.106 17.6985 128.826 17.3125 128.635 16.8814C128.44 16.4394 128.343 15.9355 128.109 15.5024C127.38 14.1499 125.541 13.562 124.131 13.7344C123.839 13.7462 123.556 13.8367 123.312 13.9962C123.068 14.1557 122.871 14.3783 122.743 14.6405C122.501 14.9043 122.331 15.2253 122.248 15.5731C122.137 16.2228 122.482 17.0538 121.868 17.5488C120.935 18.3047 119.503 17.2881 119.556 18.9809C119.554 19.694 119.66 20.4034 119.87 21.0848C120.122 21.7965 120.635 22.1059 120.21 22.897C119.662 23.9225 119.304 23.9225 118.204 23.9225C117.408 23.9225 116.741 23.8783 116.157 24.4838C115.132 25.5446 115.742 26.5038 116.652 27.3215C117.691 28.2541 117.138 28.6475 117.006 29.8674C116.939 30.4464 117.072 30.6276 116.564 31.0122C115.583 31.737 115.034 31.4939 115.313 32.9216C115.565 34.2211 115.176 33.7747 114.049 34.2476C113.045 34.6896 112.387 35.7548 111.574 36.4267C111.056 36.8687 110.248 37.1957 110.212 37.9516C110.115 39.3925 111.91 39.0875 112.767 39.4323C114.173 40.0024 113.753 41.8412 112.656 42.5263C111.56 43.2114 109.806 43.5208 109.713 45.1783C109.642 46.4512 110.367 46.7341 111.357 47.1628C112.148 47.5032 112.047 47.6048 112.047 48.5463C112.047 50.4469 112.683 50.9861 114.557 50.6767C115.074 50.5883 115.857 50.3718 116.369 50.5265C117.085 50.743 116.842 50.9198 116.864 51.5165C116.913 53.0547 118.703 52.6215 119.459 51.9585C120.33 51.2204 121.426 50.3408 122.61 50.2259Z" fill="white"/>
<path opacity="0.15" d="M136.909 46.9872C137.762 46.7087 138.765 46.9297 139.61 46.7308C139.113 46.6111 138.607 46.5313 138.098 46.4921C137.356 46.4491 136.615 46.6015 135.95 46.9341C135.662 47.0422 135.403 47.2163 135.194 47.4424C135.113 47.5888 135.073 47.7541 135.078 47.9212C135.083 48.0883 135.132 48.2511 135.221 48.3927C135.362 48.7287 135.583 49.2502 135.243 49.5287C134.902 49.8071 134.195 49.7364 133.771 49.5861C133.243 49.3794 132.729 49.1387 132.233 48.8657C131.751 48.5995 131.241 48.3889 130.712 48.238C130.332 48.1452 129.665 48.0966 129.426 48.5077C129.272 48.757 129.184 49.0414 129.17 49.3342C129.214 49.5515 129.214 49.7755 129.17 49.9928C129.12 50.2204 129.009 50.4302 128.85 50.5999C128.69 50.7697 128.488 50.8928 128.264 50.9563C127.963 50.9887 127.659 50.9363 127.386 50.8051C127.114 50.6739 126.883 50.4691 126.721 50.2138C126.354 49.732 126.129 49.1574 125.762 48.68C125.248 48.0582 124.522 47.6492 123.724 47.5324C122.926 47.4156 122.114 47.5993 121.443 48.048C120.895 48.4458 120.206 49.0469 119.675 48.6491C119.145 48.2513 119.446 47.0667 118.791 46.7441C118.349 46.5275 117.753 46.8722 117.395 46.554C117.26 46.4068 117.173 46.2216 117.147 46.0236C116.891 44.9363 116.665 43.681 117.346 42.8014C117.956 42.0147 119.242 41.5329 119.114 40.5472C118.995 39.7074 117.925 39.4555 117.085 39.3538C116.246 39.2522 115.176 38.8588 115.216 38.0278C115.255 37.1969 116.387 36.7991 116.542 35.9814C116.612 35.6322 116.493 35.2432 116.652 34.925C116.895 34.4476 117.58 34.4255 117.978 34.0719C118.699 33.4355 118.137 32.2421 118.345 31.3006C118.486 30.6332 119.026 30.1116 119.207 29.453C119.561 28.127 118.367 26.8894 117.116 26.359C116.612 26.1889 116.127 25.9651 115.671 25.6916C115.654 25.6823 115.639 25.6704 115.627 25.6562C115.744 26.3159 116.112 26.9048 116.652 27.3005C117.691 28.2331 117.138 28.6265 117.006 29.8464C116.939 30.4254 117.072 30.6066 116.564 30.9912C115.583 31.7161 115.034 31.473 115.313 32.9006C115.565 34.2001 115.176 33.7537 114.049 34.2266C113.045 34.6686 112.387 35.7338 111.574 36.4057C111.056 36.8477 110.248 37.1748 110.212 37.9306C110.115 39.3936 111.91 39.0886 112.767 39.4334C114.173 40.0036 113.753 41.8423 112.656 42.5274C111.56 43.2125 109.806 43.5219 109.713 45.1794C109.642 46.4523 110.367 46.7352 111.357 47.164C112.148 47.5043 112.047 47.606 112.047 48.5474C112.047 50.448 112.683 50.9873 114.557 50.6779C115.074 50.5895 115.857 50.3729 116.369 50.5276C117.085 50.7442 116.842 50.921 116.864 51.5177C116.913 53.0558 118.703 52.6227 119.459 51.9597C120.343 51.2039 121.426 50.3243 122.61 50.1917C123.084 50.1429 123.562 50.2286 123.989 50.4392C124.792 50.8953 125.547 51.4298 126.244 52.0348C126.948 52.6415 127.821 53.0179 128.745 53.1133C129.665 53.1442 130.659 52.5696 130.827 51.6635C130.84 51.5102 130.88 51.3604 130.946 51.2215C131.037 51.1064 131.164 51.0242 131.306 50.9874C131.448 50.9507 131.598 50.9615 131.733 51.0182C132 51.1388 132.253 51.2869 132.489 51.4602C133.422 52.0083 134.589 51.9022 135.663 51.7298C136.547 51.6017 137.678 51.2083 137.674 50.3066C137.674 49.7187 137.161 49.2856 136.754 48.8568C136.348 48.4281 136.025 47.7474 136.392 47.2922C136.531 47.143 136.711 47.0371 136.909 46.9872Z" fill="black"/>
<path d="M118.91 32.5047L124.7 43.957V38.6883L125.288 24.9863L126.141 38.6883V42.2243L132.488 31.1301L126.141 44.7526V73.5444C126.136 73.6083 126.113 73.6694 126.076 73.7215C126.038 73.7736 125.988 73.8147 125.929 73.8406C125.772 73.9213 125.598 73.9633 125.421 73.9633C125.244 73.9633 125.07 73.9213 124.913 73.8406C124.854 73.8147 124.803 73.7736 124.766 73.7215C124.729 73.6694 124.706 73.6083 124.7 73.5444V46.8786L118.91 32.5047Z" fill="#263238"/>
<path d="M75.3262 86.832L179.461 146.957V150.537L75.3262 90.4166V86.832Z" fill="#EBEBEB"/>
<path d="M179.461 146.957L204.284 132.627L100.149 72.502L75.3262 86.8316L179.461 146.957Z" fill="#FAFAFA"/>
<path d="M179.461 150.537L204.284 136.207V132.627L179.461 146.957V150.537Z" fill="#E0E0E0"/>
<path d="M154.444 132.512L179.267 118.182L177.715 117.285L152.893 131.619L154.444 132.512Z" fill="#EBEBEB"/>
<path d="M128.075 117.285L152.893 102.956L151.342 102.059L126.523 116.393L128.075 117.285Z" fill="#EBEBEB"/>
<path d="M101.701 102.059L126.524 87.7293L124.972 86.832L100.149 101.166L101.701 102.059Z" fill="#EBEBEB"/>
<path d="M179.462 150.537L109.44 190.967L5.30469 130.841L75.3263 90.416L179.462 150.537Z" fill="#455A64" fill-opacity="0.47"/>
<path d="M95.3447 110.859L96.5646 107.332L99.0045 105.922L100.229 108.039L95.3447 110.859Z" fill="#004AAD"/>
<path d="M74.5879 94.6463L96.5641 107.332L99.004 105.922L77.0322 93.2363L74.5879 94.6463Z" fill="#004AAD"/>
<path opacity="0.5" d="M74.5879 94.6463L96.5641 107.332L99.004 105.922L77.0322 93.2363L74.5879 94.6463Z" fill="white"/>
<path d="M74.5881 94.6465L73.3682 98.1692L95.3444 110.859L96.5643 107.332L74.5881 94.6465Z" fill="#004AAD"/>
<path opacity="0.3" d="M74.5881 94.6465L73.3682 98.1692L95.3444 110.859L96.5643 107.332L74.5881 94.6465Z" fill="white"/>
<path d="M76.4755 97.1484L76.0645 98.333L83.468 102.607L83.8834 101.423L76.4755 97.1484Z" fill="#FAFAFA"/>
<path d="M86.164 102.74L85.7529 103.929L93.1564 108.203L93.5675 107.014L86.164 102.74Z" fill="#FAFAFA"/>
<path d="M105.612 111.146L42.7725 147.43L44.567 148.465L107.411 112.185L105.612 111.146Z" fill="#FAFAFA"/>
<path d="M129.458 130.554L130.678 127.027L133.118 125.617L134.342 127.734L129.458 130.554Z" fill="#004AAD"/>
<path d="M108.701 114.342L130.677 127.027L133.117 125.617L111.141 112.932L108.701 114.342Z" fill="#004AAD"/>
<path opacity="0.5" d="M108.701 114.342L130.677 127.027L133.117 125.617L111.141 112.932L108.701 114.342Z" fill="white"/>
<path d="M108.701 114.342L107.481 117.865L129.458 130.554L130.678 127.027L108.701 114.342Z" fill="#004AAD"/>
<path opacity="0.3" d="M108.701 114.342L107.481 117.865L129.458 130.554L130.678 127.027L108.701 114.342Z" fill="white"/>
<path d="M110.589 116.838L110.178 118.027L117.581 122.301L117.992 121.116L110.589 116.838Z" fill="#FAFAFA"/>
<path d="M120.278 122.434L119.867 123.623L127.271 127.897L127.682 126.708L120.278 122.434Z" fill="#FAFAFA"/>
<path d="M139.726 130.842L76.8867 167.126L78.6812 168.16L141.52 131.88L139.726 130.842Z" fill="#FAFAFA"/>
<path d="M165.366 151.284L166.586 147.762L169.026 146.352L170.25 148.464L165.366 151.284Z" fill="#004AAD"/>
<path d="M144.609 135.07L166.586 147.76L169.025 146.35L147.049 133.66L144.609 135.07Z" fill="#004AAD"/>
<path opacity="0.5" d="M144.609 135.07L166.586 147.76L169.025 146.35L147.049 133.66L144.609 135.07Z" fill="white"/>
<path d="M144.61 135.07L143.39 138.597L165.366 151.283L166.586 147.76L144.61 135.07Z" fill="#004AAD"/>
<path opacity="0.3" d="M144.61 135.07L143.39 138.597L165.366 151.283L166.586 147.76L144.61 135.07Z" fill="white"/>
<path d="M146.497 137.572L146.086 138.761L153.489 143.035L153.9 141.846L146.497 137.572Z" fill="#FAFAFA"/>
<path d="M156.185 143.164L155.774 144.353L163.178 148.627L163.589 147.438L156.185 143.164Z" fill="#FAFAFA"/>
<path d="M119.98 66.5069V120.851L120.564 120.515V66.1621L119.98 66.5069Z" fill="#263238"/>
<path d="M119.048 65.9629V120.316L119.98 120.85V66.5065L119.048 65.9629Z" fill="#37474F"/>
<path d="M119.048 65.9629L119.98 66.5065L120.564 66.1618L119.631 65.627L119.048 65.9629Z" fill="#455A64"/>
<path d="M124.326 70.7016L115.11 65.3976C115.046 65.3526 114.972 65.3252 114.894 65.3182C114.817 65.3112 114.739 65.3249 114.668 65.3578L114.173 65.6451C114.112 65.6905 114.063 65.751 114.032 65.8207C114.001 65.8904 113.989 65.967 113.996 66.0429V79.3648C114.008 79.5792 114.07 79.7879 114.177 79.9738C114.285 80.1597 114.435 80.3176 114.615 80.4344L123.826 85.7384C123.89 85.7834 123.964 85.8108 124.042 85.8178C124.12 85.8248 124.198 85.8111 124.268 85.7782L124.772 85.4909C124.833 85.445 124.88 85.3842 124.91 85.3146C124.941 85.2449 124.952 85.1686 124.945 85.0931V71.7756C124.933 71.5606 124.871 71.3514 124.763 71.1649C124.656 70.9783 124.506 70.8196 124.326 70.7016Z" fill="#004AAD"/>
<path opacity="0.7" d="M124.326 70.7016L115.11 65.3976C115.046 65.3526 114.972 65.3252 114.894 65.3182C114.817 65.3112 114.739 65.3249 114.668 65.3578L114.173 65.6451C114.112 65.6905 114.063 65.751 114.032 65.8207C114.001 65.8904 113.989 65.967 113.996 66.0429V79.3648C114.008 79.5792 114.07 79.7879 114.177 79.9738C114.285 80.1597 114.435 80.3176 114.615 80.4344L123.826 85.7384C123.89 85.7834 123.964 85.8108 124.042 85.8178C124.12 85.8248 124.198 85.8111 124.268 85.7782L124.772 85.4909C124.833 85.445 124.88 85.3842 124.91 85.3146C124.941 85.2449 124.952 85.1686 124.945 85.0931V71.7756C124.933 71.5606 124.871 71.3514 124.763 71.1649C124.656 70.9783 124.506 70.8196 124.326 70.7016Z" fill="white"/>
<path d="M124.259 85.7789C124.343 85.7302 124.675 85.5446 124.763 85.4871C124.823 85.4416 124.87 85.3816 124.9 85.3128C124.931 85.244 124.943 85.1686 124.936 85.0938V71.7763C124.931 71.6043 124.888 71.4354 124.812 71.2812L123.817 71.8514V85.7391C123.881 85.7841 123.955 85.8115 124.033 85.8185C124.111 85.8254 124.189 85.8118 124.259 85.7789Z" fill="#004AAD"/>
<path opacity="0.25" d="M124.259 85.7789C124.343 85.7302 124.675 85.5446 124.763 85.4871C124.823 85.4416 124.87 85.3816 124.9 85.3128C124.931 85.244 124.943 85.1686 124.936 85.0938V71.7763C124.931 71.6043 124.888 71.4354 124.812 71.2812L123.817 71.8514V85.7391C123.881 85.7841 123.955 85.8115 124.033 85.8185C124.111 85.8254 124.189 85.8118 124.259 85.7789Z" fill="black"/>
<path d="M123.817 70.9884L114.606 65.6844C114.261 65.4855 113.987 65.6491 113.987 66.0425V79.3643C113.999 79.5788 114.061 79.7875 114.168 79.9734C114.276 80.1593 114.426 80.3171 114.606 80.434L123.817 85.738C124.158 85.9325 124.436 85.7733 124.436 85.38V72.0581C124.424 71.8437 124.362 71.6351 124.255 71.4493C124.147 71.2634 123.997 71.1055 123.817 70.9884Z" fill="#004AAD"/>
<path d="M114.885 66.8435L123.375 71.7541C123.466 71.8338 123.528 71.9409 123.552 72.0591V84.5633L115.048 79.6527C114.956 79.5744 114.893 79.4667 114.871 79.3477V66.8435M114.65 66.459V79.3477C114.662 79.4453 114.694 79.5395 114.743 79.6246C114.793 79.7097 114.859 79.7839 114.938 79.8427L123.778 84.9434V72.0591C123.766 71.9607 123.735 71.8657 123.685 71.7798C123.636 71.6939 123.57 71.619 123.49 71.5597L114.65 66.459Z" fill="white"/>
<path d="M118.743 79.7311C117.819 79.1963 117.068 77.6051 117.068 76.1951C117.038 75.8983 117.074 75.5985 117.175 75.3177C117.276 75.037 117.439 74.7825 117.651 74.573L117.581 73.4636C116.909 73.689 116.458 74.5553 116.458 75.8459C116.458 77.7863 117.483 79.961 118.743 80.6858C118.895 80.7978 119.07 80.8747 119.256 80.9109C119.441 80.9471 119.632 80.9418 119.815 80.8953C119.998 80.8488 120.169 80.7623 120.314 80.642C120.46 80.5217 120.577 80.3706 120.657 80.1996L120.352 78.8427C120.14 79.7621 119.499 80.1687 118.743 79.7311ZM122.544 80.4958C122.474 80.2217 122.292 80.0184 122.142 80.0538L121.554 80.1422L120.825 76.8891C120.791 76.7099 120.687 76.5512 120.538 76.4471L118.646 75.3509L118.588 74.4404L120.051 75.289C120.219 75.3863 120.356 75.2581 120.356 75.0017C120.359 74.8786 120.332 74.7566 120.279 74.6454C120.226 74.5342 120.148 74.4368 120.051 74.3608L118.527 73.4768L118.434 72.0094C118.734 72.0934 118.964 71.8149 118.964 71.3199C118.967 71.0531 118.908 70.7893 118.794 70.5482C118.68 70.3071 118.513 70.0949 118.306 69.9276C117.943 69.7198 117.647 70.0027 117.647 70.5596C117.65 70.8129 117.701 71.0633 117.797 71.2978L117.943 73.5696V73.6006C117.939 73.6447 117.939 73.6891 117.943 73.7332L118.054 75.5012C118.057 75.6139 118.087 75.7243 118.139 75.8239C118.192 75.9235 118.267 76.0097 118.359 76.0758L120.321 77.2073L121.095 80.6814C121.125 80.8188 121.183 80.9483 121.267 81.0615C121.298 81.0999 121.335 81.1328 121.377 81.1588C121.417 81.1825 121.464 81.1933 121.51 81.1897L122.394 81.0571C122.553 81.0129 122.619 80.7742 122.544 80.5002V80.4958Z" fill="white"/>
<path d="M155.895 87.2393V141.583L156.478 141.247V86.8945L155.895 87.2393Z" fill="#263238"/>
<path d="M154.966 86.6914V141.044L155.894 141.583V87.2395L154.966 86.6914Z" fill="#37474F"/>
<path d="M154.966 86.6909L155.894 87.239L156.477 86.8942L155.545 86.3594L154.966 86.6909Z" fill="#455A64"/>
<path d="M160.239 91.434L151.028 86.13C150.964 86.085 150.89 86.0576 150.812 86.0506C150.735 86.0436 150.657 86.0573 150.586 86.0902C150.502 86.1433 150.179 86.3245 150.096 86.3731C150.033 86.4184 149.983 86.4794 149.951 86.55C149.919 86.6206 149.907 86.6983 149.914 86.7753V100.093C149.925 100.308 149.987 100.518 150.094 100.704C150.202 100.891 150.352 101.05 150.533 101.167L159.744 106.471C159.808 106.517 159.882 106.545 159.959 106.552C160.037 106.56 160.115 106.547 160.186 106.515C160.275 106.466 160.602 106.281 160.69 106.223C160.75 106.178 160.797 106.118 160.827 106.049C160.858 105.98 160.87 105.905 160.863 105.83V92.5036C160.85 92.2889 160.787 92.08 160.679 91.8941C160.571 91.7083 160.42 91.5506 160.239 91.434Z" fill="#004AAD"/>
<path opacity="0.7" d="M160.239 91.434L151.028 86.13C150.964 86.085 150.89 86.0576 150.812 86.0506C150.735 86.0436 150.657 86.0573 150.586 86.0902C150.502 86.1433 150.179 86.3245 150.096 86.3731C150.033 86.4184 149.983 86.4794 149.951 86.55C149.919 86.6206 149.907 86.6983 149.914 86.7753V100.093C149.925 100.308 149.987 100.518 150.094 100.704C150.202 100.891 150.352 101.05 150.533 101.167L159.744 106.471C159.808 106.517 159.882 106.545 159.959 106.552C160.037 106.56 160.115 106.547 160.186 106.515C160.275 106.466 160.602 106.281 160.69 106.223C160.75 106.178 160.797 106.118 160.827 106.049C160.858 105.98 160.87 105.905 160.863 105.83V92.5036C160.85 92.2889 160.787 92.08 160.679 91.8941C160.571 91.7083 160.42 91.5506 160.239 91.434Z" fill="white"/>
<path d="M160.182 106.512C160.27 106.463 160.597 106.278 160.686 106.22C160.745 106.175 160.793 106.115 160.823 106.046C160.853 105.977 160.865 105.901 160.858 105.827V92.5048C160.854 92.3326 160.812 92.1635 160.734 92.0098L159.744 92.5844V106.468C159.807 106.513 159.88 106.54 159.957 106.548C160.034 106.556 160.111 106.543 160.182 106.512Z" fill="#004AAD"/>
<path opacity="0.25" d="M160.182 106.512C160.27 106.463 160.597 106.278 160.686 106.22C160.745 106.175 160.793 106.115 160.823 106.046C160.853 105.977 160.865 105.901 160.858 105.827V92.5048C160.854 92.3326 160.812 92.1635 160.734 92.0098L159.744 92.5844V106.468C159.807 106.513 159.88 106.54 159.957 106.548C160.034 106.556 160.111 106.543 160.182 106.512Z" fill="black"/>
<path d="M159.744 91.7178L150.533 86.4138C150.188 86.2149 149.914 86.374 149.914 86.7718V100.089C149.925 100.304 149.987 100.514 150.094 100.701C150.202 100.888 150.352 101.046 150.533 101.163L159.744 106.467C160.089 106.666 160.363 106.507 160.363 106.114V92.7918C160.351 92.5768 160.289 92.3674 160.182 92.1808C160.074 91.9942 159.924 91.8356 159.744 91.7178Z" fill="#004AAD"/>
<path d="M150.78 87.5759L159.285 92.491C159.378 92.5686 159.44 92.6766 159.461 92.796V105.3L150.975 100.394C150.882 100.315 150.819 100.205 150.798 100.085V87.5759M150.577 87.1958V100.08C150.589 100.179 150.62 100.274 150.669 100.359C150.719 100.445 150.785 100.52 150.864 100.58L159.704 105.68V92.7915C159.693 92.6931 159.662 92.5981 159.612 92.5122C159.563 92.4264 159.496 92.3515 159.417 92.2921L150.577 87.1914V87.1958Z" fill="white"/>
<path d="M154.657 100.463C153.733 99.9286 152.982 98.3329 152.982 96.9274C152.982 96.145 153.207 95.5749 153.57 95.3052L153.499 94.1958C152.823 94.4168 152.372 95.2876 152.372 96.5782C152.372 98.5186 153.398 100.689 154.657 101.418C154.81 101.529 154.985 101.605 155.17 101.641C155.355 101.677 155.546 101.672 155.728 101.625C155.911 101.579 156.082 101.492 156.227 101.373C156.373 101.253 156.49 101.102 156.571 100.932L156.266 99.575C156.054 100.494 155.413 100.901 154.657 100.463ZM158.463 101.228C158.388 100.954 158.206 100.746 158.056 100.786L157.473 100.874L156.739 97.6213C156.704 97.4433 156.603 97.2852 156.456 97.1793L154.56 96.0832L154.503 95.1726L155.966 96.0169C156.133 96.1141 156.271 95.9903 156.271 95.7296C156.272 95.6071 156.246 95.4859 156.193 95.3754C156.14 95.265 156.062 95.1683 155.966 95.0931L154.441 94.2091L154.348 92.7416C154.653 92.8212 154.878 92.5427 154.878 92.0521C154.883 91.785 154.826 91.5203 154.712 91.2788C154.598 91.0372 154.429 90.8254 154.22 90.6598C153.857 90.4477 153.561 90.735 153.561 91.2919C153.564 91.5456 153.617 91.7964 153.716 92.03L153.862 94.3019C153.859 94.3121 153.859 94.3226 153.862 94.3328C153.857 94.3769 153.857 94.4213 153.862 94.4654L153.972 96.2334C153.977 96.3466 154.006 96.4573 154.059 96.5574C154.112 96.6576 154.186 96.7447 154.277 96.8125L156.24 97.944L157.017 101.414C157.045 101.552 157.103 101.684 157.185 101.798C157.218 101.837 157.257 101.87 157.3 101.895C157.338 101.92 157.384 101.931 157.429 101.926L158.313 101.794C158.467 101.745 158.534 101.502 158.463 101.228Z" fill="white"/>
<path d="M85.8506 46.7993V101.148L86.434 100.812V46.459L85.8506 46.7993Z" fill="#263238"/>
<path d="M84.918 46.2559V100.609L85.8506 101.148V46.7995L84.918 46.2559Z" fill="#37474F"/>
<path d="M84.918 46.2558L85.8506 46.7995L86.434 46.4592L85.5014 45.9199L84.918 46.2558Z" fill="#455A64"/>
<path d="M90.1955 50.9984L80.9798 45.6944C80.9162 45.6494 80.8418 45.622 80.7642 45.6151C80.6865 45.6081 80.6084 45.6217 80.5378 45.6547L80.0428 45.9375C79.98 45.9828 79.9302 46.0438 79.8984 46.1144C79.8666 46.185 79.8539 46.2627 79.8615 46.3398V59.6395C79.8734 59.8545 79.9355 60.0637 80.043 60.2503C80.1505 60.4368 80.3003 60.5955 80.4803 60.7136L89.696 66.0176C89.7593 66.0633 89.8335 66.0915 89.9111 66.0993C89.9887 66.107 90.067 66.0941 90.138 66.0618L90.6419 65.7701C90.7017 65.7246 90.7489 65.6646 90.7791 65.5957C90.8093 65.5269 90.8214 65.4515 90.8143 65.3767V52.0681C90.8025 51.8537 90.7403 51.6451 90.6328 51.4593C90.5253 51.2734 90.3755 51.1155 90.1955 50.9984Z" fill="#004AAD"/>
<path opacity="0.7" d="M90.1955 50.9984L80.9798 45.6944C80.9162 45.6494 80.8418 45.622 80.7642 45.6151C80.6865 45.6081 80.6084 45.6217 80.5378 45.6547L80.0428 45.9375C79.98 45.9828 79.9302 46.0438 79.8984 46.1144C79.8666 46.185 79.8539 46.2627 79.8615 46.3398V59.6395C79.8734 59.8545 79.9355 60.0637 80.043 60.2503C80.1505 60.4368 80.3003 60.5955 80.4803 60.7136L89.696 66.0176C89.7593 66.0633 89.8335 66.0915 89.9111 66.0993C89.9887 66.107 90.067 66.0941 90.138 66.0618L90.6419 65.7701C90.7017 65.7246 90.7489 65.6646 90.7791 65.5957C90.8093 65.5269 90.8214 65.4515 90.8143 65.3767V52.0681C90.8025 51.8537 90.7403 51.6451 90.6328 51.4593C90.5253 51.2734 90.3755 51.1155 90.1955 50.9984Z" fill="white"/>
<path d="M90.1378 66.0762L90.6417 65.7845C90.7015 65.739 90.7487 65.679 90.7788 65.6102C90.809 65.5413 90.8211 65.466 90.814 65.3911V52.0693C90.8081 51.8974 90.766 51.7287 90.6903 51.5742L89.7002 52.1488V66.032C89.7629 66.077 89.8363 66.1047 89.9131 66.1124C89.9899 66.1202 90.0673 66.1077 90.1378 66.0762Z" fill="#004AAD"/>
<path opacity="0.25" d="M90.1378 66.0762L90.6417 65.7845C90.7015 65.739 90.7487 65.679 90.7788 65.6102C90.809 65.5413 90.8211 65.466 90.814 65.3911V52.0693C90.8081 51.8974 90.766 51.7287 90.6903 51.5742L89.7002 52.1488V66.032C89.7629 66.077 89.8363 66.1047 89.9131 66.1124C89.9899 66.1202 90.0673 66.1077 90.1378 66.0762Z" fill="black"/>
<path d="M89.7007 51.2822L80.485 45.9782C80.1447 45.7793 79.8662 45.9384 79.8662 46.3362V59.6404C79.878 59.8554 79.9402 60.0646 80.0477 60.2512C80.1552 60.4377 80.305 60.5964 80.485 60.7145L89.7007 66.0185C90.0411 66.2174 90.3195 66.0583 90.3195 65.6605V52.3563C90.3077 52.1413 90.2455 51.9321 90.1381 51.7455C90.0306 51.559 89.8808 51.4003 89.7007 51.2822Z" fill="#004AAD"/>
<path d="M80.7502 47.136L89.2587 52.0466C89.3497 52.1278 89.4117 52.2364 89.4355 52.356V64.8558L80.9447 59.9496C80.8537 59.8684 80.7916 59.7598 80.7679 59.6402V47.136M80.5469 46.7559V59.6402C80.5583 59.7386 80.5897 59.8336 80.6391 59.9195C80.6885 60.0053 80.7549 60.0802 80.8342 60.1396L89.6742 65.2403V52.356C89.6627 52.2576 89.6313 52.1626 89.5819 52.0767C89.5325 51.9908 89.4662 51.9159 89.3869 51.8565L80.5469 46.7559Z" fill="white"/>
<path d="M86.7308 53.5089C87.1205 54.2845 87.3176 55.1427 87.3054 56.0106C87.3148 56.4723 87.2476 56.9323 87.1065 57.372C87.0609 57.5376 86.9795 57.6911 86.8679 57.8217C86.7564 57.9523 86.6175 58.0568 86.4611 58.1278C86.2645 58.1814 86.0581 58.189 85.858 58.1499C85.6579 58.1108 85.4695 58.0261 85.3075 57.9024L84.5031 57.4383V60.2229L83.376 59.5731V50.7773L85.1086 51.7763C85.8083 52.1813 86.3726 52.7841 86.7308 53.5089ZM85.807 56.2891C85.9403 56.2077 86.0394 56.0804 86.0854 55.9311C86.1423 55.7631 86.1707 55.5868 86.1694 55.4095C86.1651 55.0663 86.1054 54.7259 85.9926 54.4017C85.8755 54.0454 85.6274 53.7469 85.2987 53.5664L84.5031 53.0978V55.7498L85.3031 56.1918C85.3709 56.2513 85.4533 56.2916 85.5419 56.3087C85.6304 56.3258 85.7219 56.319 85.807 56.2891Z" fill="white"/>
<path d="M190.529 180.487L201.743 174.012L211.356 179.563L200.143 186.039L190.529 180.487Z" fill="#E0E0E0"/>
<path d="M82.7827 204.293L89.8105 200.235C89.8672 200.216 89.9164 200.179 89.9512 200.131C89.9861 200.082 90.0048 200.024 90.0048 199.964C90.0048 199.904 89.9861 199.845 89.9512 199.797C89.9164 199.748 89.8672 199.711 89.8105 199.692L82.7827 195.634C82.6369 195.56 82.4756 195.521 82.312 195.521C82.1484 195.521 81.9871 195.56 81.8412 195.634L74.8134 199.692C74.7568 199.711 74.7075 199.748 74.6727 199.797C74.6379 199.845 74.6191 199.904 74.6191 199.964C74.6191 200.024 74.6379 200.082 74.6727 200.131C74.7075 200.179 74.7568 200.216 74.8134 200.235L81.8412 204.293C81.9871 204.367 82.1484 204.406 82.312 204.406C82.4756 204.406 82.6369 204.367 82.7827 204.293Z" fill="#E0E0E0"/>
<path d="M164.363 203.656L171.391 199.599C171.447 199.579 171.496 199.543 171.531 199.494C171.566 199.445 171.585 199.387 171.585 199.327C171.585 199.267 171.566 199.209 171.531 199.16C171.496 199.111 171.447 199.075 171.391 199.055L164.363 194.98C164.217 194.906 164.056 194.867 163.892 194.867C163.728 194.867 163.567 194.906 163.421 194.98L156.394 199.038C156.337 199.057 156.288 199.094 156.253 199.142C156.218 199.191 156.199 199.249 156.199 199.309C156.199 199.369 156.218 199.428 156.253 199.476C156.288 199.525 156.337 199.562 156.394 199.581L163.421 203.639C163.566 203.716 163.726 203.757 163.89 203.76C164.054 203.763 164.216 203.728 164.363 203.656Z" fill="#E0E0E0"/>
<path d="M182.418 201.027L189.442 196.97C189.702 196.82 189.702 196.577 189.442 196.422L182.418 192.369C182.272 192.295 182.11 192.256 181.945 192.256C181.781 192.256 181.619 192.295 181.472 192.369L174.445 196.422C174.184 196.577 174.184 196.82 174.445 196.97L181.472 201.027C181.619 201.102 181.781 201.14 181.945 201.14C182.11 201.14 182.272 201.102 182.418 201.027Z" fill="#E0E0E0"/>
<g clip-path="url(#clip0_1009_95398)">
<path d="M29.9194 101.031C29.9442 99.8601 30.2445 98.7118 30.7958 97.679C31.3472 96.6461 32.1342 95.7577 33.093 95.0857C33.977 94.5244 34.8256 94.4404 35.4444 94.7587C39.1793 96.6327 65.4253 113.46 67.1005 114.291H67.1226C67.2992 114.408 67.4414 114.57 67.5346 114.76C67.6278 114.95 67.6687 115.162 67.653 115.374C67.6427 115.964 67.4927 116.543 67.2154 117.064C66.938 117.585 66.5412 118.032 66.0574 118.37C65.8899 118.501 65.6906 118.585 65.4801 118.613C65.2695 118.641 65.0553 118.612 64.8595 118.529H64.833C62.181 117.066 36.2754 106.025 30.9802 103.188C30.357 102.843 29.9548 102.1 29.9194 101.031Z" fill="#004AAD"/>
<path opacity="0.1" d="M30.9496 97.4029C31.4691 96.4708 32.2041 95.6766 33.0933 95.0868C33.9773 94.5254 34.8171 94.4415 35.4359 94.7553L35.5155 94.7995C38.9233 96.541 58.4553 109.001 65.0278 113.054L65.072 113.081L65.3372 113.244L65.4168 113.293L65.5671 113.386L65.7439 113.492C66.4378 113.934 66.9063 114.19 67.0699 114.283H67.092C67.1482 114.316 67.2002 114.356 67.2467 114.402C67.3707 114.529 67.4678 114.68 67.5324 114.846C67.5969 115.011 67.6275 115.188 67.6224 115.366C67.6311 115.491 67.6311 115.616 67.6224 115.741C67.6224 115.79 67.6224 115.839 67.6003 115.887C67.5782 115.936 67.5738 116.038 67.5561 116.117C67.5384 116.197 67.5251 116.241 67.5075 116.298C67.4898 116.356 67.4633 116.444 67.4367 116.515C67.4102 116.586 67.397 116.621 67.3793 116.674V116.701L30.9496 97.4029Z" fill="black"/>
<path d="M66.0616 118.376C66.5431 118.039 66.9385 117.593 67.2157 117.075C67.4929 116.556 67.6442 115.98 67.6572 115.392C67.6174 114.314 66.8484 113.899 65.9334 114.469C65.4513 114.806 65.0556 115.253 64.7784 115.772C64.5011 116.291 64.3502 116.868 64.3378 117.457C64.3732 118.535 65.1467 118.955 66.0616 118.376Z" fill="#004AAD"/>
<path d="M73.9076 119.1C73.8972 119.551 73.781 119.994 73.5684 120.392C73.3557 120.791 73.0526 121.134 72.6833 121.394C72.555 121.493 72.4027 121.556 72.2419 121.577C72.0812 121.598 71.9177 121.576 71.7683 121.513L65.4212 118.132C65.2864 118.042 65.1777 117.918 65.1063 117.773C65.0348 117.628 65.0032 117.466 65.0146 117.305C65.0242 116.853 65.1401 116.41 65.3528 116.012C65.5655 115.613 65.8691 115.27 66.2389 115.011C66.3665 114.911 66.5186 114.846 66.6795 114.825C66.8404 114.803 67.0041 114.825 67.1538 114.887L73.501 118.269C73.6365 118.358 73.7456 118.483 73.817 118.629C73.8885 118.775 73.9198 118.937 73.9076 119.1Z" fill="#37474F"/>
<path d="M73.4915 118.269C73.6287 118.357 73.7395 118.481 73.8126 118.627C73.8857 118.774 73.9183 118.937 73.907 119.1C73.9093 119.435 73.8431 119.767 73.7125 120.076L65.5267 115.709C65.7122 115.432 65.9511 115.195 66.2295 115.011C66.3571 114.911 66.5092 114.846 66.6701 114.825C66.831 114.803 66.9947 114.825 67.1444 114.887L73.4915 118.269Z" fill="#263238"/>
<path d="M65.7618 124.731C65.7618 120.665 68.4492 116.598 73.8283 113.495C84.5778 107.285 102.01 107.285 112.764 113.495C118.139 116.589 120.826 120.665 120.826 124.731V132.245C120.826 136.312 118.139 140.378 112.76 143.485C102.01 149.673 84.5778 149.673 73.8283 143.485C68.4492 140.391 65.7618 136.312 65.7618 132.245V124.731ZM111.443 115.798C106.642 113.027 100.202 111.502 93.3205 111.502C86.4386 111.502 79.9854 113.027 75.1985 115.798C70.8581 118.304 68.4669 121.478 68.4669 124.736C68.4669 127.993 70.8581 131.162 75.1985 133.668C79.9986 136.44 86.4386 137.965 93.3205 137.965C100.202 137.965 106.656 136.44 111.443 133.668C115.787 131.162 118.174 127.989 118.174 124.736C118.174 121.482 115.774 118.304 111.443 115.798Z" fill="#004AAD"/>
<path opacity="0.3" d="M112.768 135.971C102.014 142.182 84.5861 142.182 73.8322 135.971C63.0784 129.761 63.0784 119.701 73.8322 113.496C84.5861 107.29 102.014 107.286 112.768 113.496C123.522 119.706 123.513 129.766 112.768 135.971ZM118.169 124.736C118.169 121.478 115.778 118.305 111.438 115.799C106.633 113.027 100.193 111.502 93.3156 111.502C86.4381 111.502 79.9804 113.027 75.1936 115.799C70.8531 118.305 68.4619 121.478 68.4619 124.736C68.4619 127.993 70.8531 131.162 75.1936 133.669C79.9981 136.44 86.4381 137.965 93.3156 137.965C100.193 137.965 106.651 136.44 111.438 133.669C115.774 131.162 118.165 127.989 118.165 124.736H118.169Z" fill="white"/>
<path d="M118.165 124.731C118.149 126.055 117.778 127.351 117.091 128.484C115.999 126.592 114.077 124.819 111.429 123.295C106.633 120.519 100.189 118.994 93.307 118.994C86.425 118.994 79.9718 120.519 75.185 123.295C72.533 124.819 70.6147 126.592 69.5185 128.484C68.8344 127.35 68.4652 126.055 68.4489 124.731C68.4489 121.478 70.8401 118.304 75.185 115.798C79.9807 113.027 86.425 111.502 93.307 111.502C100.189 111.502 106.647 113.027 111.429 115.798C115.774 118.304 118.165 121.478 118.165 124.731Z" fill="#004AAD"/>
<path opacity="0.1" d="M118.165 124.731C118.149 126.055 117.778 127.351 117.091 128.484C115.999 126.592 114.077 124.819 111.429 123.295C106.633 120.519 100.189 118.994 93.307 118.994C86.425 118.994 79.9718 120.519 75.185 123.295C72.533 124.819 70.6147 126.592 69.5185 128.484C68.8344 127.35 68.4652 126.055 68.4489 124.731C68.4489 121.478 70.8401 118.304 75.185 115.798C79.9807 113.027 86.425 111.502 93.307 111.502C100.189 111.502 106.647 113.027 111.429 115.798C115.774 118.304 118.165 121.478 118.165 124.731Z" fill="black"/>
<path opacity="0.4" d="M111.442 119.193C106.638 116.422 100.198 114.893 93.3205 114.893C86.4429 114.893 79.9853 116.422 75.1985 119.193C71.6183 121.262 69.3685 123.781 68.6878 126.429C69.3685 129.081 71.6183 131.6 75.1985 133.669C80.003 136.44 86.4429 137.965 93.3205 137.965C100.198 137.965 106.656 136.44 111.442 133.669C115.023 131.6 117.272 129.076 117.953 126.429C117.264 123.781 115.014 121.262 111.442 119.193Z" fill="white"/>
<path opacity="0.1" d="M99.7821 140.171V147.685C104.538 147.022 109.064 145.621 112.759 143.477C118.138 140.383 120.826 136.304 120.826 132.233V124.719C120.824 123.89 120.714 123.066 120.499 122.266C121.825 127.106 119.226 132.228 112.768 135.968C109.046 138.12 104.538 139.521 99.7821 140.171Z" fill="black"/>
</g>
<path d="M156.902 198.26L163.452 194.476C163.589 194.406 163.741 194.369 163.894 194.369C164.048 194.369 164.2 194.406 164.336 194.476L170.887 198.26C170.937 198.282 170.981 198.316 171.012 198.361C171.044 198.405 171.064 198.457 171.068 198.512V198.989C171.064 199.044 171.045 199.097 171.013 199.143C170.981 199.188 170.937 199.223 170.887 199.246L164.336 203.025C164.2 203.095 164.048 203.132 163.894 203.132C163.741 203.132 163.589 203.095 163.452 203.025L156.902 199.246C156.851 199.223 156.808 199.188 156.776 199.143C156.744 199.097 156.725 199.044 156.721 198.989V198.516C156.724 198.461 156.743 198.408 156.775 198.363C156.807 198.317 156.851 198.282 156.902 198.26Z" fill="#004AAD"/>
<path opacity="0.1" d="M156.721 198.515V198.993C156.725 199.048 156.744 199.101 156.776 199.146C156.808 199.191 156.851 199.227 156.902 199.249L163.452 203.028C163.588 203.101 163.74 203.138 163.894 203.134V194.369C163.74 194.366 163.588 194.402 163.452 194.475L156.902 198.259C156.851 198.281 156.807 198.316 156.775 198.362C156.743 198.407 156.724 198.46 156.721 198.515Z" fill="black"/>
<path opacity="0.3" d="M163.89 194.371V203.132C164.044 203.135 164.196 203.099 164.332 203.026L170.882 199.246C170.933 199.224 170.976 199.189 171.008 199.143C171.04 199.098 171.059 199.045 171.063 198.99V198.517C171.059 198.463 171.04 198.41 171.008 198.366C170.976 198.322 170.932 198.287 170.882 198.265L164.332 194.482C164.197 194.407 164.044 194.369 163.89 194.371Z" fill="black"/>
<path d="M164.332 202.547L170.882 198.768C170.935 198.75 170.98 198.715 171.012 198.67C171.045 198.624 171.062 198.57 171.062 198.514C171.062 198.458 171.045 198.404 171.012 198.359C170.98 198.313 170.935 198.279 170.882 198.26L164.332 194.476C164.195 194.406 164.044 194.369 163.89 194.369C163.736 194.369 163.584 194.406 163.448 194.476L156.897 198.26C156.845 198.279 156.799 198.313 156.767 198.359C156.735 198.404 156.718 198.458 156.718 198.514C156.718 198.57 156.735 198.624 156.767 198.67C156.799 198.715 156.845 198.75 156.897 198.768L163.448 202.547C163.584 202.618 163.736 202.655 163.89 202.655C164.044 202.655 164.195 202.618 164.332 202.547Z" fill="#004AAD"/>
<path opacity="0.5" d="M164.332 202.547L170.882 198.768C170.935 198.75 170.98 198.715 171.012 198.67C171.045 198.624 171.062 198.57 171.062 198.514C171.062 198.458 171.045 198.404 171.012 198.359C170.98 198.313 170.935 198.279 170.882 198.26L164.332 194.476C164.195 194.406 164.044 194.369 163.89 194.369C163.736 194.369 163.584 194.406 163.448 194.476L156.897 198.26C156.845 198.279 156.799 198.313 156.767 198.359C156.735 198.404 156.718 198.458 156.718 198.514C156.718 198.57 156.735 198.624 156.767 198.67C156.799 198.715 156.845 198.75 156.897 198.768L163.448 202.547C163.584 202.618 163.736 202.655 163.89 202.655C164.044 202.655 164.195 202.618 164.332 202.547Z" fill="white"/>
<path opacity="0.05" d="M163.89 194.369C164.044 194.366 164.196 194.402 164.332 194.475L170.882 198.259C170.935 198.278 170.98 198.312 171.012 198.358C171.044 198.403 171.062 198.457 171.062 198.513C171.062 198.569 171.044 198.623 171.012 198.669C170.98 198.714 170.935 198.749 170.882 198.767L164.332 202.546C164.196 202.62 164.044 202.656 163.89 202.652V194.369Z" fill="black"/>
<path d="M159.85 198.035L162.75 189.328C162.814 189.183 162.927 189.064 163.068 188.992C163.323 188.861 163.606 188.793 163.892 188.793C164.179 188.793 164.461 188.861 164.717 188.992C164.858 189.064 164.97 189.183 165.035 189.328L167.934 198.035C168.204 198.795 167.828 199.613 166.812 200.201C165.907 200.659 164.906 200.897 163.892 200.897C162.878 200.897 161.878 200.659 160.973 200.201C159.956 199.613 159.581 198.795 159.85 198.035Z" fill="#004AAD"/>
<path opacity="0.1" d="M159.85 198.035L162.75 189.328C162.814 189.183 162.927 189.064 163.068 188.992C163.323 188.861 163.606 188.793 163.892 188.793C164.179 188.793 164.461 188.861 164.717 188.992C164.858 189.064 164.97 189.183 165.035 189.328L167.934 198.035C168.204 198.795 167.828 199.613 166.812 200.201C165.907 200.659 164.906 200.897 163.892 200.897C162.878 200.897 161.878 200.659 160.973 200.201C159.956 199.613 159.581 198.795 159.85 198.035Z" fill="black"/>
<path d="M161.914 191.825L162.325 190.588C162.291 190.698 162.291 190.816 162.323 190.927C162.355 191.037 162.419 191.136 162.506 191.211C162.582 191.289 162.668 191.356 162.763 191.41C163.111 191.587 163.497 191.679 163.888 191.679C164.279 191.679 164.664 191.587 165.013 191.41C165.106 191.355 165.193 191.288 165.269 191.211C165.356 191.136 165.42 191.037 165.452 190.926C165.484 190.816 165.483 190.698 165.45 190.588L165.861 191.825C165.894 191.93 165.903 192.04 165.887 192.148C165.87 192.256 165.83 192.359 165.768 192.449C165.656 192.62 165.505 192.763 165.326 192.864C165.169 192.953 165.001 193.023 164.827 193.072C164.222 193.244 163.58 193.244 162.975 193.072C162.801 193.023 162.633 192.953 162.476 192.864C162.297 192.763 162.146 192.62 162.034 192.449C161.967 192.361 161.922 192.259 161.902 192.151C161.881 192.043 161.885 191.932 161.914 191.825Z" fill="#FAFAFA"/>
<path d="M160.252 196.816L160.663 195.578C160.597 195.779 160.589 195.996 160.641 196.201C160.702 196.436 160.822 196.65 160.99 196.825C161.159 197 161.353 197.149 161.565 197.267C162.285 197.631 163.081 197.82 163.888 197.82C164.695 197.82 165.49 197.631 166.21 197.267C166.423 197.149 166.616 197 166.785 196.825C166.953 196.65 167.073 196.436 167.134 196.201C167.184 195.996 167.177 195.78 167.112 195.578L167.523 196.816C167.59 197.016 167.606 197.231 167.567 197.439C167.495 197.72 167.363 197.981 167.179 198.205C166.995 198.429 166.764 198.609 166.502 198.734C165.691 199.146 164.793 199.361 163.883 199.361C162.973 199.361 162.076 199.146 161.264 198.734C161.003 198.609 160.772 198.429 160.588 198.205C160.404 197.981 160.271 197.72 160.199 197.439C160.164 197.23 160.182 197.016 160.252 196.816Z" fill="#FAFAFA"/>
<path d="M161.083 194.322L161.494 193.08C161.428 193.285 161.442 193.508 161.534 193.703C161.668 193.971 161.881 194.19 162.144 194.331C162.677 194.603 163.267 194.745 163.866 194.745C164.464 194.745 165.054 194.603 165.587 194.331H165.609C165.872 194.19 166.086 193.971 166.219 193.703C166.311 193.508 166.325 193.285 166.259 193.08L166.67 194.322C166.736 194.525 166.736 194.743 166.67 194.945C166.583 195.19 166.43 195.405 166.228 195.569C166.124 195.654 166.013 195.731 165.896 195.798C165.554 195.989 165.182 196.122 164.796 196.192C164.187 196.311 163.561 196.311 162.953 196.192C162.567 196.122 162.195 195.989 161.852 195.798C161.735 195.731 161.625 195.654 161.521 195.569C161.319 195.405 161.166 195.19 161.079 194.945C161.014 194.742 161.016 194.524 161.083 194.322Z" fill="#FAFAFA"/>
<path opacity="0.1" d="M163.89 188.793C164.178 188.787 164.462 188.856 164.716 188.992C164.858 189.065 164.97 189.183 165.034 189.328L167.934 198.036C168.204 198.796 167.828 199.613 166.811 200.201C165.913 200.679 164.907 200.92 163.89 200.9H163.916C164.546 200.79 165.108 200.439 165.482 199.922C165.857 199.404 166.015 198.761 165.923 198.128L164.716 189.461L163.89 188.793Z" fill="black"/>
<path d="M164.717 189.933C164.817 189.899 164.903 189.835 164.965 189.749C165.026 189.664 165.059 189.561 165.059 189.456C165.059 189.35 165.026 189.247 164.965 189.162C164.903 189.076 164.817 189.012 164.717 188.978C164.462 188.847 164.179 188.779 163.892 188.779C163.606 188.779 163.323 188.847 163.068 188.978C162.968 189.012 162.882 189.076 162.82 189.162C162.759 189.247 162.726 189.35 162.726 189.456C162.726 189.561 162.759 189.664 162.82 189.749C162.882 189.835 162.968 189.899 163.068 189.933C163.324 190.062 163.606 190.129 163.892 190.129C164.179 190.129 164.461 190.062 164.717 189.933Z" fill="#004AAD"/>
<path d="M174.954 195.618L181.504 191.835C181.641 191.765 181.792 191.729 181.946 191.729C182.1 191.729 182.251 191.765 182.388 191.835L188.934 195.618C188.984 195.64 189.027 195.675 189.059 195.719C189.091 195.764 189.11 195.816 189.115 195.87V196.348C189.111 196.403 189.092 196.456 189.06 196.501C189.028 196.546 188.985 196.582 188.934 196.604L182.388 200.383C182.251 200.453 182.1 200.489 181.946 200.489C181.792 200.489 181.641 200.453 181.504 200.383L174.954 196.604C174.904 196.581 174.861 196.545 174.829 196.5C174.797 196.455 174.777 196.402 174.772 196.348V195.866C174.779 195.813 174.799 195.762 174.831 195.718C174.862 195.675 174.905 195.641 174.954 195.618Z" fill="#004AAD"/>
<path opacity="0.1" d="M174.772 195.866V196.343C174.777 196.398 174.797 196.451 174.829 196.496C174.861 196.541 174.904 196.576 174.954 196.599L181.504 200.379C181.64 200.451 181.792 200.487 181.946 200.485V191.729C181.792 191.726 181.64 191.762 181.504 191.835L174.954 195.618C174.905 195.641 174.862 195.675 174.831 195.718C174.799 195.762 174.779 195.812 174.772 195.866Z" fill="black"/>
<path opacity="0.3" d="M181.946 191.727V200.487C182.1 200.49 182.252 200.454 182.388 200.381L188.934 196.602C188.985 196.58 189.029 196.544 189.06 196.499C189.092 196.454 189.111 196.401 189.116 196.346V195.864C189.111 195.81 189.091 195.758 189.059 195.713C189.027 195.669 188.984 195.634 188.934 195.612L182.388 191.829C182.252 191.758 182.1 191.723 181.946 191.727Z" fill="black"/>
<path d="M182.384 199.909L188.938 196.126C188.991 196.107 189.036 196.073 189.069 196.027C189.101 195.982 189.118 195.927 189.118 195.872C189.118 195.816 189.101 195.761 189.069 195.716C189.036 195.67 188.991 195.636 188.938 195.617L182.384 191.834C182.247 191.763 182.095 191.727 181.942 191.727C181.788 191.727 181.636 191.763 181.5 191.834L174.949 195.617C174.897 195.636 174.851 195.67 174.819 195.716C174.787 195.761 174.77 195.816 174.77 195.872C174.77 195.927 174.787 195.982 174.819 196.027C174.851 196.073 174.897 196.107 174.949 196.126L181.5 199.909C181.637 199.977 181.788 200.013 181.942 200.013C182.095 200.013 182.246 199.977 182.384 199.909Z" fill="#004AAD"/>
<path opacity="0.5" d="M182.384 199.909L188.938 196.126C188.991 196.107 189.036 196.073 189.069 196.027C189.101 195.982 189.118 195.927 189.118 195.872C189.118 195.816 189.101 195.761 189.069 195.716C189.036 195.67 188.991 195.636 188.938 195.617L182.384 191.834C182.247 191.763 182.095 191.727 181.942 191.727C181.788 191.727 181.636 191.763 181.5 191.834L174.949 195.617C174.897 195.636 174.851 195.67 174.819 195.716C174.787 195.761 174.77 195.816 174.77 195.872C174.77 195.927 174.787 195.982 174.819 196.027C174.851 196.073 174.897 196.107 174.949 196.126L181.5 199.909C181.637 199.977 181.788 200.013 181.942 200.013C182.095 200.013 182.246 199.977 182.384 199.909Z" fill="white"/>
<path opacity="0.05" d="M181.946 191.729C182.1 191.725 182.253 191.762 182.388 191.835L188.943 195.618C188.996 195.637 189.041 195.671 189.073 195.717C189.105 195.762 189.123 195.817 189.123 195.873C189.123 195.928 189.105 195.983 189.073 196.028C189.041 196.074 188.996 196.108 188.943 196.127L182.388 199.91C182.252 199.98 182.1 200.015 181.946 200.012V191.729Z" fill="black"/>
<path d="M177.901 195.393L180.796 186.685C180.858 186.539 180.969 186.42 181.11 186.349C181.366 186.219 181.649 186.15 181.937 186.15C182.224 186.15 182.507 186.219 182.763 186.349C182.904 186.422 183.015 186.54 183.077 186.685L185.977 195.393C186.242 196.153 185.871 196.971 184.85 197.558C183.944 198.016 182.944 198.254 181.93 198.254C180.916 198.254 179.916 198.016 179.011 197.558C178.007 196.971 177.636 196.153 177.901 195.393Z" fill="#004AAD"/>
<path opacity="0.1" d="M177.901 195.393L180.796 186.685C180.858 186.539 180.969 186.42 181.11 186.349C181.366 186.219 181.649 186.15 181.937 186.15C182.224 186.15 182.507 186.219 182.763 186.349C182.904 186.422 183.015 186.54 183.077 186.685L185.977 195.393C186.242 196.153 185.871 196.971 184.85 197.558C183.944 198.016 182.944 198.254 181.93 198.254C180.916 198.254 179.916 198.016 179.011 197.558C178.007 196.971 177.636 196.153 177.901 195.393Z" fill="black"/>
<path d="M179.953 189.183L180.364 187.945C180.332 188.056 180.333 188.173 180.365 188.283C180.397 188.393 180.459 188.492 180.545 188.569C180.622 188.645 180.708 188.712 180.801 188.767C181.15 188.944 181.535 189.036 181.926 189.036C182.317 189.036 182.702 188.944 183.051 188.767C183.146 188.713 183.234 188.646 183.312 188.569C183.398 188.492 183.46 188.393 183.491 188.283C183.523 188.172 183.522 188.055 183.489 187.945L183.904 189.183C183.939 189.287 183.949 189.397 183.934 189.505C183.918 189.613 183.878 189.716 183.816 189.806C183.703 189.977 183.551 190.119 183.374 190.222C183.216 190.31 183.048 190.38 182.874 190.429C182.271 190.602 181.631 190.602 181.027 190.429C180.852 190.381 180.685 190.311 180.527 190.222C180.342 190.122 180.183 189.98 180.063 189.806C179.999 189.718 179.955 189.615 179.936 189.507C179.917 189.399 179.922 189.288 179.953 189.183Z" fill="#FAFAFA"/>
<path d="M178.308 194.173L178.723 192.936C178.655 193.136 178.646 193.353 178.697 193.559C178.758 193.793 178.878 194.008 179.046 194.182C179.215 194.358 179.411 194.507 179.625 194.624C180.344 194.988 181.139 195.178 181.946 195.178C182.752 195.178 183.547 194.988 184.266 194.624C184.479 194.507 184.673 194.358 184.841 194.182C185.012 194.01 185.133 193.795 185.19 193.559C185.245 193.353 185.237 193.136 185.168 192.936L185.579 194.173C185.648 194.373 185.664 194.588 185.627 194.796C185.554 195.076 185.42 195.337 185.237 195.561C185.053 195.784 184.823 195.965 184.562 196.091C183.75 196.503 182.852 196.718 181.941 196.718C181.03 196.718 180.132 196.503 179.32 196.091C179.059 195.967 178.828 195.786 178.644 195.562C178.46 195.338 178.327 195.077 178.255 194.796C178.219 194.587 178.238 194.373 178.308 194.173Z" fill="#FAFAFA"/>
<path d="M179.135 191.68L179.546 190.438C179.48 190.643 179.494 190.866 179.586 191.061C179.723 191.327 179.937 191.546 180.201 191.688C180.734 191.961 181.325 192.103 181.924 192.103C182.524 192.103 183.114 191.961 183.648 191.688C183.911 191.547 184.125 191.328 184.258 191.061C184.352 190.866 184.367 190.642 184.298 190.438L184.713 191.68C184.784 191.881 184.784 192.101 184.713 192.303C184.626 192.547 184.473 192.763 184.271 192.926C184.168 193.013 184.057 193.09 183.94 193.156C183.599 193.347 183.228 193.48 182.844 193.549C182.234 193.668 181.606 193.668 180.996 193.549C180.61 193.479 180.239 193.346 179.896 193.156C179.779 193.089 179.668 193.012 179.564 192.926C179.362 192.763 179.209 192.548 179.122 192.303C179.058 192.099 179.063 191.88 179.135 191.68Z" fill="#FAFAFA"/>
<path opacity="0.1" d="M181.946 186.141C182.234 186.136 182.518 186.204 182.772 186.34C182.913 186.412 183.024 186.531 183.086 186.676L185.986 195.383C186.251 196.143 185.88 196.961 184.859 197.549C183.961 198.026 182.957 198.266 181.941 198.247H181.964C182.593 198.138 183.155 197.787 183.53 197.269C183.905 196.752 184.063 196.108 183.97 195.476L182.768 186.808L181.946 186.141Z" fill="black"/>
<path d="M182.773 187.29C182.873 187.257 182.96 187.192 183.021 187.107C183.083 187.021 183.116 186.918 183.116 186.813C183.116 186.708 183.083 186.605 183.021 186.519C182.96 186.434 182.873 186.369 182.773 186.336C182.517 186.205 182.234 186.137 181.946 186.137C181.659 186.137 181.376 186.205 181.12 186.336C181.02 186.369 180.933 186.434 180.872 186.519C180.81 186.605 180.777 186.708 180.777 186.813C180.777 186.918 180.81 187.021 180.872 187.107C180.933 187.192 181.02 187.257 181.12 187.29C181.376 187.419 181.659 187.486 181.946 187.486C182.233 187.486 182.516 187.419 182.773 187.29Z" fill="#004AAD"/>
<path d="M75.3218 198.896L81.8723 195.112C82.0082 195.04 82.1603 195.003 82.3143 195.006C82.4684 195.002 82.6207 195.039 82.7563 195.112L89.3067 198.896C89.3567 198.918 89.3999 198.953 89.4318 198.997C89.4637 199.041 89.4831 199.093 89.4879 199.148V199.625C89.4838 199.68 89.4648 199.733 89.4329 199.778C89.4009 199.823 89.3573 199.859 89.3067 199.881L82.7563 203.66C82.6207 203.734 82.4684 203.77 82.3143 203.767C82.1603 203.769 82.0082 203.733 81.8723 203.66L75.3218 199.881C75.2712 199.859 75.2276 199.823 75.1957 199.778C75.1638 199.733 75.1448 199.68 75.1406 199.625V199.148C75.1455 199.093 75.1649 199.041 75.1968 198.997C75.2287 198.953 75.2719 198.918 75.3218 198.896Z" fill="#004AAD"/>
<path opacity="0.1" d="M75.1406 199.148V199.625C75.1448 199.68 75.1638 199.733 75.1957 199.778C75.2276 199.823 75.2712 199.859 75.3218 199.881L81.8723 203.66C82.0082 203.733 82.1603 203.769 82.3143 203.766V195.006C82.1603 195.003 82.0082 195.04 81.8723 195.112L75.3218 198.896C75.2719 198.918 75.2287 198.952 75.1968 198.997C75.1649 199.041 75.1455 199.093 75.1406 199.148Z" fill="black"/>
<path opacity="0.3" d="M82.3145 195.006V203.767C82.4685 203.77 82.6209 203.734 82.7565 203.66L89.3069 199.881C89.3575 199.859 89.4011 199.823 89.433 199.778C89.4649 199.733 89.484 199.68 89.4881 199.625V199.148C89.4832 199.093 89.4638 199.041 89.4319 198.997C89.4001 198.953 89.3569 198.918 89.3069 198.896L82.7565 195.112C82.6209 195.039 82.4685 195.002 82.3145 195.006Z" fill="black"/>
<path d="M82.7517 203.189L89.3066 199.401C89.3591 199.383 89.4046 199.348 89.4368 199.303C89.4689 199.257 89.4862 199.203 89.4862 199.147C89.4862 199.091 89.4689 199.037 89.4368 198.991C89.4046 198.946 89.3591 198.911 89.3066 198.893L82.7517 195.109C82.6151 195.039 82.4635 195.002 82.3097 195.002C82.156 195.002 82.0044 195.039 81.8677 195.109L75.3173 198.893C75.2648 198.911 75.2193 198.946 75.1871 198.991C75.155 199.037 75.1377 199.091 75.1377 199.147C75.1377 199.203 75.155 199.257 75.1871 199.303C75.2193 199.348 75.2648 199.383 75.3173 199.401L81.8677 203.185C82.0048 203.253 82.1559 203.29 82.3092 203.29C82.4626 203.291 82.614 203.257 82.7517 203.189Z" fill="#004AAD"/>
<path opacity="0.5" d="M82.7517 203.189L89.3066 199.401C89.3591 199.383 89.4046 199.348 89.4368 199.303C89.4689 199.257 89.4862 199.203 89.4862 199.147C89.4862 199.091 89.4689 199.037 89.4368 198.991C89.4046 198.946 89.3591 198.911 89.3066 198.893L82.7517 195.109C82.6151 195.039 82.4635 195.002 82.3097 195.002C82.156 195.002 82.0044 195.039 81.8677 195.109L75.3173 198.893C75.2648 198.911 75.2193 198.946 75.1871 198.991C75.155 199.037 75.1377 199.091 75.1377 199.147C75.1377 199.203 75.155 199.257 75.1871 199.303C75.2193 199.348 75.2648 199.383 75.3173 199.401L81.8677 203.185C82.0048 203.253 82.1559 203.29 82.3092 203.29C82.4626 203.291 82.614 203.257 82.7517 203.189Z" fill="white"/>
<path opacity="0.05" d="M82.3145 195.006C82.4685 195.002 82.6209 195.039 82.7565 195.112L89.3113 198.896C89.3638 198.914 89.4093 198.949 89.4415 198.994C89.4736 199.04 89.4909 199.094 89.4909 199.15C89.4909 199.206 89.4736 199.26 89.4415 199.305C89.4093 199.351 89.3638 199.385 89.3113 199.404L82.7565 203.188C82.6205 203.259 82.4681 203.294 82.3145 203.289V195.006Z" fill="black"/>
<path d="M78.2921 198.675L81.1916 189.963C81.2541 189.818 81.365 189.7 81.5054 189.627C81.7619 189.499 82.0449 189.432 82.3319 189.432C82.6189 189.432 82.902 189.499 83.1585 189.627C83.298 189.701 83.4086 189.819 83.4723 189.963L86.3718 198.675C86.637 199.431 86.2613 200.249 85.2447 200.836C84.3396 201.294 83.3395 201.532 82.3253 201.532C81.3111 201.532 80.311 201.294 79.4059 200.836C78.376 200.249 78.0003 199.431 78.2921 198.675Z" fill="#004AAD"/>
<path opacity="0.1" d="M78.2921 198.675L81.1916 189.963C81.2541 189.818 81.365 189.7 81.5054 189.627C81.7619 189.499 82.0449 189.432 82.3319 189.432C82.6189 189.432 82.902 189.499 83.1585 189.627C83.298 189.701 83.4086 189.819 83.4723 189.963L86.3718 198.675C86.637 199.431 86.2613 200.249 85.2447 200.836C84.3396 201.294 83.3395 201.532 82.3253 201.532C81.3111 201.532 80.311 201.294 79.4059 200.836C78.376 200.249 78.0003 199.431 78.2921 198.675Z" fill="black"/>
<path d="M80.3335 192.462L80.7446 191.225C80.712 191.335 80.7117 191.452 80.7439 191.563C80.776 191.673 80.8391 191.772 80.9258 191.848C81.0021 191.925 81.0883 191.992 81.1822 192.047C81.5308 192.223 81.9162 192.315 82.3071 192.315C82.6979 192.315 83.0833 192.223 83.4319 192.047C83.5272 191.992 83.6148 191.925 83.6927 191.848C83.7786 191.772 83.8409 191.673 83.8723 191.562C83.9036 191.452 83.9026 191.335 83.8695 191.225L84.285 192.467C84.3197 192.57 84.3298 192.681 84.3145 192.789C84.2991 192.897 84.2588 193 84.1966 193.09C84.0781 193.271 83.9193 193.422 83.7325 193.532C83.5738 193.617 83.4063 193.685 83.233 193.735C82.6293 193.908 81.9893 193.908 81.3855 193.735C81.2116 193.687 81.044 193.619 80.886 193.532C80.7063 193.421 80.5549 193.27 80.444 193.09C80.3787 193.001 80.3348 192.898 80.3156 192.789C80.2964 192.68 80.3026 192.568 80.3335 192.462Z" fill="#FAFAFA"/>
<path d="M78.6721 197.45L79.0831 196.213C79.0185 196.415 79.0108 196.63 79.061 196.836C79.1218 197.07 79.2421 197.285 79.4102 197.459C79.5795 197.635 79.7748 197.784 79.9892 197.901C80.708 198.267 81.5032 198.458 82.3097 198.458C83.1163 198.458 83.9115 198.267 84.6302 197.901C84.8434 197.784 85.0372 197.635 85.2048 197.459C85.373 197.285 85.4932 197.07 85.554 196.836C85.6064 196.631 85.5987 196.414 85.5319 196.213L85.943 197.45C86.0104 197.651 86.0256 197.866 85.9872 198.074C85.9145 198.353 85.782 198.613 85.5989 198.836C85.4157 199.059 85.1862 199.239 84.9264 199.364C84.1141 199.776 83.2161 199.991 82.3053 199.991C81.3945 199.991 80.4966 199.776 79.6843 199.364C79.4234 199.24 79.193 199.06 79.009 198.837C78.825 198.614 78.6919 198.353 78.619 198.074C78.5868 197.865 78.605 197.651 78.6721 197.45Z" fill="#FAFAFA"/>
<path d="M79.5029 194.98L79.914 193.743C79.8474 193.946 79.8616 194.168 79.9538 194.362C80.0904 194.628 80.3046 194.847 80.5681 194.989C81.1019 195.262 81.6927 195.404 82.2919 195.404C82.8912 195.404 83.4819 195.262 84.0157 194.989C84.279 194.848 84.4921 194.629 84.6257 194.362C84.7199 194.167 84.7342 193.943 84.6655 193.738L85.0765 194.98C85.1473 195.182 85.1473 195.402 85.0765 195.604C84.9894 195.848 84.8364 196.064 84.6345 196.227C84.5314 196.313 84.4204 196.39 84.303 196.457C83.9615 196.647 83.5912 196.779 83.2069 196.85C82.5968 196.969 81.9694 196.969 81.3593 196.85C80.9736 196.779 80.6018 196.647 80.2587 196.457C80.142 196.389 80.0312 196.312 79.9272 196.227C79.7248 196.064 79.5718 195.848 79.4852 195.604C79.4226 195.399 79.4288 195.18 79.5029 194.98Z" fill="#FAFAFA"/>
<path opacity="0.1" d="M82.314 189.416C82.6019 189.411 82.8864 189.48 83.1405 189.615C83.2801 189.689 83.3906 189.807 83.4543 189.951L86.3539 198.663C86.6191 199.419 86.2434 200.236 85.2268 200.824C84.3296 201.302 83.3256 201.542 82.3096 201.523H82.3317C82.9612 201.413 83.5232 201.062 83.8979 200.545C84.2727 200.027 84.4307 199.384 84.3383 198.751L83.1538 190.093L82.314 189.416Z" fill="black"/>
<path d="M83.1538 190.561C83.2537 190.527 83.3405 190.463 83.4019 190.377C83.4634 190.291 83.4964 190.189 83.4964 190.083C83.4964 189.978 83.4634 189.875 83.4019 189.789C83.3405 189.704 83.2537 189.64 83.1538 189.606C82.8973 189.477 82.6143 189.41 82.3273 189.41C82.0403 189.41 81.7573 189.477 81.5008 189.606C81.4009 189.64 81.3142 189.704 81.2527 189.789C81.1913 189.875 81.1582 189.978 81.1582 190.083C81.1582 190.189 81.1913 190.291 81.2527 190.377C81.3142 190.463 81.4009 190.527 81.5008 190.561C81.7573 190.689 82.0403 190.756 82.3273 190.756C82.6143 190.756 82.8973 190.689 83.1538 190.561Z" fill="#004AAD"/>
<path d="M191.979 178.565L201.699 172.951L210.031 177.765L200.311 183.374L191.979 178.565Z" fill="#455A64"/>
<path d="M191.979 178.564V180.169L200.311 184.978V183.373L191.979 178.564Z" fill="#263238"/>
<path d="M210.03 177.764L210.026 179.364L200.311 184.977V183.373L210.03 177.764Z" fill="#37474F"/>
<path d="M201.266 145.401C201.098 145.323 200.913 145.292 200.728 145.31C200.544 145.327 200.368 145.394 200.218 145.502L196.24 147.801C195.81 148.082 195.451 148.46 195.194 148.906C194.937 149.351 194.788 149.851 194.76 150.364V178.564L200.316 181.768L207.255 177.759V149.564C207.273 149.38 207.241 149.195 207.163 149.027C207.086 148.859 206.965 148.715 206.813 148.609L201.266 145.401Z" fill="#004AAD"/>
<path opacity="0.2" d="M200.726 152.105C200.456 152.545 200.304 153.048 200.284 153.564V181.759L194.729 178.555V150.355C194.747 149.839 194.899 149.336 195.171 148.896L200.726 152.105Z" fill="black"/>
<path d="M200.311 153.572C200.339 153.059 200.487 152.56 200.743 152.114C201 151.669 201.357 151.29 201.787 151.009L205.765 148.71C206.583 148.237 207.246 148.622 207.246 149.563V177.741L200.307 181.75L200.311 153.572Z" fill="#004AAD"/>
<path opacity="0.4" d="M206.799 148.596C206.633 148.525 206.451 148.498 206.271 148.518C206.092 148.538 205.92 148.605 205.774 148.711L201.796 151.01C201.35 151.276 200.982 151.654 200.726 152.106L195.175 148.901C195.423 148.45 195.782 148.07 196.218 147.796L200.196 145.502C200.345 145.393 200.521 145.325 200.705 145.306C200.889 145.287 201.075 145.319 201.243 145.396L206.799 148.596Z" fill="white"/>
<path d="M201.698 154.268L205.862 151.863V155.072L201.698 157.477V154.268Z" fill="#455A64"/>
<path d="M205.46 154.838L205.862 155.072V151.863L205.46 152.098V154.838Z" fill="#37474F"/>
<path d="M205.46 154.838V152.098L201.698 154.268V157.008L205.46 154.838Z" fill="#004AAD"/>
<path opacity="0.4" d="M205.46 154.838V152.098L201.698 154.268V157.008L205.46 154.838Z" fill="black"/>
<path d="M201.699 159.249C201.669 159.25 201.639 159.242 201.613 159.227C201.586 159.213 201.564 159.191 201.549 159.165C201.527 159.126 201.522 159.079 201.533 159.036C201.545 158.992 201.572 158.955 201.611 158.931L205.779 156.527C205.798 156.515 205.819 156.507 205.842 156.504C205.864 156.5 205.887 156.502 205.909 156.508C205.931 156.513 205.951 156.523 205.969 156.537C205.987 156.551 206.002 156.569 206.013 156.588C206.035 156.628 206.041 156.675 206.028 156.719C206.016 156.763 205.986 156.8 205.947 156.823L201.783 159.227C201.757 159.241 201.728 159.248 201.699 159.249Z" fill="#455A64"/>
<path d="M201.699 160.854C201.668 160.855 201.638 160.847 201.611 160.831C201.585 160.816 201.563 160.793 201.548 160.766C201.527 160.727 201.522 160.681 201.533 160.639C201.545 160.596 201.572 160.559 201.61 160.536L205.778 158.127C205.818 158.108 205.864 158.104 205.906 158.117C205.948 158.13 205.984 158.159 206.005 158.198C206.027 158.236 206.033 158.282 206.022 158.324C206.011 158.367 205.984 158.404 205.946 158.428L201.783 160.832C201.757 160.846 201.728 160.853 201.699 160.854Z" fill="#455A64"/>
<path d="M201.699 162.453C201.669 162.454 201.638 162.447 201.612 162.432C201.585 162.418 201.563 162.396 201.549 162.369C201.527 162.33 201.522 162.283 201.533 162.24C201.545 162.196 201.572 162.159 201.611 162.135L205.779 159.73C205.818 159.709 205.865 159.703 205.908 159.715C205.952 159.726 205.989 159.754 206.013 159.792C206.035 159.832 206.041 159.879 206.028 159.923C206.016 159.967 205.986 160.004 205.947 160.026L201.783 162.431C201.758 162.446 201.729 162.454 201.699 162.453Z" fill="#455A64"/>
<path d="M140.464 190.746L192.531 160.69V156.354L140.464 186.414V190.746Z" fill="#F5F5F5"/>
<path d="M139.076 185.609V189.945L140.464 190.745V186.414L139.076 185.609Z" fill="#004AAD"/>
<path opacity="0.2" d="M139.076 185.609V189.945L140.464 190.745V186.414L139.076 185.609Z" fill="black"/>
<path d="M192.532 156.353L191.144 155.553L139.076 185.609L140.464 186.413L192.532 156.353Z" fill="#FAFAFA"/>
<path d="M145.326 182.002L146.714 182.807L150.878 180.402L149.49 179.598L145.326 182.002Z" fill="#004AAD"/>
<path d="M140.464 186.415L142.546 185.213L141.158 184.408L139.076 185.61L140.464 186.415Z" fill="#004AAD"/>
<path d="M153.653 177.194L155.041 177.994L159.209 175.589L157.821 174.789L153.653 177.194Z" fill="#004AAD"/>
<path d="M161.985 172.385L163.373 173.185L167.541 170.78L166.149 169.98L161.985 172.385Z" fill="#004AAD"/>
<path d="M170.316 167.576L171.704 168.376L175.868 165.972L174.48 165.172L170.316 167.576Z" fill="#004AAD"/>
<path d="M178.648 162.768L180.036 163.568L184.2 161.163L182.812 160.363L178.648 162.768Z" fill="#004AAD"/>
<path d="M186.976 157.957L188.363 158.757L192.532 156.353L191.144 155.553L186.976 157.957Z" fill="#004AAD"/>
<g opacity="0.4">
<path d="M145.326 182.002L146.714 182.807L150.878 180.402L149.49 179.598L145.326 182.002Z" fill="white"/>
<path d="M140.464 186.413L142.546 185.211L141.158 184.406L139.076 185.608L140.464 186.413Z" fill="white"/>
<path d="M153.653 177.194L155.041 177.994L159.209 175.589L157.821 174.789L153.653 177.194Z" fill="white"/>
<path d="M161.985 172.385L163.373 173.185L167.541 170.78L166.149 169.98L161.985 172.385Z" fill="white"/>
<path d="M170.316 167.574L171.704 168.374L175.868 165.97L174.48 165.17L170.316 167.574Z" fill="white"/>
<path d="M178.648 162.766L180.036 163.566L184.2 161.161L182.812 160.361L178.648 162.766Z" fill="white"/>
<path d="M186.976 157.957L188.363 158.757L192.532 156.353L191.144 155.553L186.976 157.957Z" fill="white"/>
</g>
<path d="M175.868 165.971L172.208 168.083L171.704 168.375L168.929 174.316L173.092 171.911L175.868 165.971Z" fill="#004AAD"/>
<path d="M159.209 175.59L155.041 177.994L152.27 183.935L156.433 181.53L159.209 175.59Z" fill="#004AAD"/>
<path d="M148.102 186.338L150.878 180.402L147.483 182.36L146.714 182.807L143.938 188.743L148.102 186.338Z" fill="#004AAD"/>
<path d="M167.541 170.781L163.488 173.124L163.373 173.186L160.598 179.126L164.766 176.722L167.541 170.781Z" fill="#004AAD"/>
<path d="M181.424 167.103L184.2 161.162L181.102 162.952L180.037 163.567L177.261 169.507L181.424 167.103Z" fill="#004AAD"/>
<path d="M142.546 185.213L140.464 186.415V188.948L142.546 185.213Z" fill="#004AAD"/>
<path d="M191.842 156.751L188.364 158.758L185.588 164.698L189.756 162.294L192.532 156.354L191.842 156.751Z" fill="#004AAD"/>
<path d="M192.532 159.561L198.446 156.14V152.936L192.532 156.352V159.561Z" fill="#37474F"/>
<path d="M198.445 152.937L197.058 152.133L191.144 155.554L192.531 156.354L198.445 152.937Z" fill="#455A64"/>
<defs>
<clipPath id="clip0_1009_95398">
<rect width="91.494" height="53.924" fill="white" transform="matrix(-1 0 0 1 121.166 94.2031)"/>
</clipPath>
</defs>
</svg>
