<svg width="60" height="60" viewBox="0 0 60 60" fill="none" xmlns="http://www.w3.org/2000/svg">
<path opacity="0.21" d="M0 23C0 10.2975 10.2975 0 23 0H37C49.7025 0 60 10.2975 60 23V37C60 49.7025 49.7025 60 37 60H23C10.2975 60 0 49.7025 0 37V23Z" fill="#007AFF" fill-opacity="0.59"/>
<path d="M18 44V46C18 46.5667 17.8083 47.0417 17.425 47.425C17.0417 47.8083 16.5667 48 16 48H14C13.4333 48 12.9583 47.8083 12.575 47.425C12.1917 47.0417 12 46.5667 12 46V30L16.2 18C16.4 17.4 16.7583 16.9167 17.275 16.55C17.7917 16.1833 18.3667 16 19 16H41C41.6333 16 42.2083 16.1833 42.725 16.55C43.2417 16.9167 43.6 17.4 43.8 18L48 30V46C48 46.5667 47.8083 47.0417 47.425 47.425C47.0417 47.8083 46.5667 48 46 48H44C43.4333 48 42.9583 47.8083 42.575 47.425C42.1917 47.0417 42 46.5667 42 46V44H18ZM17.6 26H42.4L40.3 20H19.7L17.6 26ZM21 38C21.8333 38 22.5417 37.7083 23.125 37.125C23.7083 36.5417 24 35.8333 24 35C24 34.1667 23.7083 33.4583 23.125 32.875C22.5417 32.2917 21.8333 32 21 32C20.1667 32 19.4583 32.2917 18.875 32.875C18.2917 33.4583 18 34.1667 18 35C18 35.8333 18.2917 36.5417 18.875 37.125C19.4583 37.7083 20.1667 38 21 38ZM39 38C39.8333 38 40.5417 37.7083 41.125 37.125C41.7083 36.5417 42 35.8333 42 35C42 34.1667 41.7083 33.4583 41.125 32.875C40.5417 32.2917 39.8333 32 39 32C38.1667 32 37.4583 32.2917 36.875 32.875C36.2917 33.4583 36 34.1667 36 35C36 35.8333 36.2917 36.5417 36.875 37.125C37.4583 37.7083 38.1667 38 39 38ZM16 40H44V30H16V40Z" fill="#007AFF"/>
</svg>
