<svg width="60" height="60" viewBox="0 0 60 60" fill="none" xmlns="http://www.w3.org/2000/svg">
<path opacity="0.21" fill-rule="evenodd" clip-rule="evenodd" d="M0 30V37C0 49.7025 10.2975 60 23 60H30H37C49.7025 60 60 49.7025 60 37V30V23C60 10.2975 49.7025 0 37 0H30H23C10.2975 0 0 10.2975 0 23V30Z" fill="#4AD991"/>
<path d="M19.1111 40.8889H42.4444C43.3036 40.8889 44 41.5853 44 42.4444C44 43.3036 43.3036 44 42.4444 44H17.5556C16.6964 44 16 43.3036 16 42.4444V17.5556C16 16.6964 16.6964 16 17.5556 16C18.4147 16 19.1111 16.6964 19.1111 17.5556V40.8889Z" fill="#4AD991"/>
<path opacity="0.5" d="M24.9131 34.176C24.3255 34.8027 23.3411 34.8345 22.7143 34.2469C22.0876 33.6593 22.0558 32.6749 22.6434 32.0481L28.4767 25.8259C29.045 25.2198 29.9893 25.1672 30.6213 25.7065L35.2253 29.6353L41.224 22.037C41.7563 21.3627 42.7345 21.2477 43.4088 21.78C44.0831 22.3123 44.1982 23.2905 43.6658 23.9648L36.6658 32.8315C36.1191 33.524 35.1063 33.6237 34.4351 33.0509L29.7311 29.0367L24.9131 34.176Z" fill="#4AD991"/>
</svg>
