<svg width="234" height="233" viewBox="0 0 234 233" fill="none" xmlns="http://www.w3.org/2000/svg">
<path d="M75.1719 19.7873C95.4103 19.4751 117.909 19.4844 138.161 19.7873C117.904 20.0856 95.4149 20.0949 75.1719 19.7873Z" fill="#EBEBEB"/>
<path d="M68.042 28.3207C88.8955 28.0132 112.074 28.0178 132.937 28.3207C112.07 28.6236 88.9002 28.6283 68.042 28.3207Z" fill="#EBEBEB"/>
<path d="M81.6953 19.7871C82.0145 22.6223 82.0145 25.4844 81.6953 28.3196C81.3737 25.4845 81.3737 22.6222 81.6953 19.7871Z" fill="#EBEBEB"/>
<path d="M113.463 19.7871C113.782 22.6223 113.782 25.4844 113.463 28.3196C113.141 25.4845 113.141 22.6222 113.463 19.7871Z" fill="#EBEBEB"/>
<path d="M97.5763 28.2832C97.8978 31.1198 97.8978 33.9837 97.5763 36.8203C97.2571 33.9836 97.2571 31.12 97.5763 28.2832Z" fill="#EBEBEB"/>
<path d="M97.1943 147.747C117.433 147.439 139.927 147.444 160.179 147.747C139.927 148.049 117.437 148.054 97.1943 147.747Z" fill="#EBEBEB"/>
<path d="M82.0918 156.278C102.945 155.97 126.124 155.98 146.987 156.278C126.119 156.581 102.95 156.59 82.0918 156.278Z" fill="#EBEBEB"/>
<path d="M157.658 139.27C170.664 138.962 185.054 138.962 198.065 139.27C185.054 139.577 170.664 139.577 157.658 139.27Z" fill="#EBEBEB"/>
<path d="M171.955 147.746C184.961 147.439 199.356 147.439 212.367 147.746C199.356 148.054 184.966 148.054 171.955 147.746Z" fill="#EBEBEB"/>
<path d="M113.477 147.746C113.796 150.581 113.796 153.443 113.477 156.279C113.155 153.443 113.155 150.581 113.477 147.746Z" fill="#EBEBEB"/>
<path d="M145.258 147.746C145.577 150.581 145.577 153.443 145.258 156.279C144.936 153.443 144.936 150.581 145.258 147.746Z" fill="#EBEBEB"/>
<path d="M177.039 147.746C177.358 150.581 177.358 153.443 177.039 156.279C176.717 153.443 176.717 150.581 177.039 147.746Z" fill="#EBEBEB"/>
<path d="M208.802 147.746C209.121 150.581 209.121 153.443 208.802 156.279C208.483 153.443 208.483 150.581 208.802 147.746Z" fill="#EBEBEB"/>
<path d="M97.5763 156.246C97.8978 159.081 97.8978 161.943 97.5763 164.779C97.2571 161.943 97.2571 159.081 97.5763 156.246Z" fill="#EBEBEB"/>
<path d="M129.409 156.246C129.731 159.081 129.731 161.943 129.409 164.779C129.09 161.943 129.09 159.081 129.409 156.246Z" fill="#EBEBEB"/>
<path d="M193.079 139.031C193.398 141.868 193.398 144.732 193.079 147.568C192.758 144.732 192.758 141.868 193.079 139.031Z" fill="#EBEBEB"/>
<path d="M99.874 79.1039C120.728 78.7964 143.906 78.801 164.774 79.1039C143.902 79.4068 120.732 79.4161 99.874 79.1039Z" fill="#EBEBEB"/>
<path d="M122.345 87.6408C136.353 87.3286 151.936 87.3379 165.958 87.6408C151.931 87.9437 136.357 87.9484 122.345 87.6408Z" fill="#EBEBEB"/>
<path d="M145.295 70.5723C145.614 73.4075 145.614 76.2695 145.295 79.1047C144.976 76.2695 144.976 73.4075 145.295 70.5723Z" fill="#EBEBEB"/>
<path d="M129.409 79.1035C129.731 81.9401 129.731 84.804 129.409 87.6406C129.09 84.8039 129.09 81.9403 129.409 79.1035Z" fill="#EBEBEB"/>
<path d="M161.177 79.1035C161.498 81.9401 161.498 84.804 161.177 87.6406C160.855 84.804 160.855 81.9401 161.177 79.1035Z" fill="#EBEBEB"/>
<path d="M90.0742 112.345C99.0494 112.028 108.09 112.028 117.07 112.345C108.09 112.657 99.0494 112.657 90.0742 112.345Z" fill="#EBEBEB"/>
<path d="M83.7598 120.877C97.7724 120.57 113.351 120.574 127.373 120.877C113.351 121.18 97.7724 121.19 83.7598 120.877Z" fill="#EBEBEB"/>
<path d="M97.591 103.807C97.9125 106.643 97.9125 109.507 97.591 112.344C97.2718 109.507 97.2718 106.643 97.591 103.807Z" fill="#EBEBEB"/>
<path d="M113.477 112.344C113.796 115.179 113.796 118.041 113.477 120.876C113.155 118.041 113.155 115.179 113.477 112.344Z" fill="#EBEBEB"/>
<path d="M45.7435 46.5586L51.2144 54.872L60.8093 57.5049L54.5929 65.2732L55.0542 75.2129L45.7435 71.7039L36.4328 75.2129L36.8988 65.2732L30.6777 57.5049L40.2773 54.872L45.7435 46.5586Z" fill="#EBEBEB"/>
<path d="M129.326 104.641L134.796 112.954L144.391 115.587L138.175 123.355L138.636 133.295L129.326 129.781L120.015 133.295L120.481 123.355L114.26 115.587L123.859 112.954L129.326 104.641Z" fill="#EBEBEB"/>
<path d="M169.051 24.1914L171.228 27.5L175.044 28.5438L172.57 31.6381L172.756 35.5898L169.051 34.1918L165.347 35.5898L165.533 31.6381L163.059 28.5438L166.875 27.5L169.051 24.1914Z" fill="#EBEBEB"/>
<path d="M51.7359 131.572L53.9121 134.881L57.7287 135.929L55.2542 139.019L55.4406 142.975L51.7359 141.577L48.0312 142.975L48.2176 139.019L45.7432 135.929L49.5597 134.881L51.7359 131.572Z" fill="#EBEBEB"/>
<path d="M71.7086 32.8223L73.8801 36.1309L77.7013 37.1794L75.2269 40.2689L75.4133 44.2206L71.7086 42.8273L68.0039 44.2206L68.1856 40.2689L65.7158 37.1794L69.5324 36.1309L71.7086 32.8223Z" fill="#EBEBEB"/>
<path d="M179.453 65.9395L188.116 79.1086L203.321 83.2793L193.47 95.5864L194.206 111.333L179.453 105.768L164.704 111.333L165.44 95.5864L155.589 83.2793L170.794 79.1086L179.453 65.9395Z" fill="#EBEBEB"/>
<path d="M25.5938 221.024C84.1513 220.739 149.848 220.739 208.406 221.024C149.848 221.313 84.1513 221.313 25.5938 221.024Z" fill="#263238"/>
<path d="M188.805 176.776C188.223 178.897 187.839 181.067 187.659 183.259C187.715 183.366 187.706 183.766 187.659 183.659C187.659 184.013 187.104 183.948 187.104 183.599C187.104 183.37 187.104 183.133 187.128 182.918C185.86 181.348 184.019 180.351 182.533 178.985C181.336 177.911 180.464 176.522 180.017 174.978C178.786 170.732 179.942 166.226 178.455 161.99C177.179 158.337 174.886 155.159 172.947 151.85C170.897 148.35 169.387 144.669 169.219 140.568C169.098 137.427 169.471 133.243 171.862 130.894C174.397 128.396 177.542 130.265 179.481 132.492C185.11 138.951 187.715 147.116 188.768 155.457C189.346 160.08 189.952 164.726 189.812 169.386C189.722 171.877 189.385 174.352 188.805 176.776Z" fill="#004AAD"/>
<path d="M187.683 184.955C187.988 180.596 187.937 176.22 187.529 171.87C187.529 171.87 187.529 171.842 187.529 171.823C187.603 168.286 187.883 164.763 187.743 161.222C187.573 157.392 187.052 153.586 186.187 149.851C186.187 149.805 186.108 149.814 186.117 149.851C186.815 153.524 187.233 157.244 187.366 160.979C187.44 162.98 187.425 164.979 187.319 166.977C187.287 167.625 187.226 168.282 187.179 168.934C185.709 159.001 182.117 149.502 176.648 141.081C176.573 140.965 176.368 141.081 176.443 141.207C180.355 147.605 183.254 154.571 185.036 161.856C182.328 156.841 178.242 152.717 175.208 147.899C175.208 147.876 175.147 147.899 175.161 147.927C177.887 153.29 182.389 157.522 185.26 162.806C185.753 164.959 186.164 167.135 186.466 169.33C186.87 172.33 187.088 175.353 187.119 178.38C185.469 175.3 183.759 172.354 182.412 169.092C182.375 169.009 182.249 169.092 182.282 169.153C183.428 172.536 184.971 176.185 187.128 179.07C187.128 181.213 187.069 183.355 186.951 185.496C186.611 191.209 185.637 196.847 185.185 202.542C185.183 202.559 185.185 202.576 185.19 202.593C185.194 202.609 185.202 202.625 185.213 202.638C185.224 202.652 185.237 202.663 185.253 202.671C185.268 202.679 185.284 202.685 185.301 202.686C185.319 202.688 185.336 202.687 185.352 202.682C185.369 202.677 185.384 202.669 185.398 202.658C185.411 202.647 185.422 202.634 185.431 202.619C185.439 202.604 185.444 202.587 185.446 202.57C186.59 196.756 187.337 190.871 187.683 184.955Z" fill="#263238"/>
<path d="M181.615 140.9C181.61 140.894 181.603 140.889 181.595 140.888C181.588 140.886 181.58 140.887 181.572 140.89C181.565 140.893 181.559 140.898 181.555 140.905C181.551 140.912 181.549 140.92 181.55 140.927C182.594 143.812 183.186 146.734 183.941 149.693C183.943 149.707 183.948 149.72 183.956 149.733C183.963 149.745 183.973 149.755 183.985 149.763C183.997 149.771 184.01 149.777 184.024 149.78C184.038 149.784 184.052 149.784 184.066 149.781C184.08 149.779 184.094 149.774 184.106 149.766C184.118 149.759 184.128 149.749 184.137 149.737C184.145 149.725 184.151 149.712 184.154 149.698C184.157 149.684 184.157 149.67 184.155 149.656C183.847 146.655 182.776 143.663 181.615 140.9Z" fill="#263238"/>
<path d="M208.112 152.992C207.416 154.684 206.614 156.331 205.712 157.922C203.848 161.333 201.872 164.446 201.518 168.43C201.36 170.206 201.304 171.991 200.763 173.696C200.27 175.166 199.564 176.556 198.666 177.82C196.63 180.789 194.085 183.342 192.198 186.423C190.233 189.632 188.782 193.129 187.897 196.787C187.85 196.987 187.538 196.931 187.585 196.731C187.587 196.717 187.587 196.703 187.585 196.689C187.581 196.675 187.581 196.661 187.585 196.647C187.286 188.128 187.967 179.54 190.567 171.38C191.714 167.79 193.093 164.278 194.696 160.867C196.094 157.908 197.823 155.066 200.288 152.852C201.872 151.426 205.311 148.719 207.571 150.149C208.62 150.839 208.541 151.915 208.112 152.992Z" fill="#004AAD"/>
<path d="M199.551 172.303C198.05 174.773 196.395 177.146 194.598 179.41C193.773 180.486 192.939 181.558 192.114 182.634C191.727 183.142 191.289 183.65 190.935 184.2C191.159 183.301 191.378 182.406 191.606 181.511C192.706 177.206 193.764 172.862 195.399 168.724C196.998 164.679 199.127 160.882 201.313 157.13C201.373 157.032 201.21 156.958 201.154 157.056C199.356 160.015 197.529 162.974 196.028 166.091C195.185 167.843 194.452 169.645 193.833 171.488C194.527 167.604 195.497 163.774 196.737 160.029C196.737 159.996 196.699 159.973 196.685 160.005C195.06 163.796 194.043 167.819 193.67 171.926C193.301 173.032 192.959 174.149 192.645 175.276C191.303 180.039 190.124 184.857 189.034 189.69C189.016 186.513 189.29 183.342 189.854 180.216C189.854 180.141 189.761 180.127 189.742 180.216C188.911 183.475 188.634 186.851 188.922 190.202C188.506 192.017 188.105 193.856 187.72 195.72C186.881 199.648 185.856 203.642 185.362 207.631C185.36 207.641 185.36 207.652 185.362 207.662C185.365 207.672 185.369 207.682 185.375 207.691C185.387 207.708 185.406 207.72 185.427 207.724C185.448 207.728 185.469 207.723 185.487 207.711C185.504 207.698 185.516 207.68 185.52 207.659C186.103 205.51 186.452 203.283 186.918 201.107C187.384 198.93 187.887 196.745 188.395 194.583C189.136 191.414 189.914 188.254 190.702 185.095C191.229 183.939 192.249 182.909 193.032 181.94C193.871 180.873 194.71 179.806 195.525 178.725C197.057 176.722 198.428 174.601 199.626 172.382C199.631 172.378 199.635 172.372 199.638 172.365C199.641 172.359 199.643 172.352 199.643 172.344C199.643 172.337 199.642 172.33 199.639 172.324C199.637 172.317 199.633 172.311 199.628 172.306C199.623 172.3 199.617 172.296 199.611 172.293C199.604 172.29 199.597 172.289 199.59 172.288C199.583 172.288 199.576 172.289 199.569 172.292C199.563 172.294 199.556 172.298 199.551 172.303Z" fill="#263238"/>
<path d="M199.915 168.659C198.04 171.052 196.416 173.632 195.068 176.357C195.068 176.394 195.106 176.432 195.129 176.394C196.76 173.841 198.363 171.268 199.989 168.71C200.017 168.664 199.947 168.622 199.915 168.659Z" fill="#263238"/>
<path d="M163.646 161.067C164.751 162.969 166.013 165.261 165.538 167.535C165.235 168.98 164.182 170.154 163.991 171.627C163.562 174.889 166.787 177.033 169.15 178.57C175.003 182.41 183.022 185.831 184.09 193.669C184.127 193.948 184.607 193.878 184.556 193.604C184.557 193.586 184.557 193.569 184.556 193.552C184.556 193.552 184.584 193.529 184.584 193.506C185.352 189.548 185.316 185.477 184.476 181.534C183.605 177.494 181.839 173.864 179.76 170.318C176.237 164.311 172.509 158.16 167.178 153.542C165.701 152.269 162.686 149.981 161.512 152.852C160.389 155.643 162.295 158.751 163.646 161.067Z" fill="#004AAD"/>
<path d="M169.001 173.817C172.882 178.011 179.048 180.369 182.384 185.071C180.408 177.862 177.132 171.38 172.099 165.75C172.079 165.721 172.069 165.685 172.072 165.649C172.075 165.612 172.091 165.579 172.116 165.553C172.142 165.527 172.176 165.511 172.212 165.508C172.248 165.505 172.284 165.515 172.314 165.536C175.877 169.007 178.727 173.142 180.702 177.708C179.792 174.515 178.591 171.413 177.114 168.439C177.058 168.327 177.221 168.225 177.286 168.337C179.127 171.578 180.444 175.09 181.186 178.743C185.586 189.395 185.991 201.884 185.073 213.11C185.073 213.268 184.812 213.273 184.817 213.11C185.073 204.256 184.928 195.262 182.808 186.623L182.668 186.087C179.038 181.021 172.882 178.677 168.949 173.868C168.898 173.817 168.959 173.756 169.001 173.817Z" fill="#263238"/>
<path d="M168.101 170.196C170.138 172.06 172.141 173.976 174.159 175.84C174.182 175.84 174.159 175.895 174.131 175.877C171.824 174.321 169.745 172.45 167.957 170.317C167.915 170.234 168.022 170.117 168.101 170.196Z" fill="#263238"/>
<path d="M167.794 162.101C169.595 165.058 171.633 167.863 173.889 170.489C173.917 170.526 173.889 170.573 173.838 170.54C171.303 168.136 169.216 165.301 167.673 162.166C167.64 162.092 167.738 162.031 167.794 162.101Z" fill="#263238"/>
<path d="M194.785 197.029H176.946L179.351 221.024H192.035L194.785 197.029Z" fill="#455A64"/>
<path d="M176.946 197.029L177.328 200.813L194.454 199.914L194.785 197.029H176.946Z" fill="#37474F"/>
<path d="M195.977 194.588H175.753V199.234H195.977V194.588Z" fill="#455A64"/>
<path d="M127.019 220.851C125.709 221.271 88.3083 220.851 86.8917 219.919C86.3558 219.575 86.0995 214.122 85.9597 207.529C85.9317 206.107 85.9597 184.434 85.9597 184.434L109.619 184.69L110.085 207.729C110.085 207.729 124.33 214.295 125.775 215.465C127.219 216.634 128.333 220.418 127.019 220.851Z" fill="#F7A9A0"/>
<path d="M86.8911 219.953C88.2891 220.885 125.704 221.29 127.023 220.885C128.342 220.479 127.219 216.691 125.779 215.516C124.982 214.827 120.261 212.543 116.216 210.633C120.485 212.739 124.357 216.327 105.545 214.328C100.699 213.82 94.361 212.93 86.1035 211.555C86.2433 216.225 86.4623 219.659 86.8911 219.953Z" fill="#263238"/>
<path d="M116.194 210.632C116.194 210.632 109.67 208.768 105.522 214.328L116.194 210.632Z" fill="#263238"/>
<path d="M84.5195 206.979H111.608C111.608 206.979 113.379 204.229 113.076 199.877C112.2 187.211 108.812 162.401 108.621 161.129C106.655 147.983 99.9628 105.451 99.9628 105.451L75.6143 105.591C75.6143 105.591 85.4935 157.401 85.5028 160.658C85.5028 169.419 83.5456 189.313 83.2473 200.007C83.1262 204.462 84.5195 206.979 84.5195 206.979Z" fill="#455A64"/>
<path opacity="0.1" d="M85.5028 160.657C85.5028 161.664 85.5028 162.806 85.5028 164.069L99.3243 105.455L75.6143 105.59C75.6143 105.59 85.4935 157.4 85.5028 160.657Z" fill="black"/>
<path d="M46.1028 218.587C45.031 217.725 24.7786 186.279 24.7646 184.592C24.7646 183.954 29.1637 180.738 34.6019 177.001C35.7716 176.195 53.8757 164.279 53.8757 164.279L66.672 184.173L47.6965 197.221C47.6965 197.221 50.0638 212.725 49.882 214.579C49.7003 216.434 47.1792 219.449 46.1028 218.587Z" fill="#F7A9A0"/>
<path d="M24.7598 184.593C24.7598 186.28 45.0261 217.725 46.1072 218.611C47.1883 219.496 49.7141 216.462 49.9005 214.612C49.9983 213.597 49.3226 208.396 48.6982 203.95C49.2853 208.671 48.4232 213.881 39.7323 197.077C37.4862 192.757 34.7322 186.965 31.3443 179.322C27.5278 181.978 24.7644 184.071 24.7598 184.593Z" fill="#263238"/>
<path d="M48.6799 203.916C48.6799 203.916 46.6342 197.434 39.7188 197.043L48.6799 203.916Z" fill="#263238"/>
<path d="M35.2871 174.927L50.5113 198.926C50.5113 198.926 55.3158 199.252 59.0811 196.307C67.9723 189.354 81.025 174.512 82.9076 168.543C86.3467 157.611 90.6805 123.807 90.6805 123.807L94.8419 123.001C96.2725 121.561 98.5187 105.451 98.5187 105.451L69.5241 105.633C69.5241 105.633 64.2397 117.954 66.7281 129.166C66.7281 129.166 63.1772 150.504 61.6907 157.154C61.3645 158.603 48.2652 163.785 40.5669 168.557C38.1321 170.016 36.2692 172.264 35.2871 174.927Z" fill="#455A64"/>
<path d="M84.534 125.313C86.592 124.45 88.7242 123.776 90.9042 123.3C93.1503 122.806 95.4337 122.549 97.7078 122.232C97.8196 122.232 97.8616 122.382 97.7497 122.4C95.5409 122.829 93.374 123.449 91.1931 123.989C89.0122 124.53 86.8174 125.014 84.6039 125.443C84.506 125.457 84.4547 125.355 84.534 125.313Z" fill="#263238"/>
<path d="M91.7424 113.289C91.8728 110.959 92.0686 108.662 92.3249 106.369C92.3249 106.347 92.3337 106.325 92.3494 106.31C92.3652 106.294 92.3865 106.285 92.4087 106.285C92.431 106.285 92.4523 106.294 92.4681 106.31C92.4838 106.325 92.4926 106.347 92.4926 106.369C92.5392 108.443 92.5159 110.521 92.4926 112.595C92.4926 113.625 92.432 114.659 92.3948 115.689C92.3668 116.379 92.1105 118.443 93.2196 118.401C94.2494 118.364 94.4638 117.031 94.6176 116.248C94.8226 115.181 94.9857 114.109 95.1162 113.028C95.3678 110.927 95.461 108.806 95.5822 106.691C95.5822 106.597 95.7453 106.574 95.7546 106.691C95.9713 108.65 95.9901 110.627 95.8105 112.59C95.7329 113.581 95.621 114.572 95.475 115.563C95.4199 116.393 95.2343 117.209 94.9251 117.982C94.7666 118.288 94.5403 118.555 94.2633 118.761C93.9863 118.967 93.666 119.107 93.3268 119.17C93.329 119.196 93.329 119.223 93.3268 119.249C93.3268 119.412 93.3268 119.58 93.3268 119.743C93.3268 120.111 93.3268 120.48 93.2895 120.848C93.2522 121.216 93.2336 121.556 93.2056 121.91C93.1885 122.263 93.1338 122.613 93.0425 122.954C93.0366 122.972 93.0253 122.987 93.0103 122.998C92.9952 123.008 92.9771 123.014 92.9586 123.014C92.9401 123.014 92.9221 123.008 92.907 122.998C92.892 122.987 92.8807 122.972 92.8747 122.954C92.8023 122.622 92.7648 122.283 92.7629 121.943C92.7629 121.575 92.7349 121.206 92.7256 120.838C92.7163 120.47 92.7256 120.125 92.7256 119.771C92.7256 119.594 92.7256 119.412 92.7256 119.24C92.7329 119.213 92.7422 119.186 92.7536 119.161C92.5745 119.12 92.4062 119.042 92.2599 118.931C92.1136 118.82 91.9927 118.679 91.9055 118.518C91.5187 117.861 91.542 116.975 91.556 116.239C91.6119 115.246 91.6864 114.268 91.7424 113.289Z" fill="#263238"/>
<path d="M70.9494 116.966C71.5644 117.112 72.1866 117.225 72.8134 117.306C73.4856 117.343 74.1595 117.278 74.8126 117.115C76.1846 116.787 77.4412 116.091 78.4474 115.102C79.4882 114.035 80.3 112.766 80.8333 111.374C81.112 110.703 81.3516 110.017 81.5509 109.319C81.7793 108.527 82.0496 107.734 82.236 106.928C82.2593 106.835 82.4177 106.863 82.4084 106.961C82.3525 107.427 82.3804 107.935 82.3152 108.419C82.2639 108.811 82.1847 109.202 82.1055 109.589C81.9371 110.42 81.7002 111.235 81.3972 112.026C80.8295 113.536 79.9389 114.904 78.7876 116.034C77.6981 117.081 76.3141 117.768 74.8219 118.005C73.573 118.191 71.8115 118.052 70.8842 117.073C70.8656 117.04 70.8982 116.966 70.9494 116.966Z" fill="#263238"/>
<path d="M93.788 45.0625C101.645 48.413 103.448 68.6933 103.005 83.4562C102.94 85.7023 82.7345 89.5142 72.9159 82.5242C71.3315 81.3965 73.4238 53.4505 77.2776 48.2686C82.0495 41.8424 88.923 42.9888 93.788 45.0625Z" fill="#263238"/>
<path d="M94.0027 45.2021C98.1128 47.1826 99.6506 50.7009 101.207 54.6945C104.325 62.6911 104.311 80.3245 103.9 83.2417C103.9 83.2652 103.891 83.2877 103.875 83.3043C103.858 83.3209 103.835 83.3302 103.812 83.3302C103.788 83.3302 103.766 83.3209 103.749 83.3043C103.733 83.2877 103.723 83.2652 103.723 83.2417C103.775 77.6497 103.584 51.0877 93.8442 45.4957C93.6998 45.4025 93.8256 45.1276 94.0027 45.2021Z" fill="#263238"/>
<path d="M83.765 43.8047C83.7976 43.8047 83.8163 43.8466 83.765 43.8559C78.5458 45.7665 72.581 51.4331 71.9053 81.6718C71.9053 81.8023 71.7003 81.7837 71.7003 81.6718C71.7981 75.5672 70.0646 46.1067 83.765 43.8047Z" fill="#263238"/>
<path d="M89.5854 82.7112C99.5997 84.7523 111.31 84.2537 114.372 81.6114C117.914 78.5545 122.373 65.8513 124.568 56.2797C125.034 54.1873 108.985 51.7688 108.803 53.2693C108.183 58.3953 104.045 71.0426 103.607 71.7416C103.104 72.5431 95.1727 74.7286 89.8184 75.6233C81.3791 77.0307 82.4882 81.2666 89.5854 82.7112Z" fill="#F7A9A0"/>
<path d="M111.025 84.1406L102.866 71.8242C102.866 71.8242 95.2418 73.5018 87.5155 75.8784C79.7893 78.255 81.6812 81.5496 91.6257 83.6932C101.57 85.8368 111.025 84.1406 111.025 84.1406Z" fill="#004AAD"/>
<path d="M106.375 83.1808C103.234 78.9169 100.653 74.0239 100.136 73.1991C100.112 73.1572 100.182 73.1292 100.205 73.1711C100.671 74.0006 104.292 79.3223 106.45 83.1529C106.478 83.1948 106.403 83.2228 106.375 83.1808Z" fill="#263238"/>
<path opacity="0.1" d="M98.192 84.6114C95.9834 84.4484 93.7882 84.137 91.6214 83.6794C81.6816 81.5544 79.785 78.2412 87.5159 75.8646C88.3081 75.6176 89.1096 75.3986 89.8972 75.1562L98.192 84.6114Z" fill="black"/>
<path d="M112.069 55.92C111.943 54.2051 111.664 44.6615 111.962 42.406C112.507 38.2866 113.984 34.1485 115.718 34.018C117.116 33.8969 117.479 36.348 117.479 36.348C117.479 36.348 118.728 33.8549 120.443 34.2464C122.158 34.6378 121.375 37.5084 121.375 37.5084C121.375 37.5084 122.843 35.0432 124.525 35.5605C126.208 36.0777 124.949 38.8225 124.949 38.8225C124.949 38.8225 126.189 36.4925 127.396 37.5084C128.85 38.72 126.082 42.7322 125.681 45.202C125.62 45.5795 125.611 51.5163 124.917 55.3422C124.671 56.5365 124.1 57.6397 123.267 58.5296L112.069 55.92Z" fill="#F7A9A0"/>
<path d="M125.164 38.7941C123.137 41.7485 122.764 43.3935 122.629 46.9211C122.629 46.9864 122.522 47.0004 122.517 46.9211C122.336 43.4588 122.517 41.3291 125.029 38.6823C125.15 38.5564 125.262 38.6776 125.164 38.7941Z" fill="#263238"/>
<path d="M121.548 37.3828C119.982 40.7752 119.684 42.5833 119.596 46.288C119.596 46.3393 119.502 46.3439 119.502 46.288C119.307 42.6439 119.353 40.5143 121.366 37.3268C121.455 37.1824 121.618 37.2243 121.548 37.3828Z" fill="#263238"/>
<path d="M117.466 36.4604C116.277 39.8901 115.942 41.8706 116.389 45.4682C116.392 45.4855 116.388 45.5033 116.378 45.5177C116.368 45.5321 116.353 45.542 116.336 45.5451C116.318 45.5481 116.301 45.5442 116.286 45.5342C116.272 45.5241 116.262 45.5088 116.259 45.4915C115.443 41.866 115.844 39.3962 117.359 36.4371C117.466 36.2367 117.55 36.246 117.466 36.4604Z" fill="#263238"/>
<path d="M110.308 56.2833C110.308 56.2833 108.029 52.4109 107.405 50.4863C106.78 48.5617 107.088 40.5465 108.826 40.5139C111.067 40.4766 111.799 45.1366 111.86 47.4713C111.86 47.4713 117.046 47.3688 118.295 50.6028C119.544 53.8368 110.308 56.2833 110.308 56.2833Z" fill="#F7A9A0"/>
<path d="M111.729 45.7988C111.832 46.3487 111.911 46.9032 111.99 47.4624L111.869 47.3413C114.311 47.436 116.642 48.3899 118.449 50.0348C119.032 50.5798 119.532 51.2079 119.931 51.8988C117.845 49.5485 114.987 48.0227 111.874 47.5976H111.753C111.753 47.0011 111.753 46.4093 111.753 45.8128L111.729 45.7988Z" fill="#263238"/>
<path d="M67.3057 109.659L101.71 109.492C101.832 109.389 96.1744 84.5466 92.3345 77.1372C91.3559 75.2732 86.5468 72.5984 82.5485 75.5389C73.5687 82.17 67.3057 109.659 67.3057 109.659Z" fill="#004AAD"/>
<path opacity="0.1" d="M101.472 108.266L67.585 108.509C67.6269 108.327 67.6782 108.122 67.7341 107.898L101.337 107.656C101.389 107.88 101.435 108.08 101.472 108.266ZM100.741 105.037L68.4238 105.27C68.3632 105.48 68.3119 105.685 68.256 105.88L100.876 105.652L100.741 105.037ZM100.116 102.423L69.16 102.642C69.0995 102.851 69.0389 103.052 68.983 103.252L100.266 103.033C100.224 102.833 100.168 102.632 100.116 102.423ZM99.4687 99.8038L69.9429 100.013C69.8823 100.218 69.8171 100.419 69.7565 100.624L99.6225 100.414L99.4687 99.8038ZM98.8256 97.1895L70.805 97.3852C70.7351 97.5903 70.6699 97.7906 70.6046 97.9957L98.984 97.8C98.9095 97.5996 98.8536 97.3945 98.8256 97.1895ZM98.1359 94.5706L71.6997 94.7616C71.6252 94.962 71.5553 95.1671 71.4854 95.3721L98.299 95.181C98.2198 94.976 98.1685 94.771 98.1126 94.5706H98.1359ZM97.4229 91.9517L72.655 92.1287L72.4314 92.7392L97.5954 92.5621L97.4229 91.9517ZM96.6773 89.3374L73.6989 89.5005L73.4472 90.111L96.8544 89.9479C96.7752 89.7428 96.7146 89.5378 96.654 89.3374H96.6773ZM95.8991 86.7231L74.8406 86.8723C74.7474 87.0726 74.6542 87.2777 74.5656 87.4827L96.0855 87.3289C96.0016 87.1425 95.9364 86.9235 95.8758 86.7231H95.8991ZM95.0743 84.1089L76.1081 84.2394C76.0056 84.4444 75.8984 84.6494 75.8005 84.8545L95.27 84.7147L95.0743 84.1089ZM94.1656 81.49L77.548 81.6111C77.4269 81.8115 77.3057 82.0165 77.1892 82.2216L94.3846 82.1004C94.2961 81.8907 94.2262 81.6903 94.1656 81.49ZM93.1497 78.8757L79.2862 78.9736C79.1371 79.1739 78.9926 79.379 78.8482 79.5887L93.4014 79.4862C93.3082 79.2765 93.2336 79.0714 93.1357 78.8757H93.1497ZM91.6725 76.2661L81.6162 76.336C81.4019 76.5271 81.1922 76.7321 80.9825 76.9511L92.1665 76.8719C92.0177 76.6536 91.8475 76.4507 91.6585 76.2661H91.6725ZM85.5539 74.2949H87.4179C86.7949 74.209 86.163 74.209 85.5399 74.2949H85.5539Z" fill="black"/>
<path d="M78.0519 77.7524C74.6734 80.362 61.9656 91.0008 61.0802 94.2581C59.3048 100.824 59.37 112.344 59.4492 112.898C59.7195 114.79 74.0257 114.939 73.9791 112.898C73.8719 108.527 73.8253 98.345 73.7321 96.8211C73.6762 95.7959 79.1051 88.4331 83.1313 82.021C87.1576 75.6088 84.9301 72.4307 78.0519 77.7524Z" fill="#F7A9A0"/>
<path d="M73.4845 111.719C73.4845 111.719 76.7465 116.523 77.6785 119.58C78.932 123.676 78.3309 127.726 77.9721 129.408C77.2311 132.917 73.0092 140.89 70.5161 140.075C68.2467 139.339 72.9719 131.407 72.9719 131.407C72.9719 131.407 69.4862 140.289 66.9139 138.901C64.3416 137.512 70.3483 128.616 70.3483 128.616C70.3483 128.616 66.5644 137.661 64.1412 135.806C62.3098 134.408 67.296 126.044 67.296 126.044C67.296 126.044 63.9921 133.798 62.0442 132.437C59.8959 130.932 64.0154 122.921 64.0154 122.921C59.649 118.634 58.9639 114.035 59.5464 111.859C59.7189 111.206 73.4845 111.719 73.4845 111.719Z" fill="#F7A9A0"/>
<path d="M74.3698 128.411C73.997 129.469 73.6288 130.541 73.1628 131.566C72.6968 132.591 72.1982 133.593 71.639 134.567C70.935 135.853 70.0877 137.055 69.1133 138.151C70.7023 136.082 72.4219 132.447 72.8879 131.426C73.3539 130.406 73.8665 129.409 74.3278 128.393C74.3418 128.365 74.3744 128.383 74.3698 128.411Z" fill="#263238"/>
<path d="M70.7069 126.668C70.1757 127.996 69.6957 129.338 69.1039 130.648C68.512 131.957 67.841 133.132 67.1653 134.376C67.114 134.469 67.0768 134.413 67.128 134.311C67.7525 133.029 68.2325 131.794 68.8429 130.503C69.4534 129.213 70.1151 127.945 70.679 126.636C70.6883 126.631 70.7162 126.645 70.7069 126.668Z" fill="#263238"/>
<path d="M67.837 124.604C67.0689 126.665 66.0914 128.642 64.9198 130.503C64.8639 130.597 64.8266 130.503 64.8778 130.415C65.8844 128.472 66.6906 126.957 67.7671 124.581C67.781 124.543 67.8509 124.562 67.837 124.604Z" fill="#263238"/>
<path d="M61.7695 90.81L76.6396 94.3703C76.6396 94.3703 80.568 87.8463 84.5989 80.8143C88.6298 73.7824 84.6828 72.2073 76.2621 77.9065C70.8919 81.5607 66.0201 85.8983 61.7695 90.81Z" fill="#004AAD"/>
<path d="M65.4089 88.4182C70.6514 89.1685 75.9545 90.7482 76.9051 90.9672C76.9517 90.9672 76.9051 91.0511 76.8771 91.0371C75.9451 90.7855 69.6215 89.6391 65.3763 88.4974C65.3297 88.4834 65.3576 88.4135 65.4089 88.4182Z" fill="#263238"/>
<path d="M75.1064 94.0055C75.6284 94.0754 76.1456 94.1733 76.6629 94.2619L76.5417 94.3085C77.8698 91.9179 79.2492 89.5552 80.7357 87.2485C81.2017 86.475 81.7143 85.7061 82.2316 84.9512C81.8588 85.7853 81.4487 86.6055 81.02 87.4117C79.7205 89.8586 78.2781 92.2269 76.7002 94.5042C76.1736 94.3364 75.6423 94.1873 75.1204 94.0055H75.1064Z" fill="#263238"/>
<path d="M79.9766 88.7402C80.6403 87.8506 81.3912 87.0295 82.218 86.2891C81.7636 87.3322 80.9751 88.1946 79.9766 88.7402Z" fill="#263238"/>
<path d="M85.1064 75.0255C85.4792 76.0227 88.3684 81.0416 91.3974 80.8552C92.3853 80.7899 92.2874 75.3657 92.2874 75.3657L92.3713 74.9649L93.5456 69.3356L85.9312 64.6523C85.9312 64.6523 84.6916 73.9397 85.1064 75.0255Z" fill="#F7A9A0"/>
<path d="M85.5215 67.5048C85.6892 68.1153 85.9036 68.7677 86.1739 69.476C87.8701 73.8518 90.5403 74.9981 92.3158 75.2451L92.3717 74.9702L93.546 69.3455L85.9316 64.6855C85.9316 64.6855 85.7405 65.8692 85.5215 67.5048Z" fill="#263238"/>
<path d="M103.248 56.5587C106.753 68.5768 99.9492 72.0346 97.3536 72.7848C95.0003 73.4652 86.9012 75.4923 82.176 63.8982C77.4507 52.3041 81.9336 46.8799 87.232 45.0345C92.5305 43.1892 99.7581 44.5406 103.248 56.5587Z" fill="#F7A9A0"/>
<path d="M83.1965 64.1496C84.5152 63.7162 87.041 59.1168 85.4519 52.6115C85.4519 52.6115 86.4771 58.553 86.2627 59.5176C86.0484 60.4822 87.6607 56.9313 86.4631 51.6701C88.3734 52.4578 90.362 53.0405 92.3953 53.4083C94.8325 53.7438 96.6452 53.5295 96.7757 53.3058C96.9062 53.0821 93.0477 52.029 91.7522 51.1529C91.7522 51.1529 99.0638 53.7904 102.149 53.2312C102.503 53.166 100.564 46.3904 95.0934 44.559C89.6226 42.7276 83.5972 46.1341 82.1107 48.5806C82.1107 48.5806 79.8552 49.5126 78.2196 53.646C76.5839 57.7794 81.7752 64.611 83.1965 64.1496Z" fill="#263238"/>
<path d="M86.4206 50.962C86.36 50.8222 86.141 50.8874 86.1923 51.0365C87.0637 53.4411 87.1895 55.6965 87.0544 58.2362C87.0544 58.2689 87.115 58.2782 87.1196 58.2362C87.4971 55.7012 87.5157 53.3293 86.4206 50.962Z" fill="#263238"/>
<path d="M96.0808 53.8788C92.4273 54.0885 89.1513 53.506 86.2621 51.1433C86.2563 51.1375 86.2494 51.1329 86.2418 51.1298C86.2342 51.1266 86.2261 51.125 86.2179 51.125C86.2097 51.125 86.2015 51.1266 86.1939 51.1298C86.1863 51.1329 86.1794 51.1375 86.1736 51.1433C86.1678 51.1492 86.1632 51.1561 86.16 51.1636C86.1569 51.1712 86.1553 51.1794 86.1553 51.1876C86.1553 51.1958 86.1569 51.204 86.16 51.2116C86.1632 51.2192 86.1678 51.2261 86.1736 51.2319C88.6807 53.93 92.5904 54.5265 96.0947 54.0279C96.1693 53.9999 96.1553 53.8741 96.0808 53.8788Z" fill="#263238"/>
<g opacity="0.1">
<path d="M87.9121 64.4059C87.9149 64.4561 87.8988 64.5056 87.8668 64.5444C87.8349 64.5833 87.7895 64.6087 87.7397 64.6156C87.6885 64.6195 87.6378 64.6031 87.5986 64.57C87.5594 64.5369 87.5347 64.4897 87.53 64.4385C87.5257 64.3879 87.5416 64.3375 87.5744 64.2987C87.6072 64.2598 87.6541 64.2355 87.7047 64.2312C87.7554 64.2268 87.8057 64.2428 87.8446 64.2756C87.8835 64.3084 87.9078 64.3552 87.9121 64.4059Z" fill="black"/>
<path d="M91.0946 63.5763C91.0974 63.6265 91.0813 63.6759 91.0493 63.7148C91.0174 63.7536 90.972 63.779 90.9222 63.786C90.871 63.7899 90.8203 63.7735 90.7811 63.7404C90.7419 63.7072 90.7172 63.66 90.7125 63.6089C90.7086 63.5589 90.7245 63.5094 90.7567 63.4711C90.789 63.4327 90.835 63.4086 90.8849 63.4039C90.9101 63.4006 90.9358 63.4026 90.9602 63.4096C90.9846 63.4167 91.0074 63.4286 91.027 63.4448C91.0467 63.4609 91.0628 63.4809 91.0744 63.5035C91.086 63.5262 91.0929 63.5509 91.0946 63.5763Z" fill="black"/>
<path d="M93.2992 63.3019C93.3028 63.3397 93.2951 63.3776 93.277 63.411C93.259 63.4443 93.2314 63.4715 93.1978 63.4892C93.1642 63.5068 93.1261 63.514 93.0884 63.5099C93.0507 63.5058 93.0151 63.4906 92.9861 63.4662C92.957 63.4418 92.9359 63.4093 92.9254 63.3728C92.9149 63.3364 92.9155 63.2977 92.9271 63.2615C92.9387 63.2254 92.9608 63.1936 92.9905 63.1701C93.0203 63.1466 93.0564 63.1324 93.0942 63.1295C93.1441 63.1256 93.1936 63.1415 93.232 63.1737C93.2703 63.206 93.2945 63.252 93.2992 63.3019Z" fill="black"/>
<path d="M94.385 64.7729C94.3874 64.798 94.3849 64.8234 94.3776 64.8475C94.3702 64.8716 94.3582 64.894 94.3422 64.9135C94.3262 64.933 94.3065 64.9491 94.2843 64.961C94.262 64.9728 94.2377 64.9802 94.2126 64.9826C94.1875 64.9851 94.1621 64.9826 94.138 64.9752C94.1139 64.9679 94.0915 64.9559 94.072 64.9399C94.0525 64.9238 94.0364 64.9042 94.0245 64.8819C94.0127 64.8597 94.0053 64.8353 94.0029 64.8102C93.9979 64.7595 94.0133 64.709 94.0456 64.6697C94.078 64.6303 94.1246 64.6055 94.1753 64.6005C94.226 64.5956 94.2765 64.611 94.3158 64.6433C94.3552 64.6756 94.38 64.7223 94.385 64.7729Z" fill="black"/>
<path d="M89.7018 65.6132C89.7039 65.6383 89.7011 65.6635 89.6935 65.6875C89.6858 65.7115 89.6736 65.7338 89.6573 65.7531C89.6411 65.7723 89.6213 65.7882 89.5989 65.7998C89.5765 65.8114 89.5521 65.8184 89.527 65.8206C89.5019 65.8227 89.4767 65.8199 89.4527 65.8123C89.4287 65.8046 89.4064 65.7924 89.3871 65.7761C89.3679 65.7599 89.352 65.74 89.3404 65.7177C89.3289 65.6953 89.3218 65.6709 89.3197 65.6458C89.3168 65.5956 89.333 65.5462 89.3649 65.5073C89.3969 65.4685 89.4423 65.443 89.4921 65.4361C89.5433 65.4322 89.5939 65.4486 89.6332 65.4817C89.6724 65.5149 89.697 65.5621 89.7018 65.6132Z" fill="black"/>
<path d="M92.2041 65.57C92.2062 65.5951 92.2034 65.6203 92.1958 65.6443C92.1882 65.6683 92.1759 65.6906 92.1597 65.7098C92.1434 65.7291 92.1236 65.745 92.1012 65.7566C92.0789 65.7681 92.0544 65.7752 92.0294 65.7773C92.0043 65.7795 91.979 65.7767 91.955 65.769C91.931 65.7614 91.9087 65.7491 91.8895 65.7329C91.8702 65.7167 91.8543 65.6968 91.8428 65.6745C91.8312 65.6521 91.8241 65.6277 91.822 65.6026C91.8177 65.5519 91.8336 65.5016 91.8664 65.4627C91.8992 65.4238 91.9461 65.3996 91.9967 65.3952C92.0474 65.3909 92.0977 65.4069 92.1366 65.4397C92.1755 65.4724 92.1998 65.5193 92.2041 65.57Z" fill="black"/>
<path d="M89.245 62.7792C89.2472 62.8043 89.2443 62.8296 89.2367 62.8536C89.2291 62.8776 89.2168 62.8998 89.2006 62.9191C89.1844 62.9383 89.1645 62.9542 89.1422 62.9658C89.1198 62.9774 89.0954 62.9844 89.0703 62.9866C89.0452 62.9887 89.0199 62.9859 88.9959 62.9783C88.9719 62.9707 88.9497 62.9584 88.9304 62.9421C88.9111 62.9259 88.8953 62.9061 88.8837 62.8837C88.8721 62.8613 88.865 62.8369 88.8629 62.8118C88.8589 62.7614 88.8747 62.7113 88.9068 62.6722C88.939 62.6331 88.985 62.608 89.0353 62.6021C89.0865 62.5982 89.1372 62.6146 89.1764 62.6477C89.2156 62.6809 89.2403 62.7281 89.245 62.7792Z" fill="black"/>
<path d="M100.359 62.4448C100.364 62.4955 100.348 62.546 100.316 62.5854C100.283 62.6247 100.237 62.6496 100.186 62.6545C100.136 62.6595 100.085 62.6441 100.046 62.6117C100.006 62.5794 99.9814 62.5328 99.9765 62.4821C99.974 62.457 99.9766 62.4317 99.9839 62.4076C99.9912 62.3834 100.003 62.361 100.019 62.3415C100.035 62.3221 100.055 62.3059 100.077 62.2941C100.099 62.2822 100.124 62.2748 100.149 62.2724C100.174 62.2699 100.199 62.2725 100.223 62.2798C100.248 62.2871 100.27 62.2992 100.289 62.3152C100.309 62.3312 100.325 62.3509 100.337 62.3731C100.349 62.3954 100.356 62.4197 100.359 62.4448Z" fill="black"/>
<path d="M103.019 61.2222C103.022 61.2473 103.02 61.2727 103.012 61.2969C103.005 61.321 102.993 61.3435 102.977 61.363C102.961 61.3825 102.941 61.3987 102.919 61.4105C102.897 61.4223 102.872 61.4296 102.847 61.4319C102.797 61.4348 102.747 61.4186 102.708 61.3866C102.67 61.3547 102.644 61.3093 102.637 61.2595C102.633 61.2083 102.65 61.1576 102.683 61.1184C102.716 61.0792 102.763 61.0546 102.814 61.0498C102.839 61.0472 102.864 61.0497 102.888 61.0571C102.912 61.0644 102.934 61.0765 102.953 61.0926C102.973 61.1086 102.988 61.1284 103 61.1507C103.011 61.173 103.018 61.1973 103.019 61.2222Z" fill="black"/>
<path d="M103.658 60.1558C103.661 60.1809 103.659 60.2063 103.651 60.2305C103.644 60.2547 103.632 60.2771 103.616 60.2966C103.6 60.3161 103.58 60.3323 103.558 60.3441C103.536 60.3559 103.511 60.3632 103.486 60.3655C103.435 60.3705 103.385 60.3551 103.345 60.3228C103.306 60.2904 103.281 60.2438 103.276 60.1931C103.271 60.1424 103.287 60.0919 103.319 60.0526C103.351 60.0132 103.398 59.9884 103.449 59.9834C103.474 59.9808 103.499 59.9833 103.523 59.9906C103.548 59.9979 103.57 60.0099 103.59 60.0259C103.609 60.0419 103.625 60.0617 103.637 60.084C103.649 60.1063 103.656 60.1307 103.658 60.1558Z" fill="black"/>
<path d="M102.424 62.8497C102.428 62.9004 102.412 62.9507 102.379 62.9896C102.347 63.0285 102.3 63.0528 102.249 63.0571C102.198 63.0614 102.148 63.0454 102.109 63.0127C102.07 62.9799 102.046 62.933 102.042 62.8823C102.038 62.8324 102.054 62.7829 102.086 62.7445C102.118 62.7062 102.164 62.682 102.214 62.6773C102.239 62.6741 102.265 62.676 102.289 62.6831C102.314 62.6901 102.336 62.7021 102.356 62.7182C102.376 62.7344 102.392 62.7543 102.404 62.777C102.415 62.7996 102.422 62.8243 102.424 62.8497Z" fill="black"/>
<path d="M103.738 62.3273C103.741 62.3525 103.739 62.3781 103.732 62.4026C103.725 62.427 103.713 62.4497 103.697 62.4694C103.681 62.489 103.661 62.5052 103.638 62.5168C103.616 62.5284 103.591 62.5353 103.565 62.537C103.54 62.5391 103.515 62.5363 103.491 62.5287C103.467 62.5211 103.445 62.5088 103.426 62.4926C103.406 62.4763 103.39 62.4565 103.379 62.4341C103.367 62.4118 103.36 62.3873 103.358 62.3622C103.356 62.3372 103.359 62.3119 103.366 62.2879C103.374 62.2639 103.386 62.2416 103.403 62.2224C103.419 62.2031 103.439 62.1872 103.461 62.1757C103.483 62.1641 103.508 62.157 103.533 62.1549C103.583 62.151 103.632 62.1669 103.671 62.1991C103.709 62.2314 103.733 62.2774 103.738 62.3273Z" fill="black"/>
<path d="M101.072 61.0465C101.074 61.0716 101.072 61.0969 101.064 61.1211C101.057 61.1453 101.045 61.1678 101.029 61.1873C101.013 61.2068 100.993 61.2229 100.971 61.2347C100.949 61.2465 100.924 61.2538 100.899 61.2562C100.848 61.2611 100.798 61.2457 100.759 61.2134C100.719 61.181 100.694 61.1344 100.689 61.0837C100.684 61.0331 100.7 60.9825 100.732 60.9432C100.764 60.9039 100.811 60.879 100.862 60.874C100.887 60.8715 100.912 60.8739 100.936 60.8812C100.961 60.8885 100.983 60.9005 101.003 60.9165C101.022 60.9326 101.038 60.9523 101.05 60.9746C101.062 60.9969 101.069 61.0213 101.072 61.0465Z" fill="black"/>
</g>
<path d="M100.373 56.2034C100.102 56.3034 99.8247 56.3874 99.5435 56.455C99.2656 56.5843 98.9529 56.6187 98.6535 56.5529C98.5666 56.512 98.4944 56.4453 98.4469 56.3619C98.3993 56.2785 98.3787 56.1824 98.3879 56.0869C98.4468 55.8993 98.5548 55.7309 98.7006 55.599C98.8464 55.4671 99.0248 55.3765 99.2173 55.3366C99.595 55.1899 100.014 55.1899 100.392 55.3366C100.478 55.3728 100.551 55.4341 100.602 55.5125C100.653 55.5909 100.679 55.6828 100.677 55.7763C100.675 55.8698 100.645 55.9605 100.591 56.0367C100.537 56.1128 100.461 56.1709 100.373 56.2034Z" fill="#263238"/>
<path d="M92.3713 58.9499C92.6369 58.8241 92.8652 58.6656 93.1169 58.5165C93.4028 58.3998 93.642 58.1917 93.7972 57.9247C93.8264 57.8313 93.8255 57.7311 93.7946 57.6382C93.7636 57.5454 93.7042 57.4646 93.6248 57.4074C93.4472 57.3232 93.2504 57.2878 93.0546 57.305C92.8588 57.3222 92.6712 57.3914 92.5111 57.5053C92.1492 57.6853 91.8681 57.9946 91.7235 58.3721C91.6909 58.4599 91.6855 58.5556 91.7081 58.6466C91.7306 58.7376 91.7802 58.8197 91.8501 58.8821C91.9201 58.9445 92.0072 58.9844 92.1002 58.9965C92.1932 59.0086 92.2877 58.9923 92.3713 58.9499Z" fill="#263238"/>
<path d="M95.6943 66.9459C95.9273 67.1136 96.1603 67.356 96.4771 67.3373C96.7899 67.2818 97.0881 67.1628 97.3532 66.9878C97.3812 66.9878 97.4091 66.9878 97.3952 67.0251C97.2995 67.2091 97.1559 67.3638 96.9795 67.4729C96.8032 67.582 96.6006 67.6414 96.3933 67.6449C96.2158 67.6225 96.0484 67.5496 95.9113 67.4347C95.7741 67.3199 95.6729 67.168 95.6197 66.9971C95.6011 66.9505 95.6616 66.9226 95.6943 66.9459Z" fill="#263238"/>
<path d="M98.5552 63.199C98.5552 63.199 98.9885 64.4106 99.1097 64.9978C99.1097 65.0537 98.9839 65.1096 98.7882 65.1609C98.3033 65.3606 97.7727 65.4228 97.2547 65.3406C96.7368 65.2584 96.2516 65.035 95.8524 64.6949C95.8459 64.69 95.8405 64.6839 95.8365 64.6769C95.8324 64.6699 95.8298 64.6622 95.8287 64.6542C95.8276 64.6462 95.8281 64.638 95.8302 64.6302C95.8322 64.6224 95.8358 64.6151 95.8407 64.6087C95.8456 64.6022 95.8517 64.5968 95.8587 64.5928C95.8657 64.5887 95.8734 64.5861 95.8814 64.585C95.8894 64.5839 95.8976 64.5844 95.9054 64.5865C95.9132 64.5885 95.9205 64.5921 95.9269 64.597C96.7833 64.9514 97.7312 65.0201 98.6297 64.7927C98.6297 64.6203 97.8189 62.719 97.9121 62.719C98.3175 62.719 99.0445 62.719 99.3101 62.719C99.0445 61.9222 98.187 59.7087 97.707 58.2641C97.6791 58.1709 97.8142 58.1103 97.8562 58.1942C98.6822 59.7798 99.4045 61.4173 100.018 63.0965C100.046 63.2456 98.8254 63.2503 98.5552 63.199Z" fill="#263238"/>
<path d="M98.6489 64.7188C98.4481 65.2794 98.1082 65.7797 97.661 66.1728C97.4081 66.3807 97.0974 66.506 96.771 66.5316C96.058 66.5735 95.839 65.977 95.7924 65.4225C95.7688 65.1271 95.7797 64.83 95.825 64.5371C96.7227 64.8977 97.7124 64.9614 98.6489 64.7188Z" fill="#263238"/>
<path d="M97.6606 66.1729C97.4077 66.3808 97.097 66.5061 96.7706 66.5317C96.0576 66.5736 95.8386 65.9771 95.792 65.4226C96.519 65.2828 97.3717 65.5298 97.6606 66.1729Z" fill="#FF99BA"/>
<path d="M93.2339 60.8512C93.1912 60.9404 93.1346 61.0222 93.0662 61.0935C93.0136 61.152 92.9487 61.1982 92.8762 61.2288C92.8037 61.2594 92.7254 61.2737 92.6468 61.2706C92.1575 61.2706 91.9058 60.7673 91.8359 60.2734C91.8359 60.2361 91.8359 60.2174 91.8732 60.2407C92.0969 60.4737 92.3392 60.7067 92.6281 60.6508C92.8192 60.6089 92.9543 60.4271 93.0941 60.2687C93.1181 60.4676 93.1651 60.6631 93.2339 60.8512Z" fill="#263238"/>
<path d="M93.0055 60.7435C92.9942 60.516 93.0424 60.2895 93.1453 60.0864C93.2075 59.9771 93.2918 59.8821 93.393 59.8075C93.4941 59.7328 93.6098 59.6802 93.7325 59.653C93.8584 59.6275 93.9884 59.632 94.1123 59.666C94.2361 59.7 94.3503 59.7626 94.4455 59.8487C94.6114 59.9991 94.7378 60.1879 94.8136 60.3986C94.8622 60.5224 94.8996 60.6503 94.9255 60.7807C94.9931 61.0515 94.9931 61.3348 94.9255 61.6056C94.8963 61.4077 94.8447 61.2139 94.7717 61.0277C94.7062 60.8576 94.6283 60.6925 94.5387 60.5338C94.3569 60.2122 94.0727 59.9699 93.821 60.0445C93.5694 60.119 93.355 60.3846 93.3271 60.7574C93.2901 61.1418 93.2901 61.5288 93.3271 61.9131C93.1327 61.5526 93.0227 61.1527 93.0055 60.7435Z" fill="#263238"/>
<path d="M100.746 58.9497C100.828 59.0048 100.92 59.0443 101.016 59.0662C101.094 59.0912 101.177 59.0979 101.258 59.0858C101.338 59.0737 101.415 59.043 101.482 58.9963C101.897 58.7307 101.851 58.1855 101.655 57.7288C101.655 57.6915 101.613 57.6822 101.604 57.7288C101.538 58.0457 101.445 58.3905 101.175 58.4791C100.974 58.5102 100.768 58.4811 100.583 58.3952C100.658 58.5734 100.713 58.7594 100.746 58.9497Z" fill="#263238"/>
<path d="M100.871 58.7445C100.758 58.5518 100.598 58.3914 100.405 58.2785C100.294 58.2194 100.171 58.1835 100.046 58.1731C99.9199 58.1627 99.7934 58.1779 99.6737 58.2179C99.5535 58.2612 99.4453 58.3324 99.3578 58.4255C99.2704 58.5186 99.2061 58.6311 99.1704 58.7538C99.1106 58.9693 99.1011 59.1957 99.1424 59.4155C99.1683 59.547 99.2041 59.6763 99.2496 59.8023C99.3385 60.0655 99.4868 60.3047 99.683 60.5013C99.6052 60.3173 99.5489 60.125 99.5152 59.9281C99.4818 59.7497 99.4615 59.569 99.4547 59.3875C99.4547 59.0147 99.5432 58.6699 99.8135 58.5953C100.084 58.5208 100.377 58.6419 100.606 58.9402C100.832 59.2537 101.028 59.5875 101.193 59.9374C101.18 59.5201 101.07 59.1116 100.871 58.7445Z" fill="#263238"/>
<path d="M84.3797 64.2666C84.3797 64.2666 80.936 60.9673 79.3842 62.2721C77.8324 63.5769 80.9593 68.7262 83.1541 69.0804C83.4324 69.145 83.7208 69.1526 84.002 69.1027C84.2833 69.0529 84.5515 68.9466 84.7906 68.7903C85.0296 68.6339 85.2345 68.4308 85.393 68.1932C85.5514 67.9555 85.6601 67.6882 85.7125 67.4075L84.3797 64.2666Z" fill="#F7A9A0"/>
<path d="M80.2926 63.7258C80.2852 63.7258 80.2781 63.7288 80.2728 63.734C80.2676 63.7393 80.2646 63.7464 80.2646 63.7538C80.2646 63.7612 80.2676 63.7683 80.2728 63.7736C80.2781 63.7788 80.2852 63.7818 80.2926 63.7818C81.8444 64.0753 82.8603 65.2543 83.6618 66.5265C83.1306 66.0605 82.4921 65.9067 81.8863 66.5545C81.8537 66.5871 81.8863 66.6383 81.9376 66.6244C82.1731 66.4931 82.4435 66.4383 82.7115 66.4675C82.9795 66.4968 83.2318 66.6086 83.4334 66.7875C83.7669 67.0897 84.0682 67.4254 84.3328 67.7894C84.426 67.9059 84.645 67.7894 84.5658 67.6542V67.6216C84.221 65.7902 82.2917 63.5208 80.2926 63.7258Z" fill="#263238"/>
<path d="M156.48 80.3485C158.181 87.0542 161.21 94.5288 164.141 103.415C167.403 113.332 171.434 122.876 172.179 124.996C173.111 127.722 185.805 117.633 184.878 115.881C184.286 114.758 165.147 82.1053 161.61 77.203C157.542 71.583 155.212 75.4089 156.48 80.3485Z" fill="#FFC4C0"/>
<path d="M183.731 114.072C184.822 115.47 190.535 123.336 191.569 125.396C193.471 129.185 194.598 133.523 193.224 134.646C192.129 135.541 190.404 133.691 190.404 133.691C190.404 133.691 190.777 136.51 189.109 137.163C187.441 137.815 186.434 134.944 186.434 134.944C186.434 134.944 186.606 137.866 184.896 138.397C183.186 138.929 182.655 135.872 182.655 135.872C182.655 135.872 182.939 138.537 181.345 138.383C179.425 138.192 179.458 133.225 178.377 130.927C178.214 130.578 172.585 125.564 170.972 121.943C170.518 121.02 170.264 120.012 170.227 118.984L183.731 114.072Z" fill="#FFC4C0"/>
<path d="M182.613 135.834C181.89 132.53 181.312 131.141 179.453 128.173C179.416 128.112 179.57 128.075 179.611 128.131C181.634 130.759 182.477 132.507 182.752 135.843C182.766 136.006 182.65 135.992 182.613 135.834Z" fill="#263238"/>
<path d="M186.332 134.967C185.702 131.211 184.896 129.524 182.865 126.336C182.837 126.294 182.911 126.239 182.944 126.28C185.199 129.244 186.383 131.066 186.513 134.906C186.518 135.083 186.36 135.139 186.332 134.967Z" fill="#263238"/>
<path d="M190.283 133.593C189.552 129.967 188.825 128.052 186.555 125.121C186.548 125.107 186.546 125.091 186.549 125.076C186.552 125.06 186.56 125.047 186.572 125.037C186.584 125.026 186.599 125.02 186.614 125.02C186.63 125.019 186.645 125.023 186.658 125.032C189.249 127.795 190.176 130.158 190.386 133.56C190.404 133.793 190.325 133.821 190.283 133.593Z" fill="#263238"/>
<path d="M171.084 120.572C171.084 120.572 170.651 125.134 170.907 127.18C171.164 129.226 174.906 136.5 176.523 135.782C178.61 134.85 177.277 130.223 176.327 128.042C176.327 128.042 181.159 125.898 180.917 122.371C180.675 118.843 171.084 120.572 171.084 120.572Z" fill="#FFC4C0"/>
<path d="M176.927 129.645C176.657 129.105 176.41 128.55 176.163 127.996L176.261 127.93C178.266 126.622 179.898 124.818 181 122.693C181.358 121.975 181.647 121.224 181.862 120.451C181.792 121.266 181.604 122.067 181.303 122.828C180.34 125.124 178.6 127.008 176.387 128.149L176.447 127.991C176.61 128.536 176.778 129.081 176.913 129.636L176.927 129.645Z" fill="#263238"/>
<path d="M169.458 121.109L184.505 113.597C184.596 112.124 184.291 110.653 183.619 109.338C181.289 104.757 176.457 97.73 174.705 94.4913C172.095 89.6822 163.987 79.4115 160.841 75.8513C157.696 72.291 155.249 74.5698 156.102 79.6538C156.955 84.7379 162.924 100.624 162.999 101.146C163.055 101.533 164.937 111.999 166.797 117.679C167.293 119.078 168.226 120.28 169.458 121.109Z" fill="#455A64"/>
<path d="M175.278 113.817C174.276 114.283 173.265 114.749 172.254 115.243C171.788 115.466 171.284 115.709 170.795 115.904C170.306 116.1 169.737 116.403 169.192 116.589C169.155 116.589 169.131 116.552 169.164 116.533C169.63 116.217 170.185 115.97 170.688 115.69C171.191 115.41 171.62 115.191 172.109 114.944C173.097 114.436 174.085 113.924 175.087 113.439C177.095 112.465 179.122 111.552 181.168 110.643C181.178 110.64 181.188 110.64 181.198 110.644C181.208 110.647 181.216 110.655 181.22 110.664C181.225 110.673 181.226 110.684 181.223 110.694C181.22 110.704 181.214 110.712 181.205 110.718C179.244 111.794 177.277 112.833 175.278 113.817Z" fill="#263238"/>
<path opacity="0.1" d="M156.102 79.6534C156.96 84.7375 162.924 100.623 162.999 101.145C163.055 101.532 164.938 111.994 166.797 117.679C167.294 119.078 168.226 120.28 169.458 121.109L184.505 113.597C184.552 112.989 184.519 112.378 184.407 111.779L159.909 74.9421C157.239 72.7799 155.329 75.0866 156.102 79.6534Z" fill="black"/>
<path d="M133.539 219.579C134.839 219.411 166.937 203.888 167.79 202.523C168.111 202.006 166.126 197.201 163.558 191.46C163.004 190.221 162.421 188.944 161.825 187.648C157.966 179.26 153.67 170.406 153.67 170.406L132.169 180.733L140.915 197.672L142.835 201.4C142.835 201.4 133.203 212.84 132.429 214.448C131.656 216.056 132.234 219.746 133.539 219.579Z" fill="#FFC4C0"/>
<path d="M133.539 219.579C134.839 219.411 166.937 203.889 167.79 202.523C168.181 201.889 165.166 194.927 161.825 187.648L140.915 197.691L142.835 201.419C142.835 201.419 133.203 212.859 132.429 214.467C131.656 216.074 132.234 219.747 133.539 219.579Z" fill="white"/>
<path d="M133.539 219.579C134.839 219.412 166.937 203.889 167.79 202.524C168.111 202.007 166.126 197.202 163.558 191.461L142.835 201.41C142.835 201.41 133.203 212.85 132.429 214.458C131.656 216.066 132.234 219.747 133.539 219.579Z" fill="#004AAD"/>
<path d="M133.375 218.087C138.692 215.352 160.403 204.825 165.86 202.527C165.902 202.527 165.916 202.527 165.86 202.56C160.65 205.384 138.864 215.738 133.403 218.176C133.31 218.213 133.263 218.129 133.375 218.087Z" fill="#263238"/>
<path d="M133.934 212.296C134.525 211.99 135.173 211.811 135.838 211.769C136.502 211.727 137.168 211.824 137.792 212.054C138.918 212.456 139.845 213.275 140.383 214.342C140.383 214.374 140.337 214.407 140.318 214.374C139.62 213.397 138.623 212.673 137.478 212.31C136.333 211.947 135.101 211.965 133.967 212.361C133.958 212.363 133.95 212.363 133.942 212.359C133.934 212.356 133.928 212.35 133.924 212.342C133.92 212.334 133.919 212.325 133.921 212.317C133.923 212.309 133.927 212.301 133.934 212.296Z" fill="#263238"/>
<path d="M141.003 202.953C143.142 201.881 146.008 201.434 148.198 202.548C148.282 202.594 148.222 202.711 148.142 202.711C145.782 202.634 143.42 202.811 141.097 203.237C141.059 203.25 141.018 203.247 140.982 203.229C140.947 203.211 140.92 203.179 140.908 203.142C140.895 203.104 140.899 203.063 140.917 203.028C140.934 202.992 140.966 202.965 141.003 202.953Z" fill="#263238"/>
<path d="M139.657 204.406C141.796 203.334 144.657 202.887 146.847 204.001C146.936 204.043 146.871 204.164 146.792 204.164C144.431 204.085 142.068 204.262 139.746 204.69C139.709 204.7 139.67 204.694 139.637 204.676C139.603 204.657 139.579 204.626 139.567 204.59C139.556 204.554 139.559 204.514 139.576 204.48C139.592 204.446 139.621 204.42 139.657 204.406Z" fill="#263238"/>
<path d="M138.305 205.859C140.444 204.788 143.31 204.34 145.501 205.454C145.584 205.496 145.501 205.617 145.445 205.612C143.084 205.538 140.722 205.715 138.399 206.139C138.364 206.145 138.328 206.138 138.297 206.12C138.266 206.101 138.244 206.073 138.232 206.039C138.221 206.005 138.222 205.969 138.236 205.936C138.249 205.903 138.274 205.876 138.305 205.859Z" fill="#263238"/>
<path d="M136.959 207.309C139.098 206.237 141.959 205.789 144.149 206.903C144.238 206.95 144.173 207.066 144.093 207.066C141.729 206.989 139.364 207.166 137.038 207.593C137.003 207.597 136.967 207.589 136.937 207.569C136.907 207.549 136.885 207.519 136.876 207.485C136.866 207.45 136.869 207.414 136.884 207.381C136.9 207.349 136.926 207.323 136.959 207.309Z" fill="#263238"/>
<path d="M162.015 198.05C164.434 196.89 166.246 200.645 163.819 201.81C161.391 202.975 159.592 199.229 162.015 198.05Z" fill="#263238"/>
<path d="M137.597 201.405C139.485 202.337 141.712 202.431 143.758 202.752C143.968 202.785 144.089 202.566 144.061 202.389C144.071 202.387 144.08 202.382 144.087 202.376C144.095 202.369 144.101 202.361 144.104 202.352C144.108 202.343 144.109 202.333 144.108 202.323C144.107 202.313 144.104 202.304 144.098 202.296C142.986 200.394 141.391 198.821 139.475 197.733C138.352 197.123 136.549 196.904 135.897 198.335C135.281 199.686 136.493 200.846 137.597 201.405ZM136.633 199.672C135.701 197.225 138.697 198.004 139.513 198.488C140.033 198.81 140.53 199.168 140.999 199.56C141.964 200.38 142.884 201.249 143.758 202.165C142.761 201.946 141.759 201.816 140.752 201.634C139.559 201.415 137.141 201.019 136.633 199.672Z" fill="#263238"/>
<path d="M151.084 197.22C150.231 195.896 148.483 196.367 147.453 197.136C145.715 198.485 144.36 200.267 143.525 202.304C143.521 202.313 143.52 202.323 143.521 202.333C143.521 202.343 143.524 202.352 143.529 202.361C143.534 202.369 143.541 202.376 143.549 202.382C143.557 202.387 143.567 202.391 143.576 202.392C143.576 202.57 143.721 202.77 143.926 202.705C145.906 202.104 148.12 201.698 149.835 200.505C150.851 199.806 151.885 198.473 151.084 197.22ZM146.74 201.176C145.776 201.498 144.797 201.768 143.842 202.108C144.578 201.079 145.367 200.088 146.205 199.14C146.616 198.685 147.058 198.26 147.528 197.868C148.26 197.271 151.107 196.078 150.543 198.632C150.231 200.058 147.891 200.794 146.74 201.176Z" fill="#263238"/>
<path opacity="0.1" d="M167.794 202.52C167.132 203.587 147.457 213.266 138.212 217.558L164.466 193.498C166.568 198.298 168.073 202.068 167.794 202.52Z" fill="black"/>
<path d="M161.736 186.824L140.053 196.307C140.053 196.307 124.358 169.279 125.584 158.361C126.959 146.105 140.16 109.738 140.16 109.738H164.593C164.593 109.738 150.771 145.341 149.923 157.927C149.574 162.886 161.736 186.824 161.736 186.824Z" fill="#263238"/>
<path d="M158.605 183.767C155.273 184.941 151.987 186.283 148.735 187.667C147.118 188.357 145.505 189.065 143.898 189.75C142.29 190.435 140.673 191.27 139.056 192.038C139.045 192.045 139.036 192.055 139.032 192.067C139.028 192.079 139.029 192.093 139.034 192.104C139.039 192.116 139.049 192.126 139.061 192.131C139.072 192.136 139.086 192.136 139.098 192.132C140.775 191.517 142.453 190.934 144.112 190.268C145.771 189.601 147.374 188.94 148.982 188.269C152.244 186.908 155.506 185.496 158.674 183.93C158.685 183.925 158.695 183.919 158.703 183.91C158.711 183.902 158.718 183.892 158.722 183.881C158.726 183.871 158.728 183.859 158.728 183.847C158.728 183.836 158.726 183.824 158.721 183.814C158.717 183.803 158.71 183.793 158.702 183.785C158.693 183.777 158.683 183.77 158.673 183.766C158.662 183.762 158.65 183.76 158.638 183.76C158.627 183.76 158.615 183.762 158.605 183.767Z" fill="#37474F"/>
<path d="M148.571 165.187C148.156 164.018 147.756 162.857 147.359 161.674C146.916 160.512 146.612 159.301 146.455 158.067C146.408 156.739 146.578 155.412 146.959 154.139C147.262 152.927 154.079 133.56 155.594 128.742C157.305 123.299 159.112 117.888 161.013 112.511C161.074 112.343 160.804 112.278 160.743 112.445C157.262 122.05 147.192 151.51 146.865 152.773C146.515 153.968 146.247 155.186 146.064 156.417C145.775 158.878 146.721 161.198 147.499 163.486C148.315 165.882 152.909 177.69 155.421 182.756C155.449 182.811 155.538 182.756 155.519 182.714C153.618 178.091 149.41 167.573 148.571 165.187Z" fill="#37474F"/>
<path d="M137.555 220.847C138.799 221.252 174.295 220.907 175.641 220.041C176.154 219.714 176.406 214.542 176.531 208.283C176.559 206.932 176.578 205.534 176.592 204.117C176.685 194.914 176.569 185.146 176.569 185.146L152.803 185.305L153.483 204.276L153.628 208.437C153.628 208.437 140.114 214.644 138.716 215.758C137.318 216.872 136.311 220.446 137.555 220.847Z" fill="#FFC4C0"/>
<path d="M137.555 220.847C138.799 221.252 174.295 220.907 175.641 220.04C176.261 219.64 176.503 212.086 176.573 204.117L153.483 204.276L153.628 208.437C153.628 208.437 140.114 214.644 138.716 215.758C137.318 216.872 136.311 220.446 137.555 220.847Z" fill="white"/>
<path d="M137.556 220.847C138.8 221.252 174.295 220.907 175.642 220.04C176.154 219.714 176.406 214.542 176.532 208.283L153.647 208.437C153.647 208.437 140.133 214.644 138.735 215.758C137.337 216.872 136.311 220.446 137.556 220.847Z" fill="#004AAD"/>
<path d="M138.049 219.425C144 219.22 168.013 218.959 173.908 219.211C173.955 219.211 173.955 219.248 173.908 219.248C168.018 219.579 144.005 219.644 138.054 219.518C137.928 219.518 137.928 219.425 138.049 219.425Z" fill="#263238"/>
<path d="M141.013 214.458C141.674 214.435 142.334 214.549 142.949 214.794C143.564 215.039 144.122 215.408 144.587 215.879C145.43 216.72 145.916 217.853 145.943 219.043C145.943 219.076 145.878 219.076 145.873 219.043C145.661 217.867 145.072 216.791 144.196 215.977C143.319 215.164 142.202 214.657 141.013 214.533C141.008 214.533 141.003 214.532 140.999 214.53C140.994 214.528 140.99 214.525 140.986 214.522C140.983 214.518 140.98 214.514 140.978 214.51C140.977 214.505 140.976 214.5 140.976 214.495C140.976 214.49 140.977 214.485 140.978 214.481C140.98 214.476 140.983 214.472 140.986 214.469C140.99 214.465 140.994 214.463 140.999 214.461C141.003 214.459 141.008 214.458 141.013 214.458Z" fill="#263238"/>
<path d="M151.344 209.052C153.725 208.996 156.493 209.806 157.994 211.74C158.049 211.815 157.942 211.899 157.872 211.862C155.78 210.791 153.579 209.947 151.306 209.345C151.271 209.336 151.241 209.315 151.22 209.284C151.2 209.254 151.191 209.218 151.196 209.182C151.2 209.146 151.218 209.113 151.245 209.089C151.272 209.065 151.307 209.051 151.344 209.052Z" fill="#263238"/>
<path d="M149.513 209.784C151.894 209.728 154.662 210.544 156.163 212.477C156.218 212.552 156.111 212.636 156.041 212.599C153.949 211.526 151.748 210.681 149.475 210.078C149.44 210.069 149.41 210.047 149.389 210.017C149.369 209.987 149.36 209.95 149.364 209.914C149.369 209.878 149.387 209.845 149.414 209.821C149.441 209.797 149.476 209.784 149.513 209.784Z" fill="#263238"/>
<path d="M147.682 210.52C150.063 210.464 152.831 211.28 154.331 213.214C154.387 213.288 154.28 213.368 154.21 213.33C152.118 212.26 149.917 211.416 147.644 210.814C147.609 210.805 147.578 210.783 147.558 210.753C147.538 210.723 147.529 210.687 147.533 210.651C147.538 210.615 147.556 210.581 147.583 210.557C147.61 210.533 147.645 210.52 147.682 210.52Z" fill="#263238"/>
<path d="M145.85 211.257C148.231 211.201 150.976 212.012 152.499 213.945C152.555 214.02 152.448 214.104 152.378 214.067C150.286 212.995 148.085 212.151 145.812 211.55C145.777 211.541 145.746 211.52 145.726 211.49C145.706 211.459 145.697 211.423 145.701 211.387C145.706 211.351 145.724 211.318 145.751 211.294C145.778 211.27 145.813 211.257 145.85 211.257Z" fill="#263238"/>
<path d="M172.338 213.576C175.013 213.576 175.041 217.71 172.366 217.728C169.691 217.747 169.658 213.59 172.338 213.576Z" fill="#263238"/>
<path d="M148.93 206.21C150.235 207.855 152.192 208.88 153.907 210.036C153.947 210.058 153.992 210.07 154.037 210.072C154.083 210.074 154.129 210.065 154.17 210.046C154.212 210.027 154.249 209.998 154.277 209.963C154.306 209.927 154.326 209.885 154.336 209.84C154.345 209.842 154.355 209.841 154.365 209.838C154.374 209.835 154.383 209.83 154.39 209.823C154.397 209.816 154.402 209.808 154.406 209.799C154.409 209.79 154.411 209.78 154.41 209.77C154.21 207.592 153.444 205.503 152.187 203.712C151.432 202.682 149.904 201.718 148.706 202.729C147.509 203.74 148.17 205.25 148.93 206.21ZM148.804 204.239C149.014 201.643 151.372 203.614 151.898 204.393C152.228 204.906 152.524 205.44 152.784 205.991C153.338 207.133 153.716 208.321 154.158 209.509C153.352 208.89 152.504 208.344 151.679 207.757C150.696 207.053 148.688 205.669 148.804 204.239Z" fill="#263238"/>
<path d="M162.85 208.171C162.65 206.619 160.874 206.307 159.621 206.554C157.482 207.028 155.505 208.057 153.889 209.537C153.881 209.543 153.875 209.55 153.871 209.559C153.866 209.568 153.864 209.578 153.864 209.588C153.864 209.598 153.866 209.607 153.871 209.616C153.875 209.625 153.881 209.633 153.889 209.639C153.865 209.678 153.85 209.722 153.847 209.767C153.843 209.813 153.85 209.859 153.868 209.901C153.886 209.943 153.914 209.98 153.949 210.009C153.984 210.038 154.026 210.058 154.071 210.068C156.112 210.366 158.265 210.935 160.324 210.599C161.545 210.399 163.041 209.639 162.85 208.171ZM157.258 209.886C156.252 209.765 155.259 209.597 154.248 209.509C155.366 208.931 156.457 208.306 157.631 207.84C158.196 207.609 158.775 207.415 159.364 207.258C160.296 207.034 163.344 207.169 161.755 209.229C160.884 210.361 158.474 210.031 157.263 209.886H157.258Z" fill="#263238"/>
<path d="M177.58 203.045H152.919C152.919 203.045 152.248 177.294 151.349 167.974C150.417 158.062 150.305 127.087 150.305 127.087L147.509 126.207C144.037 124.012 140.519 112.819 140.118 109.738H172.365C172.365 109.738 177.067 123.164 174.551 131.468C174.551 131.468 174.677 160.653 175.203 165.887C176.224 175.729 177.58 203.045 177.58 203.045Z" fill="#263238"/>
<path d="M146.777 125.769C149.341 126.481 151.849 127.382 154.28 128.462C154.373 128.5 154.313 128.612 154.21 128.579C151.68 127.745 149.084 126.943 146.633 125.997C146.447 125.927 146.577 125.713 146.777 125.769Z" fill="#37474F"/>
<path d="M145.971 112.394C145.971 112.329 146.134 112.315 146.134 112.394C146.131 114.576 146.272 116.755 146.558 118.918C146.675 119.925 147.723 125.47 149.984 125.065C150.361 124.999 150.557 124.711 150.613 124.272C150.604 123.693 150.504 123.119 150.314 122.572C150.06 121.416 149.866 120.248 149.732 119.072C149.469 116.891 149.501 114.684 149.825 112.511C149.825 112.441 149.97 112.445 149.97 112.511C149.903 115.546 150.134 118.58 150.659 121.57C150.939 123.014 151.885 125.186 149.928 125.405C147.97 125.624 146.638 121.994 146.395 121.001C145.771 118.176 145.628 115.267 145.971 112.394Z" fill="#37474F"/>
<path d="M149.923 125.19C150.123 125.56 150.293 125.944 150.431 126.341C150.572 126.631 150.644 126.95 150.641 127.273C150.641 127.334 150.529 127.338 150.487 127.296C150.256 127.02 150.078 126.704 149.96 126.364C149.788 126.01 149.606 125.656 149.448 125.297C149.345 125.088 149.797 124.962 149.923 125.19Z" fill="#37474F"/>
<path d="M175.846 198.517C172.318 198.297 168.767 198.256 165.235 198.265C163.478 198.265 161.721 198.265 159.969 198.302C158.217 198.339 156.404 198.442 154.62 198.521C154.606 198.521 154.593 198.527 154.583 198.536C154.574 198.546 154.568 198.559 154.568 198.572C154.568 198.586 154.574 198.599 154.583 198.609C154.593 198.618 154.606 198.624 154.62 198.624C156.404 198.708 158.175 198.829 159.965 198.861C161.754 198.894 163.474 198.903 165.23 198.913C168.763 198.936 172.314 198.913 175.846 198.694C175.869 198.694 175.892 198.684 175.909 198.668C175.925 198.651 175.934 198.629 175.934 198.605C175.934 198.582 175.925 198.559 175.909 198.542C175.892 198.526 175.869 198.517 175.846 198.517Z" fill="#37474F"/>
<path d="M150.366 126.994C150.361 126.976 150.351 126.959 150.336 126.948C150.321 126.936 150.303 126.93 150.284 126.93C150.265 126.93 150.247 126.936 150.232 126.948C150.217 126.959 150.207 126.976 150.203 126.994C150.044 135.088 151.787 184.135 152.337 189.019C152.337 189.032 152.342 189.045 152.352 189.055C152.361 189.064 152.374 189.07 152.388 189.07C152.402 189.07 152.415 189.064 152.424 189.055C152.434 189.045 152.439 189.032 152.439 189.019C152.36 184.638 150.715 129.422 150.366 126.994Z" fill="#37474F"/>
<path d="M169.612 121.294C167.361 120.996 164.952 120.703 163.428 118.829C162.741 117.95 162.235 116.942 161.941 115.866C161.582 114.654 161.475 113.386 161.098 112.175C161.098 112.128 161.019 112.147 161.014 112.175C160.94 113.543 161.097 114.914 161.48 116.229C161.782 117.337 162.321 118.365 163.06 119.244C164.7 121.131 167.254 121.42 169.584 121.392C169.658 121.406 169.658 121.304 169.612 121.294Z" fill="#37474F"/>
<path d="M171.643 138.668C171.475 135.746 171.298 132.862 172.002 129.991C172.416 128.483 172.683 126.938 172.799 125.378C172.864 123.758 172.798 122.136 172.603 120.527C172.266 117.392 171.62 114.298 170.674 111.291C170.665 111.272 170.65 111.257 170.631 111.249C170.612 111.241 170.591 111.24 170.572 111.246C170.552 111.253 170.536 111.266 170.525 111.283C170.515 111.301 170.511 111.322 170.515 111.342C171.322 114.125 171.893 116.972 172.221 119.851C172.547 122.754 172.687 125.737 171.988 128.589C171.608 129.913 171.334 131.266 171.168 132.634C171.072 134.005 171.072 135.382 171.168 136.753C171.312 139.726 172.985 190.473 173.651 197.147C173.655 197.158 173.662 197.168 173.672 197.175C173.681 197.183 173.693 197.187 173.705 197.187C173.717 197.187 173.729 197.183 173.738 197.175C173.748 197.168 173.755 197.158 173.759 197.147C173.488 191.163 171.82 141.665 171.643 138.668Z" fill="#37474F"/>
<path d="M157.3 74.3726C157.123 74.9924 153.931 78.9068 151.074 78.6319C150.142 78.5387 150.417 73.4406 150.417 73.4406L150.352 73.0585L149.42 67.7275L156.736 63.5801C156.736 63.5801 157.37 74.093 157.3 74.3726Z" fill="#FFC4C0"/>
<path d="M149.438 67.7275L150.37 73.0585L150.436 73.4406C150.436 73.4406 150.384 74.3726 150.398 75.4305C154.327 75.0437 156.261 72.2057 157.141 70.2206C156.978 67.1823 156.769 63.5801 156.769 63.5801L149.438 67.7275Z" fill="#263238"/>
<path d="M150.91 46.4418L142.191 55.0628C142.191 55.0628 142.942 42.2385 150.91 46.4418Z" fill="#263238"/>
<path d="M142.042 54.7185C136.767 66.0097 142.937 70.446 145.374 71.5784C147.583 72.6083 155.244 75.833 161.656 65.1476C168.069 54.4622 164.49 48.4415 159.555 45.8179C154.62 43.1943 147.318 43.4273 142.042 54.7185Z" fill="#FFC4C0"/>
<path d="M143.855 63.3764C144.028 63.9118 144.336 64.3933 144.75 64.7744C144.981 64.9721 145.268 65.0941 145.57 65.1239C146.237 65.1752 146.446 64.6253 146.502 64.108C146.534 63.834 146.534 63.5572 146.502 63.2832C145.653 63.5964 144.725 63.6291 143.855 63.3764Z" fill="white"/>
<path d="M146.493 64.1504C146.488 64.1943 146.48 64.2378 146.47 64.2809C146.223 64.3424 145.969 64.3691 145.715 64.3601C145.98 64.3088 146.237 64.225 146.493 64.1504Z" fill="#DBDBDB"/>
<path d="M145.169 64.3874C144.901 64.4059 144.631 64.387 144.368 64.3315C144.326 64.284 144.288 64.2325 144.256 64.1777C144.554 64.2476 144.862 64.3082 145.169 64.3874Z" fill="#DBDBDB"/>
<path d="M144.121 56.3865C142.844 55.86 141.884 58.4556 143.068 58.9449C144.252 59.4342 145.193 56.8525 144.121 56.3865Z" fill="#263238"/>
<path d="M149.974 58.8784C151.274 59.3444 150.216 61.9168 149.014 61.4741C147.812 61.0314 148.888 58.4777 149.974 58.8784Z" fill="#263238"/>
<path d="M143.818 54.8299C144.102 54.8998 144.382 54.9184 144.67 54.9604C144.963 55.0468 145.275 55.0354 145.561 54.9277C145.641 54.8736 145.703 54.7955 145.738 54.7044C145.772 54.6134 145.777 54.5138 145.752 54.4198C145.667 54.2417 145.535 54.0897 145.371 53.9798C145.207 53.8699 145.017 53.8062 144.82 53.7954C144.427 53.7125 144.018 53.7754 143.669 53.9724C143.588 54.0208 143.523 54.0925 143.484 54.1782C143.445 54.2639 143.432 54.3595 143.448 54.4524C143.464 54.5453 143.508 54.6312 143.574 54.6985C143.64 54.7659 143.725 54.8117 143.818 54.8299Z" fill="#263238"/>
<path d="M151.167 58.3239C150.982 58.1042 150.809 57.874 150.65 57.6342C150.431 57.4195 150.292 57.1369 150.254 56.8327C150.259 56.7353 150.297 56.6426 150.361 56.5691C150.426 56.4957 150.512 56.4458 150.608 56.4273C150.804 56.4171 150.999 56.4597 151.173 56.5507C151.347 56.6417 151.493 56.7777 151.596 56.9445C151.858 57.2479 151.996 57.6389 151.983 58.0396C151.978 58.1322 151.946 58.2214 151.89 58.2956C151.835 58.3699 151.758 58.4258 151.671 58.4563C151.583 58.4869 151.488 58.4906 151.399 58.467C151.309 58.4434 151.228 58.3936 151.167 58.3239Z" fill="#263238"/>
<path d="M146.661 65.9574C146.421 66.1377 146.127 66.2299 145.827 66.2184C145.53 66.1216 145.257 65.9628 145.026 65.7524C145.02 65.7485 145.014 65.7463 145.007 65.7461C145.001 65.7459 144.994 65.7477 144.989 65.7512C144.983 65.7547 144.979 65.7598 144.976 65.7659C144.974 65.7719 144.973 65.7786 144.974 65.785C145.04 65.9805 145.158 66.1546 145.315 66.289C145.471 66.4235 145.661 66.5134 145.864 66.5492C146.043 66.558 146.22 66.5136 146.374 66.4215C146.527 66.3294 146.65 66.1939 146.726 66.032C146.754 65.9761 146.698 65.9388 146.661 65.9574Z" fill="#263238"/>
<path d="M144.079 61.475C144.079 61.475 143.468 62.5934 143.254 63.1526C143.254 63.2085 143.361 63.283 143.547 63.3669C143.993 63.6376 144.505 63.7807 145.027 63.7807C145.549 63.7807 146.06 63.6376 146.507 63.3669C146.567 63.3296 146.507 63.2458 146.451 63.2597C145.553 63.475 144.61 63.3949 143.762 63.0314C143.762 62.8636 144.885 61.1208 144.792 61.1068C144.396 61.0276 143.678 60.9437 143.394 60.9111C143.776 60.1702 144.964 58.1151 145.658 56.7823C145.705 56.6985 145.579 56.6192 145.528 56.6938C144.466 58.1203 143.501 59.6164 142.639 61.1721C142.629 61.2886 143.822 61.4843 144.079 61.475Z" fill="#263238"/>
<path d="M159.681 65.7569C156.731 64.974 159.458 59.4472 159.458 59.4472C159.458 59.4472 154.956 58.1284 157.384 51.3342C157.384 51.3342 151.289 51.4646 148.064 48.8597C144.839 46.2548 146.992 39.6981 148.124 39.6282C149.257 39.5583 151.037 41.3524 151.037 41.3524C151.037 41.3524 151.223 38.6729 152.51 39.4884C153.347 40.0909 154.002 40.9134 154.401 41.865C154.401 41.865 164.49 44.0226 167.128 49.0135C168.307 51.2456 167.128 53.7294 167.128 53.7294C167.128 53.7294 169.574 55.8171 168.703 58.1471C167.832 60.4771 163.134 66.6702 159.681 65.7569Z" fill="#263238"/>
<path d="M157.84 50.1229C157.878 50.0717 157.957 50.1229 157.924 50.1695C155.711 53.7344 155.315 58.5249 160.147 59.7924C160.287 59.8297 160.226 60.0301 160.087 60.0114C159.16 59.8702 158.291 59.4729 157.578 58.8645C156.865 58.256 156.336 57.4606 156.051 56.5677C155.277 54.1864 156.442 51.9869 157.84 50.1229Z" fill="#263238"/>
<path d="M148.012 39.8809C148.035 39.8809 148.049 39.9088 148.012 39.9181C146.642 40.5659 146.171 43.1429 146.05 44.5176C145.961 45.349 146.065 46.1898 146.356 46.9741C146.646 47.7583 147.114 48.4647 147.723 49.0378C149.908 51.0229 153.478 51.1487 156.274 51.0602C156.456 51.0602 156.334 51.228 156.157 51.2419C152.807 51.5122 147.676 51.1627 146.157 47.5139C145.606 45.9999 145.552 44.3495 146.003 42.8027C146.297 41.7682 146.823 40.1465 148.012 39.8809Z" fill="#263238"/>
<path d="M158.222 63.5383C158.222 63.5383 162.113 60.8169 163.437 62.3361C164.76 63.8552 160.906 68.4453 158.693 68.4593C158.409 68.4809 158.125 68.4448 157.856 68.3532C157.587 68.2617 157.34 68.1166 157.128 67.9267C156.917 67.7368 156.746 67.506 156.627 67.2483C156.507 66.9907 156.441 66.7115 156.433 66.4275L158.222 63.5383Z" fill="#FFC4C0"/>
<path d="M162.299 63.6272C162.332 63.6272 162.323 63.6785 162.299 63.6832C160.734 63.7344 159.55 64.7363 158.571 65.864C159.159 65.5099 159.816 65.4353 160.314 66.1669C160.342 66.2042 160.286 66.2462 160.249 66.2229C160.037 66.0598 159.779 65.966 159.511 65.9543C159.244 65.9427 158.979 66.0136 158.753 66.1576C158.378 66.4025 158.031 66.6886 157.719 67.0104C157.607 67.1083 157.411 66.9638 157.509 66.838V66.81C158.124 65.0579 160.366 63.1193 162.299 63.6272Z" fill="#263238"/>
<path d="M173.297 111.933C173.32 111.895 139.368 110.907 139.368 110.907C138.964 110.288 138.692 109.591 138.57 108.861C138.449 108.131 138.479 107.384 138.659 106.667C140.253 99.9704 145.053 86.0743 148.618 77.6583C150.761 72.5976 156.54 71.6376 159.62 74.9322C165.678 81.4283 172.202 98.7588 173.819 106.83C174.166 108.544 173.984 110.324 173.297 111.933Z" fill="#455A64"/>
<path d="M155.412 73.6289C151.959 73.2887 130.901 74.435 129.088 75.7678C126.25 77.8462 119.633 84.3049 126.469 88.9603C131.204 92.1803 147.411 84.6171 155.24 80.5303C160.091 77.972 161.578 74.216 155.412 73.6289Z" fill="#FFC4C0"/>
<path d="M128.916 60.7053C127.779 59.1163 113.962 61.1247 114.516 63.9673C117.098 77.1644 123.473 86.6988 125.616 88.3065C128.412 90.4082 132.476 88.7026 133.58 86.6895C135.174 83.7537 130.048 62.2851 128.916 60.7053Z" fill="#FFC4C0"/>
<path d="M129.736 63.1616C129.736 63.1616 130.253 57.001 130.57 52.8676C130.747 50.5376 130.7 46.5766 130.057 44.8245C129.093 42.2009 123.384 31.8417 120.84 33.1745C118.542 34.3814 124.568 42.6576 124.568 42.6576C124.568 42.6576 119.223 33.7616 116.72 35.7235C114.218 37.6853 122.28 46.1339 122.28 46.1339C122.28 46.1339 116.576 37.1215 114.316 39.554C112.606 41.3854 119.474 49.4472 119.474 49.4472C119.474 49.4472 114.521 41.7349 112.68 43.5476C110.648 45.5514 116.525 53.3895 116.525 53.3895C112.624 58.7812 113.729 63.2221 115.159 66.6426L129.736 63.1616Z" fill="#FFC4C0"/>
<path d="M126.623 45.6081C126.031 44.541 125.439 43.4598 124.759 42.4486C124.078 41.4374 123.361 40.4495 122.578 39.5082C121.591 38.2552 120.464 37.12 119.218 36.125C121.301 38.0542 123.803 41.6331 124.488 42.649C125.173 43.6649 125.886 44.6342 126.585 45.6407C126.604 45.6687 126.636 45.6361 126.623 45.6081Z" fill="#263238"/>
<path d="M123.016 48.1418C122.205 46.8137 121.445 45.4623 120.574 44.1668C119.702 42.8713 118.77 41.7343 117.815 40.5087C117.74 40.4155 117.712 40.4854 117.782 40.5832C118.691 41.8461 119.427 43.081 120.317 44.3532C121.207 45.6254 122.149 46.8649 122.988 48.1651C123.002 48.1837 123.03 48.1604 123.016 48.1418Z" fill="#263238"/>
<path d="M120.313 50.873C119.118 48.8048 117.712 46.8653 116.119 45.0852C116.04 44.992 116.017 45.0852 116.091 45.1878C117.522 47.0844 118.659 48.5616 120.248 50.9149C120.262 50.9522 120.341 50.9196 120.313 50.873Z" fill="#263238"/>
<path d="M130.448 64.6348L113.048 68.9126C113.048 68.9126 120.811 88.0979 127.177 89.6962C133.543 91.2946 146.954 85.6281 154.853 81.2383C162.751 76.8486 160.114 72.883 153.17 73.3163C146.227 73.7497 133.198 74.0433 133.198 74.0433L130.448 64.6348Z" fill="#455A64"/>
<path d="M116.068 72.5001C122.331 70.1468 129.27 68.6229 130.458 68.2734C130.514 68.2734 130.537 68.348 130.458 68.362C129.274 68.6462 121.534 71.2465 116.073 72.5979C116.04 72.6166 116.021 72.5234 116.068 72.5001Z" fill="#263238"/>
<path d="M145.323 85.8237C147.928 84.6307 152.919 82.2681 153.245 82.0957C153.292 82.0957 153.352 82.1423 153.31 82.1749C152.344 82.8414 151.327 83.4304 150.268 83.9364C151.428 83.6242 152.08 83.503 153.213 83.1395C153.259 83.1395 153.297 83.2001 153.25 83.2188C151.953 83.7298 150.622 84.1471 149.266 84.4676C147.979 84.9953 146.662 85.4481 145.323 85.8237Z" fill="#263238"/>
<path d="M121.077 27.2945C121.639 23.9758 122.514 20.7178 123.691 17.5645C123.131 20.8836 122.256 24.1417 121.077 27.2945Z" fill="#263238"/>
<path d="M111.766 28.5153C109.82 25.7714 108.14 22.8489 106.747 19.7871C108.699 22.5291 110.385 25.4519 111.78 28.5153H111.766Z" fill="#263238"/>
<path d="M106.575 34.2568C103.256 33.6947 99.9983 32.8193 96.8447 31.6426C100.164 32.202 103.422 33.0774 106.575 34.2568Z" fill="#263238"/>
<path d="M106.659 42.0938C104.784 43.545 102.721 44.7348 100.526 45.6307C102.401 44.1795 104.464 42.9896 106.659 42.0938Z" fill="#263238"/>
<path d="M130.896 41.1719C133.032 41.9719 135.045 43.0701 136.874 44.4339C134.739 43.631 132.726 42.533 130.896 41.1719Z" fill="#263238"/>
<path d="M128.528 33.0172C131.27 31.0647 134.193 29.3795 137.257 27.9844C134.512 29.9331 131.59 31.6182 128.528 33.0172Z" fill="#263238"/>
<path d="M102.134 30.8398C103.547 31.1075 104.882 31.6905 106.039 32.5454C104.625 32.2786 103.29 31.6956 102.134 30.8398Z" fill="#263238"/>
<path d="M127.186 18.2402C125.57 22.1541 123.661 25.9409 121.478 29.5687C123.093 25.6544 125.001 21.8675 127.186 18.2402Z" fill="#263238"/>
<path d="M131.581 35.1565C134.963 34.5403 138.395 34.2377 141.833 34.2525C138.451 34.8734 135.019 35.1761 131.581 35.1565Z" fill="#263238"/>
<path d="M105.186 40.8359C102.505 42.0001 99.7026 42.8643 96.8311 43.4129C99.5135 42.2509 102.315 41.3867 105.186 40.8359Z" fill="#263238"/>
<path d="M39.8072 35.9338C40.116 38.8898 41.24 41.7018 43.0538 44.0561C44.8676 46.4105 47.2999 48.2146 50.0793 49.2672C52.8587 50.3198 55.8759 50.5795 58.7942 50.0173C61.7126 49.4551 64.4174 48.0931 66.6068 46.0833L74.636 47.2576L70.6191 40.3235C71.5409 38.0648 71.9354 35.6257 71.7728 33.1916C71.6102 30.7574 70.8946 28.3924 69.6805 26.2765C68.4664 24.1605 66.7858 22.3492 64.7665 20.9804C62.7471 19.6116 60.4422 18.7213 58.0271 18.3772C55.6119 18.0331 53.1501 18.2443 50.8288 18.9947C48.5076 19.7451 46.388 21.015 44.6313 22.7077C42.8746 24.4005 41.527 26.4715 40.6911 28.7634C39.8551 31.0553 39.5528 33.5076 39.8072 35.9338Z" fill="white"/>
<path d="M44.6072 22.6858C46.3619 20.9765 48.4762 19.6805 50.7956 18.8925C53.7405 17.9188 56.9028 17.8096 59.9079 18.5777C62.9129 19.3459 65.6349 20.9592 67.7513 23.2266C69.8677 25.4941 71.2899 28.3206 71.8494 31.3714C72.4089 34.4222 72.0823 37.5695 70.9082 40.4404V40.1654L74.8972 47.1182L75.1954 47.6308L74.5943 47.5329L66.5744 46.3027L66.7655 46.2421C64.5394 48.2579 61.7965 49.6149 58.8435 50.1611C58.1097 50.2968 57.3665 50.3747 56.6206 50.3941C55.878 50.4322 55.1336 50.4166 54.3932 50.3475C52.9124 50.2066 51.4585 49.86 50.0733 49.3177C48.6895 48.7849 47.3875 48.0602 46.2055 47.1648C45.6124 46.7237 45.0474 46.2459 44.514 45.7341C43.9947 45.2059 43.5091 44.6456 43.06 44.0565C40.6568 40.92 39.4883 37.0106 39.7761 33.0697C40.0638 29.1289 41.7878 25.4306 44.6211 22.6765L44.6072 22.6858ZM43.0927 44.0286C43.9785 45.2098 45.0428 46.2458 46.2475 47.0995C47.4256 47.9842 48.7292 48.6878 50.1153 49.1872C51.4923 49.6962 52.9338 50.0099 54.3978 50.1192C55.1285 50.1728 55.862 50.1728 56.5927 50.1192C57.3176 50.0914 58.039 50.0057 58.7503 49.8629C61.6304 49.2862 64.292 47.9159 66.4346 45.9066L66.5138 45.832H66.6257L74.6548 46.9551L74.3706 47.3791L70.3304 40.4544L70.2558 40.3239L70.3117 40.1794C71.2093 37.9636 71.5939 35.5733 71.4365 33.1878C71.2791 30.8022 70.5839 28.4832 69.403 26.4045C68.204 24.3308 66.5658 22.5446 64.6032 21.1713C62.6257 19.8025 60.3601 18.9065 57.9814 18.5524C55.598 18.1974 53.1651 18.3869 50.8655 19.1069C47.3672 20.209 44.3564 22.4847 42.3417 25.5496C40.327 28.6146 39.4318 32.2809 39.8074 35.9295C40.1354 38.8803 41.2724 41.6831 43.0927 44.0286Z" fill="#263238"/>
<path d="M48.9641 37.2804C50.7654 39.69 53.0634 41.6844 55.7025 43.1287C58.3398 41.6839 60.6362 39.6895 62.4362 37.2804C64.8081 34.1443 64.6916 29.228 61.2991 28.1655C57.5432 26.9912 55.7071 32.6391 55.7071 32.6391C55.7071 32.6391 53.8431 26.9539 50.1151 28.1655C46.718 29.2746 46.5875 34.1536 48.9641 37.2804Z" fill="#004AAD"/>
</svg>
